  0
SECTION
  2
HEADER
  9
$ACADVER
  1
AC1014
  9
$HANDSEED
  5
FFFF
  9
$MEASUREMENT
 70
     1
  0
ENDSEC
  0
SECTION
  2
TABLES
  0
TABLE
  2
VPORT
  5
8
330
0
100
AcDbSymbolTable
 70
     4
  0
VPORT
  5
2E
330
8
100
AcDbSymbolTableRecord
100
AcDbViewportTableRecord
  2
*ACTIVE
 70
     0
 10
0.0
 20
0.0
 11
1.0
 21
1.0
 12
210.0
 22
148.5
 13
0.0
 23
0.0
 14
10.0
 24
10.0
 15
10.0
 25
10.0
 16
0.0
 26
0.0
 36
1.0
 17
0.0
 27
0.0
 37
0.0
 40
341.0
 41
1.24
 42
50.0
 43
0.0
 44
0.0
 50
0.0
 51
0.0
 71
     0
 72
   100
 73
     1
 74
     3
 75
     0
 76
     0
 77
     0
 78
     0
  0
ENDTAB
  0
TABLE
  2
LTYPE
  5
5
330
0
100
AcDbSymbolTable
 70
     1
  0
LTYPE
  5
14
330
5
100
AcDbSymbolTableRecord
100
AcDbLinetypeTableRecord
  2
BYBLOCK
 70
     0
  3

 72
    65
 73
     0
 40
0.0
  0
LTYPE
  5
15
330
5
100
AcDbSymbolTableRecord
100
AcDbLinetypeTableRecord
  2
BYLAYER
 70
     0
  3

 72
    65
 73
     0
 40
0.0
  0
LTYPE
  5
16
330
5
100
AcDbSymbolTableRecord
100
AcDbLinetypeTableRecord
  2
CONTINUOUS
 70
     0
  3
Solid line
 72
    65
 73
     0
 40
0.0
  0
ENDTAB
  0
TABLE
  2
LAYER
  5
2
100
AcDbSymbolTable
 70
2
  0
LAYER
  5
50
100
AcDbSymbolTableRecord
100
AcDbLayerTableRecord
  2
0
 70
0
  6
CONTINUOUS
  0
LAYER
  5
51
100
AcDbSymbolTableRecord
100
AcDbLayerTableRecord
  2
Layer_1
 70
0
  6
CONTINUOUS
  0
ENDTAB
  0
TABLE
  2
STYLE
  5
3
330
0
100
AcDbSymbolTable
 70
     1
  0
STYLE
  5
11
330
3
100
AcDbSymbolTableRecord
100
AcDbTextStyleTableRecord
  2
STANDARD
 70
     0
 40
0.0
 41
1.0
 50
0.0
 71
     0
 42
2.5
  3
txt
  4

  0
ENDTAB
  0
TABLE
  2
VIEW
  5
6
330
0
100
AcDbSymbolTable
 70
     0
  0
ENDTAB
  0
TABLE
  2
UCS
  5
7
330
0
100
AcDbSymbolTable
 70
     0
  0
ENDTAB
  0
TABLE
  2
APPID
  5
9
330
0
100
AcDbSymbolTable
 70
     2
  0
APPID
  5
12
330
9
100
AcDbSymbolTableRecord
100
AcDbRegAppTableRecord
  2
ACAD
 70
     0
  0
ENDTAB
  0
TABLE
  2
DIMSTYLE
  5
A
330
0
100
AcDbSymbolTable
 70
     1
  0
DIMSTYLE
105
27
330
A
100
AcDbSymbolTableRecord
100
AcDbDimStyleTableRecord
  2
ISO-25
 70
     0
  3

  4

  5

  6

  7

 40
1.0
 41
2.5
 42
0.625
 43
3.75
 44
1.25
 45
0.0
 46
0.0
 47
0.0
 48
0.0
140
2.5
141
2.5
142
0.0
143
0.03937007874016
144
1.0
145
0.0
146
1.0
147
0.625
 71
     0
 72
     0
 73
     0
 74
     0
 75
     0
 76
     0
 77
     1
 78
     8
170
     0
171
     3
172
     1
173
     0
174
     0
175
     0
176
     0
177
     0
178
     0
270
     2
271
     2
272
     2
273
     2
274
     3
340
11
275
     0
280
     0
281
     0
282
     0
283
     0
284
     8
285
     0
286
     0
287
     3
288
     0
  0
ENDTAB
  0
TABLE
  2
BLOCK_RECORD
  5
1
330
0
100
AcDbSymbolTable
 70
     1
  0
BLOCK_RECORD
  5
1F
330
1
100
AcDbSymbolTableRecord
100
AcDbBlockTableRecord
  2
*MODEL_SPACE
  0
BLOCK_RECORD
  5
1B
330
1
100
AcDbSymbolTableRecord
100
AcDbBlockTableRecord
  2
*PAPER_SPACE
  0
ENDTAB
  0
ENDSEC
  0
SECTION
  2
BLOCKS
  0
BLOCK
  5
20
330
1F
100
AcDbEntity
  8
0
100
AcDbBlockBegin
  2
*MODEL_SPACE
 70
     0
 10
0.0
 20
0.0
 30
0.0
  3
*MODEL_SPACE
  1

  0
ENDBLK
  5
21
330
1F
100
AcDbEntity
  8
0
100
AcDbBlockEnd
  0
BLOCK
  5
1C
330
1B
100
AcDbEntity
 67
     1
  8
0
100
AcDbBlockBegin
  2
*PAPER_SPACE
  1

  0
ENDBLK
  5
1D
330
1B
100
AcDbEntity
 67
     1
  8
0
100
AcDbBlockEnd
  0
ENDSEC
  0
SECTION
  2
ENTITIES
  0
LINE
  5
100
100
AcDbEntity
  8
Layer_1
 62
7
100
AcDbLine
 10
10.081112
 20
15.500600
 30
0.0
 11
6.687521
 21
15.195200
 31
0.0
  0
LINE
  5
101
100
AcDbEntity
  8
Layer_1
 62
7
100
AcDbLine
 10
6.687521
 20
15.195200
 30
0.0
 11
3.445341
 21
14.428330
 31
0.0
  0
LINE
  5
102
100
AcDbEntity
  8
Layer_1
 62
7
100
AcDbLine
 10
3.445341
 20
14.428330
 30
0.0
 11
0.385063
 21
13.174650
 31
0.0
  0
LINE
  5
103
100
AcDbEntity
  8
Layer_1
 62
7
100
AcDbLine
 10
0.385063
 20
13.174650
 30
0.0
 11
-2.462308
 21
11.408350
 31
0.0
  0
LINE
  5
104
100
AcDbEntity
  8
Layer_1
 62
7
100
AcDbLine
 10
-2.462308
 20
11.408350
 30
0.0
 11
-5.067317
 21
9.104090
 31
0.0
  0
LINE
  5
105
100
AcDbEntity
  8
Layer_1
 62
7
100
AcDbLine
 10
-5.067317
 20
9.104090
 30
0.0
 11
-7.398441
 21
6.237090
 31
0.0
  0
LINE
  5
106
100
AcDbEntity
  8
Layer_1
 62
7
100
AcDbLine
 10
-7.398441
 20
6.237090
 30
0.0
 11
-9.425707
 21
2.782000
 31
0.0
  0
LINE
  5
107
100
AcDbEntity
  8
Layer_1
 62
7
100
AcDbLine
 10
-9.425707
 20
2.782000
 30
0.0
 11
-9.660835
 21
1.921610
 31
0.0
  0
LINE
  5
108
100
AcDbEntity
  8
Layer_1
 62
7
100
AcDbLine
 10
-9.660835
 20
1.921610
 30
0.0
 11
-9.532678
 21
1.159870
 31
0.0
  0
LINE
  5
109
100
AcDbEntity
  8
Layer_1
 62
7
100
AcDbLine
 10
-9.532678
 20
1.159870
 30
0.0
 11
-9.125984
 21
0.538730
 31
0.0
  0
LINE
  5
10a
100
AcDbEntity
  8
Layer_1
 62
7
100
AcDbLine
 10
-9.125984
 20
0.538730
 30
0.0
 11
-8.523437
 21
0.100510
 31
0.0
  0
LINE
  5
10b
100
AcDbEntity
  8
Layer_1
 62
7
100
AcDbLine
 10
-8.523437
 20
0.100510
 30
0.0
 11
-7.809785
 21
-0.114470
 31
0.0
  0
LINE
  5
10c
100
AcDbEntity
  8
Layer_1
 62
7
100
AcDbLine
 10
-7.809785
 20
-0.114470
 30
0.0
 11
-7.068745
 21
-0.063270
 31
0.0
  0
LINE
  5
10d
100
AcDbEntity
  8
Layer_1
 62
7
100
AcDbLine
 10
-7.068745
 20
-0.063270
 30
0.0
 11
-6.385066
 21
0.295370
 31
0.0
  0
LINE
  5
10e
100
AcDbEntity
  8
Layer_1
 62
7
100
AcDbLine
 10
-6.385066
 20
0.295370
 30
0.0
 11
-5.841430
 21
1.002820
 31
0.0
  0
LINE
  5
10f
100
AcDbEntity
  8
Layer_1
 62
7
100
AcDbLine
 10
-5.841430
 20
1.002820
 30
0.0
 11
-4.113370
 21
4.011920
 31
0.0
  0
LINE
  5
110
100
AcDbEntity
  8
Layer_1
 62
7
100
AcDbLine
 10
-4.113370
 20
4.011920
 30
0.0
 11
-2.205993
 21
6.456220
 31
0.0
  0
LINE
  5
111
100
AcDbEntity
  8
Layer_1
 62
7
100
AcDbLine
 10
-2.205993
 20
6.456220
 30
0.0
 11
-0.115681
 21
8.373950
 31
0.0
  0
LINE
  5
112
100
AcDbEntity
  8
Layer_1
 62
7
100
AcDbLine
 10
-0.115681
 20
8.373950
 30
0.0
 11
2.161182
 21
9.802280
 31
0.0
  0
LINE
  5
113
100
AcDbEntity
  8
Layer_1
 62
7
100
AcDbLine
 10
2.161182
 20
9.802280
 30
0.0
 11
4.628732
 21
10.779490
 31
0.0
  0
LINE
  5
114
100
AcDbEntity
  8
Layer_1
 62
7
100
AcDbLine
 10
4.628732
 20
10.779490
 30
0.0
 11
7.291101
 21
11.344300
 31
0.0
  0
LINE
  5
115
100
AcDbEntity
  8
Layer_1
 62
7
100
AcDbLine
 10
7.291101
 20
11.344300
 30
0.0
 11
10.151909
 21
11.534480
 31
0.0
  0
LINE
  5
116
100
AcDbEntity
  8
Layer_1
 62
7
100
AcDbLine
 10
10.151909
 20
11.534480
 30
0.0
 11
13.215288
 21
11.387180
 31
0.0
  0
LINE
  5
117
100
AcDbEntity
  8
Layer_1
 62
7
100
AcDbLine
 10
13.215288
 20
11.387180
 30
0.0
 11
16.471420
 21
10.916410
 31
0.0
  0
LINE
  5
118
100
AcDbEntity
  8
Layer_1
 62
7
100
AcDbLine
 10
16.471420
 20
10.916410
 30
0.0
 11
19.896534
 21
10.127320
 31
0.0
  0
LINE
  5
119
100
AcDbEntity
  8
Layer_1
 62
7
100
AcDbLine
 10
19.896534
 20
10.127320
 30
0.0
 11
23.473576
 21
9.050380
 31
0.0
  0
LINE
  5
11a
100
AcDbEntity
  8
Layer_1
 62
7
100
AcDbLine
 10
23.473576
 20
9.050380
 30
0.0
 11
27.184979
 21
7.715060
 31
0.0
  0
LINE
  5
11b
100
AcDbEntity
  8
Layer_1
 62
7
100
AcDbLine
 10
27.184979
 20
7.715060
 30
0.0
 11
31.013685
 21
6.151340
 31
0.0
  0
LINE
  5
11c
100
AcDbEntity
  8
Layer_1
 62
7
100
AcDbLine
 10
31.013685
 20
6.151340
 30
0.0
 11
34.941609
 21
4.388660
 31
0.0
  0
LINE
  5
11d
100
AcDbEntity
  8
Layer_1
 62
7
100
AcDbLine
 10
34.941609
 20
4.388660
 30
0.0
 11
38.952216
 21
2.456460
 31
0.0
  0
LINE
  5
11e
100
AcDbEntity
  8
Layer_1
 62
7
100
AcDbLine
 10
38.952216
 20
2.456460
 30
0.0
 11
43.027421
 21
0.385280
 31
0.0
  0
LINE
  5
11f
100
AcDbEntity
  8
Layer_1
 62
7
100
AcDbLine
 10
43.027421
 20
0.385280
 30
0.0
 11
43.894551
 21
0.109850
 31
0.0
  0
LINE
  5
120
100
AcDbEntity
  8
Layer_1
 62
7
100
AcDbLine
 10
43.894551
 20
0.109850
 30
0.0
 11
44.670733
 21
0.214760
 31
0.0
  0
LINE
  5
121
100
AcDbEntity
  8
Layer_1
 62
7
100
AcDbLine
 10
44.670733
 20
0.214760
 30
0.0
 11
45.310487
 21
0.612130
 31
0.0
  0
LINE
  5
122
100
AcDbEntity
  8
Layer_1
 62
7
100
AcDbLine
 10
45.310487
 20
0.612130
 30
0.0
 11
45.767822
 21
1.215200
 31
0.0
  0
LINE
  5
123
100
AcDbEntity
  8
Layer_1
 62
7
100
AcDbLine
 10
45.767822
 20
1.215200
 30
0.0
 11
45.998298
 21
1.936080
 31
0.0
  0
LINE
  5
124
100
AcDbEntity
  8
Layer_1
 62
7
100
AcDbLine
 10
45.998298
 20
1.936080
 30
0.0
 11
45.955928
 21
2.687980
 31
0.0
  0
LINE
  5
125
100
AcDbEntity
  8
Layer_1
 62
7
100
AcDbLine
 10
45.955928
 20
2.687980
 30
0.0
 11
45.595227
 21
3.383040
 31
0.0
  0
LINE
  5
126
100
AcDbEntity
  8
Layer_1
 62
7
100
AcDbLine
 10
45.595227
 20
3.383040
 30
0.0
 11
44.871240
 21
3.934430
 31
0.0
  0
LINE
  5
127
100
AcDbEntity
  8
Layer_1
 62
7
100
AcDbLine
 10
44.871240
 20
3.934430
 30
0.0
 11
40.735575
 21
6.041280
 31
0.0
  0
LINE
  5
128
100
AcDbEntity
  8
Layer_1
 62
7
100
AcDbLine
 10
40.735575
 20
6.041280
 30
0.0
 11
36.646418
 21
8.022030
 31
0.0
  0
LINE
  5
129
100
AcDbEntity
  8
Layer_1
 62
7
100
AcDbLine
 10
36.646418
 20
8.022030
 30
0.0
 11
32.612557
 21
9.843100
 31
0.0
  0
LINE
  5
12a
100
AcDbEntity
  8
Layer_1
 62
7
100
AcDbLine
 10
32.612557
 20
9.843100
 30
0.0
 11
28.643288
 21
11.470400
 31
0.0
  0
LINE
  5
12b
100
AcDbEntity
  8
Layer_1
 62
7
100
AcDbLine
 10
28.643288
 20
11.470400
 30
0.0
 11
24.747920
 21
12.870310
 31
0.0
  0
LINE
  5
12c
100
AcDbEntity
  8
Layer_1
 62
7
100
AcDbLine
 10
24.747920
 20
12.870310
 30
0.0
 11
20.935233
 21
14.009260
 31
0.0
  0
LINE
  5
12d
100
AcDbEntity
  8
Layer_1
 62
7
100
AcDbLine
 10
20.935233
 20
14.009260
 30
0.0
 11
17.215047
 21
14.853650
 31
0.0
  0
LINE
  5
12e
100
AcDbEntity
  8
Layer_1
 62
7
100
AcDbLine
 10
17.215047
 20
14.853650
 30
0.0
 11
13.596146
 21
15.369900
 31
0.0
  0
LINE
  5
12f
100
AcDbEntity
  8
Layer_1
 62
7
100
AcDbLine
 10
13.596146
 20
15.369900
 30
0.0
 11
10.081112
 21
15.500600
 31
0.0
  0
LINE
  5
130
100
AcDbEntity
  8
Layer_1
 62
7
100
AcDbLine
 10
7.624931
 20
-0.129970
 30
0.0
 11
7.327792
 21
-0.138970
 31
0.0
  0
LINE
  5
131
100
AcDbEntity
  8
Layer_1
 62
7
100
AcDbLine
 10
7.327792
 20
-0.138970
 30
0.0
 11
7.039437
 21
-0.190170
 31
0.0
  0
LINE
  5
132
100
AcDbEntity
  8
Layer_1
 62
7
100
AcDbLine
 10
7.039437
 20
-0.190170
 30
0.0
 11
6.764519
 21
-0.282170
 31
0.0
  0
LINE
  5
133
100
AcDbEntity
  8
Layer_1
 62
7
100
AcDbLine
 10
6.764519
 20
-0.282170
 30
0.0
 11
6.507170
 21
-0.412400
 31
0.0
  0
LINE
  5
134
100
AcDbEntity
  8
Layer_1
 62
7
100
AcDbLine
 10
6.507170
 20
-0.412400
 30
0.0
 11
6.271009
 21
-0.578290
 31
0.0
  0
LINE
  5
135
100
AcDbEntity
  8
Layer_1
 62
7
100
AcDbLine
 10
6.271009
 20
-0.578290
 30
0.0
 11
6.060169
 21
-0.777230
 31
0.0
  0
LINE
  5
136
100
AcDbEntity
  8
Layer_1
 62
7
100
AcDbLine
 10
6.060169
 20
-0.777230
 30
0.0
 11
5.878785
 21
-1.006680
 31
0.0
  0
LINE
  5
137
100
AcDbEntity
  8
Layer_1
 62
7
100
AcDbLine
 10
5.878785
 20
-1.006680
 30
0.0
 11
5.730473
 21
-1.264540
 31
0.0
  0
LINE
  5
138
100
AcDbEntity
  8
Layer_1
 62
7
100
AcDbLine
 10
5.730473
 20
-1.264540
 30
0.0
 11
4.002413
 21
-4.274180
 31
0.0
  0
LINE
  5
139
100
AcDbEntity
  8
Layer_1
 62
7
100
AcDbLine
 10
4.002413
 20
-4.274180
 30
0.0
 11
2.094520
 21
-6.718480
 31
0.0
  0
LINE
  5
13a
100
AcDbEntity
  8
Layer_1
 62
7
100
AcDbLine
 10
2.094520
 20
-6.718480
 30
0.0
 11
0.004208
 21
-8.635670
 31
0.0
  0
LINE
  5
13b
100
AcDbEntity
  8
Layer_1
 62
7
100
AcDbLine
 10
0.004208
 20
-8.635670
 30
0.0
 11
-2.273172
 21
-10.064000
 31
0.0
  0
LINE
  5
13c
100
AcDbEntity
  8
Layer_1
 62
7
100
AcDbLine
 10
-2.273172
 20
-10.064000
 30
0.0
 11
-4.740722
 21
-11.041720
 31
0.0
  0
LINE
  5
13d
100
AcDbEntity
  8
Layer_1
 62
7
100
AcDbLine
 10
-4.740722
 20
-11.041720
 30
0.0
 11
-7.403609
 21
-11.606550
 31
0.0
  0
LINE
  5
13e
100
AcDbEntity
  8
Layer_1
 62
7
100
AcDbLine
 10
-7.403609
 20
-11.606550
 30
0.0
 11
-10.264416
 21
-11.796200
 31
0.0
  0
LINE
  5
13f
100
AcDbEntity
  8
Layer_1
 62
7
100
AcDbLine
 10
-10.264416
 20
-11.796200
 30
0.0
 11
-13.327795
 21
-11.649440
 31
0.0
  0
LINE
  5
140
100
AcDbEntity
  8
Layer_1
 62
7
100
AcDbLine
 10
-13.327795
 20
-11.649440
 30
0.0
 11
-16.583927
 21
-11.178160
 31
0.0
  0
LINE
  5
141
100
AcDbEntity
  8
Layer_1
 62
7
100
AcDbLine
 10
-16.583927
 20
-11.178160
 30
0.0
 11
-20.009040
 21
-10.389040
 31
0.0
  0
LINE
  5
142
100
AcDbEntity
  8
Layer_1
 62
7
100
AcDbLine
 10
-20.009040
 20
-10.389040
 30
0.0
 11
-23.586083
 21
-9.312110
 31
0.0
  0
LINE
  5
143
100
AcDbEntity
  8
Layer_1
 62
7
100
AcDbLine
 10
-23.586083
 20
-9.312110
 30
0.0
 11
-27.296968
 21
-7.976810
 31
0.0
  0
LINE
  5
144
100
AcDbEntity
  8
Layer_1
 62
7
100
AcDbLine
 10
-27.296968
 20
-7.976810
 30
0.0
 11
-31.125158
 21
-6.413070
 31
0.0
  0
LINE
  5
145
100
AcDbEntity
  8
Layer_1
 62
7
100
AcDbLine
 10
-31.125158
 20
-6.413070
 30
0.0
 11
-35.053082
 21
-4.650390
 31
0.0
  0
LINE
  5
146
100
AcDbEntity
  8
Layer_1
 62
7
100
AcDbLine
 10
-35.053082
 20
-4.650390
 30
0.0
 11
-39.063173
 21
-2.718720
 31
0.0
  0
LINE
  5
147
100
AcDbEntity
  8
Layer_1
 62
7
100
AcDbLine
 10
-39.063173
 20
-2.718720
 30
0.0
 11
-43.138379
 21
-0.647530
 31
0.0
  0
LINE
  5
148
100
AcDbEntity
  8
Layer_1
 62
7
100
AcDbLine
 10
-43.138379
 20
-0.647530
 30
0.0
 11
-44.005508
 21
-0.372100
 31
0.0
  0
LINE
  5
149
100
AcDbEntity
  8
Layer_1
 62
7
100
AcDbLine
 10
-44.005508
 20
-0.372100
 30
0.0
 11
-44.781687
 21
-0.476480
 31
0.0
  0
LINE
  5
14a
100
AcDbEntity
  8
Layer_1
 62
7
100
AcDbLine
 10
-44.781687
 20
-0.476480
 30
0.0
 11
-45.421442
 21
-0.874390
 31
0.0
  0
LINE
  5
14b
100
AcDbEntity
  8
Layer_1
 62
7
100
AcDbLine
 10
-45.421442
 20
-0.874390
 30
0.0
 11
-45.878779
 21
-1.476920
 31
0.0
  0
LINE
  5
14c
100
AcDbEntity
  8
Layer_1
 62
7
100
AcDbLine
 10
-45.878779
 20
-1.476920
 30
0.0
 11
-46.109255
 21
-2.198330
 31
0.0
  0
LINE
  5
14d
100
AcDbEntity
  8
Layer_1
 62
7
100
AcDbLine
 10
-46.109255
 20
-2.198330
 30
0.0
 11
-46.066885
 21
-2.949730
 31
0.0
  0
LINE
  5
14e
100
AcDbEntity
  8
Layer_1
 62
7
100
AcDbLine
 10
-46.066885
 20
-2.949730
 30
0.0
 11
-45.706181
 21
-3.645290
 31
0.0
  0
LINE
  5
14f
100
AcDbEntity
  8
Layer_1
 62
7
100
AcDbLine
 10
-45.706181
 20
-3.645290
 30
0.0
 11
-44.982197
 21
-4.196150
 31
0.0
  0
LINE
  5
150
100
AcDbEntity
  8
Layer_1
 62
7
100
AcDbLine
 10
-44.982197
 20
-4.196150
 30
0.0
 11
-40.846532
 21
-6.303000
 31
0.0
  0
LINE
  5
151
100
AcDbEntity
  8
Layer_1
 62
7
100
AcDbLine
 10
-40.846532
 20
-6.303000
 30
0.0
 11
-36.757375
 21
-8.283750
 31
0.0
  0
LINE
  5
152
100
AcDbEntity
  8
Layer_1
 62
7
100
AcDbLine
 10
-36.757375
 20
-8.283750
 30
0.0
 11
-32.723514
 21
-10.104830
 31
0.0
  0
LINE
  5
153
100
AcDbEntity
  8
Layer_1
 62
7
100
AcDbLine
 10
-32.723514
 20
-10.104830
 30
0.0
 11
-28.754245
 21
-11.732120
 31
0.0
  0
LINE
  5
154
100
AcDbEntity
  8
Layer_1
 62
7
100
AcDbLine
 10
-28.754245
 20
-11.732120
 30
0.0
 11
-24.858876
 21
-13.132030
 31
0.0
  0
LINE
  5
155
100
AcDbEntity
  8
Layer_1
 62
7
100
AcDbLine
 10
-24.858876
 20
-13.132030
 30
0.0
 11
-21.046189
 21
-14.271510
 31
0.0
  0
LINE
  5
156
100
AcDbEntity
  8
Layer_1
 62
7
100
AcDbLine
 10
-21.046189
 20
-14.271510
 30
0.0
 11
-17.326003
 21
-15.115900
 31
0.0
  0
LINE
  5
157
100
AcDbEntity
  8
Layer_1
 62
7
100
AcDbLine
 10
-17.326003
 20
-15.115900
 30
0.0
 11
-13.707103
 21
-15.631630
 31
0.0
  0
LINE
  5
158
100
AcDbEntity
  8
Layer_1
 62
7
100
AcDbLine
 10
-13.707103
 20
-15.631630
 30
0.0
 11
-10.192072
 21
-15.762890
 31
0.0
  0
LINE
  5
159
100
AcDbEntity
  8
Layer_1
 62
7
100
AcDbLine
 10
-10.192072
 20
-15.762890
 30
0.0
 11
-6.798481
 21
-15.457480
 31
0.0
  0
LINE
  5
15a
100
AcDbEntity
  8
Layer_1
 62
7
100
AcDbLine
 10
-6.798481
 20
-15.457480
 30
0.0
 11
-3.556818
 21
-14.690610
 31
0.0
  0
LINE
  5
15b
100
AcDbEntity
  8
Layer_1
 62
7
100
AcDbLine
 10
-3.556818
 20
-14.690610
 30
0.0
 11
-0.497056
 21
-13.436410
 31
0.0
  0
LINE
  5
15c
100
AcDbEntity
  8
Layer_1
 62
7
100
AcDbLine
 10
-0.497056
 20
-13.436410
 30
0.0
 11
2.350315
 21
-11.670100
 31
0.0
  0
LINE
  5
15d
100
AcDbEntity
  8
Layer_1
 62
7
100
AcDbLine
 10
2.350315
 20
-11.670100
 30
0.0
 11
4.954290
 21
-9.365870
 31
0.0
  0
LINE
  5
15e
100
AcDbEntity
  8
Layer_1
 62
7
100
AcDbLine
 10
4.954290
 20
-9.365870
 30
0.0
 11
7.285414
 21
-6.499380
 31
0.0
  0
LINE
  5
15f
100
AcDbEntity
  8
Layer_1
 62
7
100
AcDbLine
 10
7.285414
 20
-6.499380
 30
0.0
 11
9.312681
 21
-3.043760
 31
0.0
  0
LINE
  5
160
100
AcDbEntity
  8
Layer_1
 62
7
100
AcDbLine
 10
9.312681
 20
-3.043760
 30
0.0
 11
9.491481
 21
-2.549230
 31
0.0
  0
LINE
  5
161
100
AcDbEntity
  8
Layer_1
 62
7
100
AcDbLine
 10
9.491481
 20
-2.549230
 30
0.0
 11
9.535406
 21
-2.051070
 31
0.0
  0
LINE
  5
162
100
AcDbEntity
  8
Layer_1
 62
7
100
AcDbLine
 10
9.535406
 20
-2.051070
 30
0.0
 11
9.456341
 21
-1.569950
 31
0.0
  0
LINE
  5
163
100
AcDbEntity
  8
Layer_1
 62
7
100
AcDbLine
 10
9.456341
 20
-1.569950
 30
0.0
 11
9.265655
 21
-1.125530
 31
0.0
  0
LINE
  5
164
100
AcDbEntity
  8
Layer_1
 62
7
100
AcDbLine
 10
9.265655
 20
-1.125530
 30
0.0
 11
8.975234
 21
-0.739000
 31
0.0
  0
LINE
  5
165
100
AcDbEntity
  8
Layer_1
 62
7
100
AcDbLine
 10
8.975234
 20
-0.739000
 30
0.0
 11
8.596962
 21
-0.431000
 31
0.0
  0
LINE
  5
166
100
AcDbEntity
  8
Layer_1
 62
7
100
AcDbLine
 10
8.596962
 20
-0.431000
 30
0.0
 11
8.143243
 21
-0.220680
 31
0.0
  0
LINE
  5
167
100
AcDbEntity
  8
Layer_1
 62
7
100
AcDbLine
 10
8.143243
 20
-0.220680
 30
0.0
 11
7.624931
 21
-0.129970
 31
0.0
  0
ENDSEC
  0
SECTION
  2
OBJECTS
  0
DICTIONARY
  5
C
330
0
100
AcDbDictionary
  3
ACAD_GROUP
350
D
  3
ACAD_MLINESTYLE
350
17
  0
DICTIONARY
  5
D
330
C
100
AcDbDictionary
  0
DICTIONARY
  5
1A
330
C
100
AcDbDictionary
  0
DICTIONARY
  5
17
330
C
100
AcDbDictionary
  3
STANDARD
350
18
  0
DICTIONARY
  5
19
330
C
100
AcDbDictionary
  0
ENDSEC
  0
EOF
