<?xml version="1.0" standalone="no"?>
<!DOCTYPE svg PUBLIC "-//W3C//DTD SVG 1.1//EN" "http://www.w3.org/Graphics/SVG/1.1/DTD/svg11.dtd">
<svg width="497mm" height="192mm" viewBox="-50 -96 497 192" xmlns="http://www.w3.org/2000/svg" version="1.1">
<title>OpenSCAD Model</title>
<path d="
M -6.79883,-64.543 L -3.55664,-65.3096 L -0.49707,-66.5635 L 2.35059,-68.3301 L 4.9541,-70.6338 L 6.29012,-72.2771
 L 6.6913,-72.5686 L 8.09016,-74.1222 L 9.13545,-75.9326 L 9.78146,-77.9209 L 10,-80 L 9.78146,-82.0791
 L 9.13545,-84.0674 L 8.09016,-85.8778 L 6.6913,-87.4314 L 5,-88.6602 L 3.09016,-89.5106 L 2.04842,-89.732
 L 2.16113,-89.8027 L 4.62891,-90.7793 L 7.29102,-91.3447 L 10.1523,-91.5342 L 13.2148,-91.3867 L 16.4717,-90.916
 L 19.8965,-90.127 L 23.4736,-89.0508 L 27.1846,-87.7148 L 31.0137,-86.1514 L 34.9414,-84.3887 L 38.9521,-82.4561
 L 43.0273,-80.3857 L 43.8945,-80.1094 L 44.6709,-80.2148 L 45.3105,-80.6123 L 45.7676,-81.2148 L 45.998,-81.9365
 L 45.9561,-82.6875 L 45.5957,-83.3828 L 44.8711,-83.9346 L 40.7354,-86.041 L 36.6465,-88.0225 L 32.6123,-89.8428
 L 28.6436,-91.4707 L 24.748,-92.8701 L 20.9355,-94.0088 L 17.2148,-94.8535 L 13.5957,-95.3701 L 10.0811,-95.501
 L 6.6875,-95.1953 L 3.44531,-94.4287 L 0.384766,-93.1748 L -2.46191,-91.4082 L -5.06738,-89.1045 L -6.04703,-87.8995
 L -6.6913,-87.4314 L -8.09016,-85.8778 L -9.13545,-84.0674 L -9.78146,-82.0791 L -10,-80 L -9.78146,-77.9209
 L -9.13545,-75.9326 L -8.09016,-74.1222 L -6.6913,-72.5686 L -5,-71.3398 L -3.09016,-70.4894 L -1.82065,-70.2196
 L -2.27344,-69.9355 L -4.74023,-68.958 L -7.40332,-68.3936 L -10.2646,-68.2041 L -13.3281,-68.3506 L -16.584,-68.8223
 L -20.0088,-69.6113 L -23.5859,-70.6875 L -27.2969,-72.0234 L -31.125,-73.5869 L -35.0527,-75.3496 L -39.0635,-77.2812
 L -43.1387,-79.3525 L -44.0059,-79.6279 L -44.7812,-79.5234 L -45.4219,-79.126 L -45.8789,-78.5234 L -46.1094,-77.8018
 L -46.0664,-77.0498 L -45.7061,-76.3545 L -44.9824,-75.8037 L -40.8467,-73.6973 L -36.7578,-71.7158 L -32.7236,-69.8955
 L -28.7539,-68.2676 L -24.8584,-66.8682 L -21.0459,-65.7285 L -17.3262,-64.8838 L -13.707,-64.3682 L -10.1924,-64.2373
 z
M -2,-76.5359 L -4,-80 L -2,-83.4641 L 2,-83.4641 L 4,-80 L 2,-76.5359
 z
M 211.314,45.253 L 212.645,45.1329 L 214.142,45.0039 L 215.259,44.8762 L 216.971,44.5729 L 219.725,44.0015
 L 219.799,43.9865 L 219.841,43.9767 L 222.627,43.0276 L 223.195,42.8127 L 224,42.2285 L 224.888,41.6045
 L 225.456,40.7967 L 227.866,36.327 L 228.284,35.1844 L 229.397,31.4205 L 229.667,29.1892 L 230.118,26.8154
 L 230.157,23.9636 L 230.293,22.4801 L 230.056,19.9509 L 230.043,18.4085 L 229.664,16.5745 L 229.438,14.5984
 L 229.103,13.5943 L 228.511,11.0542 L 228.432,10.8892 L 228.284,10.4915 L 227.536,8.66486 L 227.263,7.77644
 L 226.568,6.62564 L 225.672,4.77397 L 225.577,4.66336 L 225.456,4.49315 L 224.383,3.11688 L 223.7,2.05292
 L 223.193,1.58861 L 222.627,0.9702 L 221.91,0.254456 L 221.365,-0.394974 L 220.575,-0.959869 L 219.799,-1.62094
 L 219.196,-2.0876 L 218.658,-2.5824 L 217.755,-3.08333 L 216.971,-3.60632 L 216.279,-4.02103 L 215.563,-4.53438
 L 214.761,-4.87816 L 214.142,-5.20383 L 213.191,-5.64651 L 212.059,-6.28737 L 211.618,-6.43434 L 211.314,-6.56281
 L 209.957,-7.05743 L 209.914,-7.07701 L 209.463,-7.43144 L 207.071,-8.66025 L 204.37,-9.51056 L 201.478,-9.94521
 L 198.522,-9.94521 L 195.63,-9.51056 L 192.929,-8.66025 L 190.537,-7.43144 L 188.559,-5.87784 L 187.081,-4.06735
 L 186.871,-3.6124 L 186.817,-3.71994 L 186.599,-4.42139 L 186.098,-6.40099 L 186.079,-6.61557 L 185.972,-9.136
 L 185.984,-9.26201 L 186.331,-11.9437 L 186.479,-12.587 L 187.072,-14.8538 L 187.771,-16.9116 L 188.129,-17.887
 L 188.686,-19.1802 L 189.453,-21.0401 L 190.313,-22.94 L 190.972,-24.3321 L 191.515,-25.4238 L 192.628,-27.769
 L 194.343,-31.3123 L 194.368,-31.3658 L 194.407,-31.4511 L 196.149,-35.1055 L 197.172,-37.2926 L 197.933,-38.9974
 L 199.155,-41.8278 L 199.688,-43.0259 L 199.904,-43.8647 L 199.912,-43.8938 L 199.833,-44.6237 L 199.829,-44.6697
 L 199.562,-45.2085 L 199.516,-45.3095 L 199.179,-45.6331 L 199.045,-45.7725 L 198.732,-45.9012 L 198.481,-46.0193
 L 198.256,-46.0063 L 197.892,-46.0051 L 197.775,-45.9309 L 197.337,-45.6807 L 197.315,-45.6446 L 197.172,-45.4287
 L 196.923,-45.046 L 196.882,-44.9867 L 195.901,-42.7705 L 195.015,-41.0252 L 194.758,-40.4478 L 194.343,-39.6371
 L 193.625,-38.1394 L 193.103,-37.1903 L 192.486,-35.8891 L 191.515,-34.1131 L 191.321,-33.7332 L 191.176,-33.4867
 L 190.203,-31.5307 L 189.27,-29.9044 L 189.053,-29.4423 L 188.686,-28.7693 L 187.947,-27.3178 L 187.428,-26.4356
 L 186.86,-25.2165 L 185.858,-23.3703 L 185.762,-23.1805 L 185.696,-23.0695 L 184.777,-21.0066 L 184.134,-19.7729
 L 183.806,-18.8649 L 183.029,-17.0606 L 182.881,-16.6935 L 182.802,-16.5276 L 182.153,-14.2691 L 181.806,-13.2774
 L 181.578,-11.6659 L 181.254,-9.99203 L 181.289,-8.70456 L 181.258,-6.66034 L 181.638,-4.94456 L 181.951,-3.28522
 L 183.029,-0.877106 L 183.497,0.103531 L 185.858,3.15813 L 186.09,3.43744 L 187.584,4.68427 L 188.559,5.87784
 L 190.537,7.43144 L 192.929,8.66025 L 195.63,9.51056 L 198.522,9.94521 L 201.478,9.94521 L 204.37,9.51056
 L 207.071,8.66025 L 209.463,7.43144 L 211.441,5.87784 L 212.919,4.06735 L 213.833,2.07912 L 214.122,0.137955
 L 214.142,0.152222 L 214.578,0.435776 L 215.808,1.58067 L 216.654,2.38673 L 216.971,2.82172 L 218.342,4.60878
 L 219.59,6.93759 L 219.683,7.12573 L 219.799,7.46382 L 220.7,9.95041 L 221.031,11.3101 L 221.372,13.0942
 L 221.588,15.2736 L 221.634,16.5567 L 221.573,18.911 L 221.427,20.3291 L 221.152,22.2634 L 220.642,24.4026
 L 220.406,25.3281 L 219.799,26.9342 L 219.393,28.1313 L 219.093,28.7644 L 218.172,30.7151 L 216.971,32.5624
 L 216.725,32.992 L 216.414,33.3972 L 215.142,35.1027 L 214.142,36.0815 L 213.388,36.9493 L 211.859,38.2457
 L 211.496,38.5669 L 211.314,38.6804 L 209.525,40.0583 L 208.485,40.6219 L 207.437,41.3307 L 205.657,42.1736
 L 205.255,42.4133 L 203.696,43.0587 L 203.435,43.2576 L 202.828,43.6356 L 202.475,43.8627 L 202.266,43.974
 L 202.828,44.5079 L 203.08,44.7286 L 205.657,45.1943 L 205.927,45.2342 L 208.485,45.3134 L 210.278,45.3171
 z
M 197.172,3.4641 L 194.343,-0 L 197.172,-3.4641 L 202.828,-3.4641 L 205.657,-0 L 202.828,3.4641
 z
M 285.858,25.7784 L 286.536,25.7148 L 288.686,25.5931 L 290.624,25.36 L 291.515,25.2866 L 293.457,25.0005
 L 294.343,24.8215 L 294.845,24.6871 L 297.172,24.1477 L 299.348,23.4966 L 300,23.3252 L 301.045,22.9782
 L 302.828,22.233 L 304.417,21.4533 L 305.657,20.8857 L 306.945,20.1988 L 308.485,19.1385 L 311.246,17.003
 L 311.314,16.9302 L 314.117,13.6194 L 314.142,13.5724 L 315.767,10.2022 L 316.175,7.78197 L 316.376,6.83145
 L 316.124,4.52391 L 316.076,3.52844 L 315.492,1.99728 L 314.977,0.283539 L 314.627,-0.254715 L 314.142,-1.14914
 L 313.913,-1.53879 L 313.833,-2.07912 L 312.919,-4.06735 L 311.441,-5.87784 L 309.463,-7.43144 L 307.071,-8.66025
 L 304.37,-9.51056 L 301.478,-9.94521 L 298.522,-9.94521 L 295.63,-9.51056 L 292.929,-8.66025 L 292.401,-8.38899
 L 292.433,-8.49152 L 293.157,-9.86746 L 293.703,-10.852 L 294.343,-11.6791 L 295.384,-13.0827 L 297.172,-14.9809
 L 297.419,-15.2563 L 298.565,-16.3362 L 299.752,-17.4422 L 300,-17.6464 L 302.343,-19.6891 L 302.828,-20.0741
 L 305.148,-22.0246 L 305.657,-22.4278 L 308.111,-24.4937 L 308.485,-24.7977 L 311.182,-27.1285 L 311.314,-27.2408
 L 312.537,-28.35 L 314.142,-29.795 L 314.309,-29.9541 L 316.971,-32.501 L 317.445,-32.9817 L 319.799,-35.4018
 L 320.55,-36.2186 L 322.627,-38.5321 L 323.586,-39.659 L 323.785,-39.986 L 324.081,-40.45 L 324.168,-40.882
 L 324.251,-41.2419 L 324.192,-41.6398 L 324.154,-41.9653 L 324.001,-42.2481 L 323.849,-42.5575 L 323.674,-42.7004
 L 323.386,-42.9605 L 323.258,-42.989 L 322.818,-43.1125 L 322.783,-43.1018 L 322.627,-43.062 L 322.267,-42.96
 L 322.186,-42.9414 L 321.742,-42.552 L 321.535,-42.3844 L 320.651,-41.3366 L 319.799,-40.4462 L 319.178,-39.7449
 L 318.476,-39.0469 L 317.701,-38.197 L 316.971,-37.4957 L 316.213,-36.7058 L 315.338,-35.9066 L 314.718,-35.2731
 L 314.142,-34.759 L 313.224,-33.867 L 312.152,-32.9592 L 311.718,-32.5398 L 311.314,-32.2011 L 310.226,-31.2049
 L 308.955,-30.1956 L 308.713,-29.9715 L 308.485,-29.7888 L 307.232,-28.6897 L 305.785,-27.5922 L 305.72,-27.5331
 L 305.657,-27.4838 L 304.258,-26.286 L 302.828,-25.2285 L 302.76,-25.1731 L 302.681,-25.1179 L 301.322,-23.9523
 L 300,-22.9726 L 299.85,-22.8513 L 299.683,-22.7346 L 298.444,-21.6358 L 297.172,-20.6596 L 297.007,-20.5224
 L 296.833,-20.3964 L 295.652,-19.2573 L 294.343,-18.1614 L 294.264,-18.0893 L 294.185,-18.0271 L 292.988,-16.7017
 L 291.799,-15.555 L 291.685,-15.3912 L 291.515,-15.1788 L 290.51,-13.8366 L 289.732,-12.9335 L 289.364,-12.2414
 L 288.686,-11.1479 L 288.302,-10.4861 L 288.05,-10.1138 L 287.428,-8.39156 L 286.842,-7.04321 L 286.695,-6.03752
 L 286.212,-3.67438 L 286.246,-3.16379 L 286.265,-2.29286 L 286.167,-2.07912 L 285.858,-0 L 286.167,2.07912
 L 287.081,4.06735 L 288.559,5.87784 L 290.537,7.43144 L 292.929,8.66025 L 295.63,9.51056 L 298.522,9.94521
 L 301.478,9.94521 L 304.37,9.51056 L 307.071,8.66025 L 309.463,7.43144 L 310.256,6.80864 L 310.227,7.35796
 L 309.852,8.65202 L 309.348,10.0333 L 309.036,10.5574 L 308.485,11.3486 L 307.936,12.1805 L 307.544,12.689
 L 306.636,13.6059 L 305.657,14.4595 L 305.206,14.878 L 304.711,15.2756 L 303.644,16.0078 L 302.828,16.4838
 L 301.991,17.0146 L 300.73,17.692 L 300.268,17.9118 L 300,18.0166 L 298.454,18.6921 L 297.172,19.1463
 L 296.6,19.3746 L 295.466,19.7377 L 294.695,19.9584 L 294.343,20.0325 L 292.733,20.4431 L 291.515,20.6646
 L 290.746,20.8375 L 288.87,21.1259 L 288.737,21.1441 L 288.686,21.1474 L 286.68,21.3667 L 285.858,21.3998
 L 284.608,21.5036 L 283.029,21.5276 L 282.524,21.5566 L 281.092,21.543 L 280.423,21.5305 L 280.201,21.5114
 L 278.299,21.4298 L 277.373,21.328 L 276.17,21.2473 L 274.544,21.0303 L 274.038,20.9841 L 272.491,20.741
 L 271.9,20.646 L 271.716,20.604 L 269.749,20.2415 L 268.887,20.0244 L 267.601,19.7566 L 266.059,19.3314
 L 265.457,19.1917 L 263.599,18.6343 L 263.318,18.5501 L 263.23,18.5178 L 261.171,17.8505 L 260.402,17.5472
 L 259.034,17.0699 L 257.574,16.457 L 256.908,16.2077 L 254.94,15.3308 L 254.793,15.2659 L 254.745,15.2411
 L 252.678,14.2733 L 251.917,13.8604 L 250.577,13.1968 L 249.088,12.3466 L 248.494,12.0354 L 246.888,11.0713
 L 246.426,10.7977 L 246.26,10.6862 L 244.365,9.50749 L 243.431,8.85083 L 242.326,8.12869 L 240.603,6.86069
 L 240.31,6.65964 L 239.612,6.1221 L 238.999,5.73326 L 238.205,5.20181 L 238.078,5.15608 L 237.775,5.03658
 L 237.248,4.83604 L 237.03,4.74545 L 236.522,4.72354 L 236.104,4.68584 L 235.9,4.79036 L 235.471,4.96864
 L 235.43,5.07243 L 235.194,5.54924 L 235.212,5.62935 L 235.351,6.38449 L 235.483,6.58267 L 236.022,7.42517
 L 236.896,8.2381 L 237.285,8.6066 L 237.775,8.98933 L 238.083,9.20813 L 240.603,11.0905 L 242.563,12.4147
 L 243.431,13.0346 L 245.056,14.0796 L 246.26,14.8163 L 246.87,15.1482 L 249.088,16.4398 L 251.039,17.4437
 L 251.917,17.9301 L 253.909,18.8996 L 254.745,19.2814 L 255.108,19.4237 L 257.574,20.4845 L 259.106,21.0449
 L 260.402,21.5695 L 263.04,22.4673 L 263.23,22.5397 L 263.739,22.7001 L 266.059,23.3634 L 266.954,23.5635
 L 268.887,24.0699 L 270.84,24.4592 L 271.716,24.668 L 274.126,25.0908 L 274.544,25.1506 L 274.707,25.1638
 L 277.373,25.4814 L 278.625,25.5531 L 280.201,25.7036 L 282.539,25.7807 L 283.029,25.8159 L 284.308,25.8268
 z
M 297.172,3.4641 L 294.343,-0 L 297.172,-3.4641 L 302.828,-3.4641 L 305.657,-0 L 302.828,3.4641
 z
M 104.37,9.51056 L 107.071,8.66025 L 109.463,7.43144 L 111.441,5.87784 L 112.919,4.06735 L 113.833,2.07912
 L 114.142,-0 L 113.833,-2.07912 L 112.919,-4.06735 L 111.441,-5.87784 L 111.239,-6.03691 L 111.314,-6.03207
 L 111.855,-6.01373 L 114.142,-5.6539 L 115.081,-5.5349 L 116.971,-5.06651 L 118.248,-4.79146 L 119.799,-4.28946
 L 121.441,-3.81718 L 122.627,-3.37201 L 124.746,-2.66295 L 125.456,-2.37305 L 128.216,-1.37143 L 128.284,-1.34258
 L 128.518,-1.25526 L 131.113,-0.251465 L 131.88,0.00753784 L 133.941,0.785263 L 135.803,1.38788 L 136.77,1.72397
 L 138.725,2.29129 L 139.598,2.56404 L 140.036,2.67654 L 142.426,3.31139 L 144.621,3.76561 L 145.255,3.8963
 L 146.101,4.01909 L 148.083,4.36713 L 149.584,4.54202 L 150.912,4.68503 L 152.402,4.75537 L 153.74,4.86299
 L 154.936,4.88876 L 156.569,4.90137 L 158.171,4.81799 L 159.397,4.79733 L 160.641,4.7039 L 161.673,4.45103
 L 161.921,4.39394 L 162.225,4.22409 L 163.106,3.72144 L 163.591,3.28487 L 164.115,2.82147 L 164.79,1.92773
 L 164.862,1.83604 L 165.054,1.40126 L 165.267,0.901901 L 165.266,0.846542 L 165.278,0.142731 L 165.246,0.112869
 L 165.054,-0.09935 L 164.866,-0.29361 L 164.839,-0.326767 L 164.17,-0.360901 L 163.879,-0.393311 L 162.78,-0.249512
 L 162.225,-0.233902 L 160.91,-0.0908356 L 159.397,-0.085083 L 159.063,-0.0561981 L 158.441,-0.0693054 L 157.216,-0.0238953
 L 156.569,-0.0683746 L 155.381,-0.0529633 L 153.74,-0.209686 L 153.573,-0.211624 L 153.282,-0.247589 L 151.761,-0.32724
 L 150.912,-0.463852 L 149.971,-0.538025 L 148.417,-0.834061 L 148.207,-0.856842 L 148.083,-0.883636 L 146.437,-1.10866
 L 145.255,-1.40109 L 144.699,-1.49313 L 143.844,-1.73282 L 142.974,-1.89078 L 142.426,-2.04953 L 141.258,-2.29694
 L 139.598,-2.83455 L 139.58,-2.83894 L 139.554,-2.84828 L 137.887,-3.25351 L 136.77,-3.64583 L 136.229,-3.79465
 L 135.49,-4.08095 L 134.579,-4.31432 L 133.941,-4.54344 L 132.939,-4.83243 L 131.621,-5.35262 L 131.326,-5.42645
 L 131.113,-5.50061 L 129.7,-5.89871 L 128.284,-6.4382 L 128.108,-6.49373 L 127.885,-6.58652 L 126.494,-6.93288
 L 125.456,-7.28619 L 124.9,-7.44154 L 124.204,-7.70175 L 123.301,-7.87741 L 122.627,-8.06491 L 121.697,-8.27234
 L 120.518,-8.63675 L 120.105,-8.69037 L 119.799,-8.75374 L 118.487,-8.95918 L 116.971,-9.31616 L 116.889,-9.33118
 L 116.784,-9.35889 L 115.256,-9.48514 L 114.142,-9.65965 L 113.633,-9.71483 L 112.956,-9.83893 L 111.993,-9.84444
 L 111.314,-9.89706 L 110.34,-9.92677 L 108.985,-10.0659 L 108.687,-10.0452 L 108.485,-10.0456 L 106.999,-9.97849
 L 105.657,-10.0146 L 105.314,-10.0076 L 104.809,-10.0337 L 103.6,-9.89597 L 102.828,-9.8658 L 102.312,-9.81987
 L 101.478,-9.94521 L 98.5217,-9.94521 L 95.6298,-9.51056 L 92.9289,-8.66025 L 90.5371,-7.43144 L 88.5588,-5.87784
 L 87.0805,-4.06735 L 86.1669,-2.07912 L 85.8578,-0 L 86.1669,2.07912 L 86.6762,3.18742 L 86.5019,3.10539
 L 86.1601,2.89693 L 85.8578,2.68881 L 84.6855,1.92516 L 83.476,1.03781 L 83.2609,0.841293 L 83.0294,0.604752
 L 81.9354,-0.463104 L 81.0401,-1.44096 L 80.6838,-1.91603 L 80.201,-2.64075 L 79.5382,-3.59471 L 79.1263,-4.26416
 L 78.4949,-5.49692 L 77.6526,-7.386 L 77.5661,-7.61743 L 77.3726,-8.2294 L 76.7719,-10.0511 L 76.5742,-10.7701
 L 76.1272,-12.7917 L 75.8526,-14.378 L 75.645,-15.8641 L 75.4203,-18.1846 L 75.3336,-19.3012 L 75.222,-22.1668
 L 75.1918,-23.12 L 75.2032,-26.3064 L 75.2061,-27.3133 L 75.3214,-30.5834 L 75.357,-31.8544 L 75.5383,-34.9813
 L 75.6161,-36.6946 L 75.8205,-39.4793 L 75.7837,-39.8836 L 75.7518,-40.4002 L 75.6215,-40.6818 L 75.4232,-41.1461
 L 75.2881,-41.2868 L 74.9204,-41.697 L 74.8542,-41.7308 L 74.5441,-41.9063 L 74.3615,-42.005 L 74.3235,-42.0276
 L 73.8579,-42.0854 L 73.7084,-42.1119 L 73.382,-41.9969 L 73.1501,-41.9294 L 72.9661,-41.7097 L 72.7232,-41.4465
 L 72.6575,-41.1698 L 72.5079,-40.6262 L 72.4241,-39.4887 L 72.0558,-36.1276 L 72.0266,-35.6366 L 71.7157,-32.3995
 L 71.6609,-31.793 L 71.65,-31.7084 L 71.385,-27.8748 L 71.331,-27.3737 L 71.1967,-23.907 L 71.1374,-23.1369
 L 71.1513,-19.8202 L 71.1244,-19.0013 L 71.3392,-15.5044 L 71.3534,-14.9714 L 71.7157,-12.3175 L 71.8996,-11.051
 L 72.0072,-10.6586 L 72.8553,-7.24858 L 74.1457,-4.10068 L 74.3471,-3.58418 L 74.5441,-3.25024 L 76.5249,-0.102493
 L 77.3726,0.860855 L 79.4868,3.10042 L 80.201,3.65538 L 82.2359,5.11125 L 83.0294,5.69034 L 83.3246,5.88812
 L 85.8578,7.11238 L 88.0781,8.06937 L 88.6863,8.243 L 89.3185,8.39229 L 91.5147,8.95929 L 93.6885,9.41431
 L 94.3431,9.47212 L 94.8834,9.4929 L 95.9731,9.56215 L 98.5217,9.94521 L 101.478,9.94521 z
M 97.1716,3.4641 L 94.3431,-0 L 97.1716,-3.4641 L 102.828,-3.4641 L 105.657,-0 L 102.828,3.4641
 z
M 392.095,15.9325 L 394.343,15.6817 L 396.286,15.3683 L 397.172,15.2462 L 398.174,15.0575 L 400,14.4836
 L 402.138,13.6951 L 402.828,13.4558 L 403.393,13.2285 L 405.657,11.8904 L 407.575,10.6294 L 408.485,9.7476
 L 410.672,7.43605 L 411.314,6.35629 L 411.853,5.37311 L 412.919,4.06735 L 413.833,2.07912 L 414.142,-0
 L 413.833,-2.07912 L 412.919,-4.06735 L 411.441,-5.87784 L 409.463,-7.43144 L 407.071,-8.66025 L 404.37,-9.51056
 L 401.478,-9.94521 L 400.399,-9.94521 L 400.513,-10.0307 L 402.828,-11.3158 L 403.166,-11.5148 L 405.657,-12.6107
 L 406.038,-12.7909 L 408.485,-13.6771 L 409.144,-13.9373 L 411.314,-14.6271 L 412.489,-15.0405 L 414.142,-15.5276
 L 416.069,-16.1639 L 416.971,-16.4213 L 419.613,-17.275 L 419.799,-17.3329 L 419.861,-17.3546 L 422.627,-18.2407
 L 423.832,-18.6748 L 425.456,-19.2311 L 427.954,-20.1918 L 428.284,-20.3166 L 428.941,-20.5934 L 431.113,-21.4717
 L 432.176,-21.9488 L 433.941,-22.7418 L 436.458,-23.9881 L 436.77,-24.145 L 437.359,-24.4696 L 439.598,-25.6595
 L 440.743,-26.3225 L 442.426,-27.3232 L 444.988,-28.9715 L 445.255,-29.2053 L 445.762,-29.653 L 445.858,-29.8223
 L 446.225,-30.4399 L 446.287,-30.7314 L 446.409,-31.2397 L 446.376,-31.5243 L 446.342,-31.9651 L 446.236,-32.1582
 L 446.053,-32.5362 L 445.934,-32.6113 L 445.571,-32.8719 L 445.511,-32.8709 L 445.255,-32.8808 L 444.977,-32.8833
 L 444.912,-32.8874 L 444.354,-32.6145 L 444.092,-32.4997 L 443.111,-31.83 L 442.426,-31.4306 L 441.432,-30.7816
 L 439.95,-29.9606 L 439.742,-29.8325 L 439.598,-29.7576 L 438.059,-28.8549 L 436.77,-28.2216 L 436.365,-27.9957
 L 435.75,-27.7108 L 434.676,-27.1404 L 433.941,-26.8189 L 432.984,-26.3379 L 431.542,-25.7454 L 431.288,-25.6227
 L 431.113,-25.5537 L 429.606,-24.8659 L 428.284,-24.3813 L 427.914,-24.2224 L 427.357,-24.0327 L 426.236,-23.56
 L 425.456,-23.2994 L 424.559,-22.9454 L 423.237,-22.5383 L 422.882,-22.3967 L 422.627,-22.3171 L 421.224,-21.7958
 L 419.799,-21.3869 L 419.557,-21.3036 L 419.207,-21.2122 L 417.915,-20.7445 L 416.971,-20.4806 L 416.271,-20.2463
 L 415.291,-19.9979 L 414.638,-19.7575 L 414.142,-19.615 L 413.022,-19.233 L 411.506,-18.8377 L 411.399,-18.7949
 L 411.314,-18.7678 L 409.813,-18.2102 L 408.485,-17.8229 L 408.213,-17.7295 L 407.855,-17.6347 L 406.649,-17.1183
 L 405.657,-16.774 L 405.08,-16.5445 L 404.35,-16.3118 L 403.535,-15.8987 L 402.828,-15.6003 L 402.002,-15.2085
 L 400.997,-14.8155 L 400.478,-14.4966 L 400,-14.2472 L 398.984,-13.6617 L 397.802,-13.0871 L 397.484,-12.8467
 L 397.172,-12.6436 L 396.033,-11.8356 L 394.769,-11.0682 L 394.562,-10.8736 L 394.343,-10.6967 L 393.155,-9.65248
 L 391.896,-8.70137 L 391.718,-8.49217 L 391.515,-8.28812 L 390.902,-7.61897 L 390.537,-7.43144 L 388.559,-5.87784
 L 387.081,-4.06735 L 386.167,-2.07912 L 385.858,-0 L 386.167,2.07912 L 387.081,4.06735 L 388.559,5.87784
 L 390.537,7.43144 L 392.929,8.66025 L 395.63,9.51056 L 398.522,9.94521 L 399.852,9.94521 L 399.624,10.0731
 L 399.153,10.2993 L 398.005,10.6997 L 397.172,10.9363 L 396.342,11.1993 L 395.122,11.5093 L 394.643,11.5878
 L 394.343,11.6196 L 392.892,11.8187 L 391.515,11.9299 L 391.129,11.9728 L 390.485,12.0084 L 389.33,12
 L 388.686,11.9597 L 387.511,11.9223 L 385.858,11.7784 L 385.858,15.7454 L 386.139,15.755 L 388.686,15.9037
 L 391.081,15.9266 L 391.515,15.9413 z
M 397.172,3.4641 L 394.343,-0 L 397.172,-3.4641 L 402.828,-3.4641 L 405.657,-0 L 402.828,3.4641
 z
M -6.37592,12.7488 L -5.65685,12.7543 L -4.8576,12.7233 L -2.82841,12.4048 L -0.804581,11.988 L 0,11.84
 L 0.787308,11.6561 L 2.82841,10.8793 L 5.45587,9.73035 L 5.65685,9.64699 L 5.80597,9.57646 L 7.3844,8.49927
 L 9.46292,7.43144 L 11.4412,5.87784 L 12.9195,4.06735 L 13.8331,2.07912 L 14.1421,-0 L 13.8331,-2.07912
 L 12.9195,-4.06735 L 11.4412,-5.87784 L 9.46292,-7.43144 L 7.07106,-8.66025 L 4.37015,-9.51056 L 4.30424,-9.52046
 L 4.8261,-9.73596 L 5.65685,-9.96371 L 7.88718,-10.6425 L 8.48528,-10.7545 L 11.0817,-11.3181 L 11.3137,-11.3471
 L 12.5176,-11.5346 L 14.1421,-11.7784 L 14.1421,-15.7454 L 12.6172,-15.4249 L 11.3137,-15.2469 L 10.9963,-15.1882
 L 10.5682,-15.1404 L 9.3936,-14.8206 L 8.48528,-14.6403 L 7.78979,-14.4693 L 6.8705,-14.3104 L 6.19485,-14.0729
 L 5.65685,-13.9248 L 4.60828,-13.5858 L 3.24434,-13.2475 L 3.01538,-13.145 L 2.82841,-13.0767 L 1.4447,-12.5012
 L 0,-12.0162 L -0.1465,-11.9598 L -0.337708,-11.9011 L -1.71004,-11.1842 L -2.82841,-10.7 L -3.2955,-10.4723
 L -3.90642,-10.2277 L -4.86839,-9.61333 L -5.65685,-9.19154 L -5.96162,-9.00952 L -7.07106,-8.66025 L -9.46292,-7.43144
 L -11.4412,-5.87784 L -12.9195,-4.06735 L -13.8331,-2.07912 L -14.1421,-0 L -13.8331,2.07912 L -12.9195,4.06735
 L -11.4412,5.87784 L -9.46292,7.43144 L -7.07106,8.66025 L -6.24272,8.92102 L -6.44128,8.94395 L -7.68608,8.97195
 L -8.48528,8.94676 L -9.41202,8.9447 L -10.8667,8.8631 L -11.1424,8.82581 L -11.3137,8.79323 L -12.8809,8.54175
 L -14.1421,8.26979 L -14.6121,8.1824 L -15.3439,8.00563 L -16.3448,7.69421 L -16.9706,7.46162 L -18.0704,7.08841
 L -19.7446,6.41696 L -19.7779,6.40169 L -19.799,6.39052 L -21.4899,5.55881 L -22.6274,4.9182 L -23.1748,4.63031
 L -23.9523,4.16428 L -24.8463,3.57846 L -25.4558,3.12743 L -26.4974,2.40186 L -27.8814,1.31563 L -28.1138,1.12027
 L -28.2843,0.959534 L -29.7133,-0.31572 L -31.1127,-1.71596 L -31.264,-1.85939 L -31.4383,-2.04459 L -32.7947,-3.55444
 L -33.9411,-4.98451 L -34.271,-5.37547 L -34.6084,-5.82393 L -35.7171,-7.34229 L -36.7695,-8.96115 L -37.1042,-9.45119
 L -37.4028,-9.94318 L -38.4575,-11.7038 L -39.598,-13.8513 L -39.742,-14.1099 L -39.8525,-14.3344 L -40.9959,-16.6546
 L -41.986,-18.9354 L -42.1739,-19.3611 L -42.4264,-20.0124 L -43.3147,-22.2026 L -43.8448,-23.6993 L -44.3916,-25.192
 L -45.2548,-27.8977 L -45.4014,-28.3377 L -45.4741,-28.5901 L -45.8192,-29.3541 L -45.8993,-29.5458 L -46.2826,-29.9788
 L -46.4949,-30.2332 L -46.8048,-30.4187 L -47.1774,-30.6598 L -47.3542,-30.6964 L -47.8672,-30.8275 L -47.9052,-30.8195
 L -48.0833,-30.7932 L -48.4087,-30.7346 L -48.4803,-30.726 L -48.8142,-30.4434 L -48.936,-30.3525 L -49.0703,-29.9209
 L -49.1514,-29.6965 L -49.0677,-29.0739 L -49.0329,-28.7442 L -48.0833,-25.4059 L -47.58,-23.741 L -46.7982,-21.5018
 L -45.8928,-18.8135 L -45.2548,-17.1896 L -43.9151,-13.9936 L -42.4264,-10.9286 L -41.5911,-9.32079 L -39.598,-6.00572
 L -38.8459,-4.83929 L -36.7695,-2.05719 L -35.6085,-0.611404 L -33.9411,1.1736 L -31.8154,3.27866 L -31.1127,3.87027
 L -29.7971,4.8875 L -28.2843,6.08871 L -27.4157,6.72038 L -25.4558,7.89641 L -22.926,9.26749 L -22.6274,9.43593
 L -22.3818,9.56049 L -19.799,10.5776 L -17.1575,11.483 L -16.9706,11.5512 L -16.7797,11.6112 L -14.1421,12.1656
 L -11.7424,12.5569 L -11.3137,12.6361 L -10.832,12.7025 L -8.48528,12.7783 z
M -2.82841,3.4641 L -5.65685,-0 L -2.82841,-3.4641 L 2.82841,-3.4641 L 5.65685,-0 L 2.82841,3.4641
 z
M -6.79883,95.457 L -3.55664,94.6904 L -0.49707,93.4365 L 2.35059,91.6699 L 4.9541,89.3662 L 6.29012,87.7229
 L 6.6913,87.4314 L 8.09016,85.8778 L 9.13545,84.0674 L 9.78146,82.0791 L 10,80 L 9.78146,77.9209
 L 9.13545,75.9326 L 8.09016,74.1222 L 6.6913,72.5686 L 5,71.3398 L 3.09016,70.4894 L 2.04842,70.268
 L 2.16113,70.1973 L 4.62891,69.2207 L 7.29102,68.6553 L 10.1523,68.4658 L 13.2148,68.6133 L 16.4717,69.084
 L 19.8965,69.873 L 23.4736,70.9492 L 27.1846,72.2852 L 31.0137,73.8486 L 34.9414,75.6113 L 38.9521,77.5439
 L 43.0273,79.6143 L 43.8945,79.8906 L 44.6709,79.7852 L 45.3105,79.3877 L 45.7676,78.7852 L 45.998,78.0635
 L 45.9561,77.3125 L 45.5957,76.6172 L 44.8711,76.0654 L 40.7354,73.959 L 36.6465,71.9775 L 32.6123,70.1572
 L 28.6436,68.5293 L 24.748,67.1299 L 20.9355,65.9912 L 17.2148,65.1465 L 13.5957,64.6299 L 10.0811,64.499
 L 6.6875,64.8047 L 3.44531,65.5713 L 0.384766,66.8252 L -2.46191,68.5918 L -5.06738,70.8955 L -6.04703,72.1005
 L -6.6913,72.5686 L -8.09016,74.1222 L -9.13545,75.9326 L -9.78146,77.9209 L -10,80 L -9.78146,82.0791
 L -9.13545,84.0674 L -8.09016,85.8778 L -6.6913,87.4314 L -5,88.6602 L -3.09016,89.5106 L -1.82065,89.7804
 L -2.27344,90.0645 L -4.74023,91.042 L -7.40332,91.6064 L -10.2646,91.7959 L -13.3281,91.6494 L -16.584,91.1777
 L -20.0088,90.3887 L -23.5859,89.3125 L -27.2969,87.9766 L -31.125,86.4131 L -35.0527,84.6504 L -39.0635,82.7188
 L -43.1387,80.6475 L -44.0059,80.3721 L -44.7812,80.4766 L -45.4219,80.874 L -45.8789,81.4766 L -46.1094,82.1982
 L -46.0664,82.9502 L -45.7061,83.6455 L -44.9824,84.1963 L -40.8467,86.3027 L -36.7578,88.2842 L -32.7236,90.1045
 L -28.7539,91.7324 L -24.8584,93.1318 L -21.0459,94.2715 L -17.3262,95.1162 L -13.707,95.6318 L -10.1924,95.7627
 z
M -2,83.4641 L -4,80 L -2,76.5359 L 2,76.5359 L 4,80 L 2,83.4641
 z
" stroke="black" fill="lightgray" stroke-width="0.5"/>
</svg>
