<?xml version="1.0" encoding="UTF-8" standalone="no"?>
<!-- Created with Inkscape (http://www.inkscape.org/) -->

<svg
   xmlns:dc="http://purl.org/dc/elements/1.1/"
   xmlns:cc="http://creativecommons.org/ns#"
   xmlns:rdf="http://www.w3.org/1999/02/22-rdf-syntax-ns#"
   xmlns:svg="http://www.w3.org/2000/svg"
   xmlns="http://www.w3.org/2000/svg"
   xmlns:sodipodi="http://sodipodi.sourceforge.net/DTD/sodipodi-0.dtd"
   xmlns:inkscape="http://www.inkscape.org/namespaces/inkscape"
   width="210mm"
   height="297mm"
   viewBox="0 0 210 297"
   version="1.1"
   id="svg8"
   inkscape:version="0.92.4 5da689c313, 2019-01-14"
   sodipodi:docname="turbine.svg">
  <defs
     id="defs2" />
  <sodipodi:namedview
     id="base"
     pagecolor="#ffffff"
     bordercolor="#666666"
     borderopacity="1.0"
     inkscape:pageopacity="0.0"
     inkscape:pageshadow="2"
     inkscape:zoom="1.4"
     inkscape:cx="-80.690579"
     inkscape:cy="124.85693"
     inkscape:document-units="mm"
     inkscape:current-layer="layer1"
     showgrid="false"
     inkscape:window-width="1918"
     inkscape:window-height="1057"
     inkscape:window-x="0"
     inkscape:window-y="21"
     inkscape:window-maximized="1"
     showguides="false" />
  <metadata
     id="metadata5">
    <rdf:RDF>
      <cc:Work
         rdf:about="">
        <dc:format>image/svg+xml</dc:format>
        <dc:type
           rdf:resource="http://purl.org/dc/dcmitype/StillImage" />
        <dc:title />
      </cc:Work>
    </rdf:RDF>
  </metadata>
  <g
     inkscape:label="Layer 1"
     inkscape:groupmode="layer"
     id="layer1">
    <path
       style="color:#000000;font-style:normal;font-variant:normal;font-weight:normal;font-stretch:normal;font-size:medium;line-height:normal;font-family:sans-serif;font-variant-ligatures:normal;font-variant-position:normal;font-variant-caps:normal;font-variant-numeric:normal;font-variant-alternates:normal;font-feature-settings:normal;text-indent:0;text-align:start;text-decoration:none;text-decoration-line:none;text-decoration-style:solid;text-decoration-color:#000000;letter-spacing:normal;word-spacing:normal;text-transform:none;writing-mode:lr-tb;direction:ltr;text-orientation:mixed;dominant-baseline:auto;baseline-shift:baseline;text-anchor:start;white-space:normal;shape-padding:0;clip-rule:nonzero;display:inline;overflow:visible;visibility:visible;opacity:1;isolation:auto;mix-blend-mode:normal;color-interpolation:sRGB;color-interpolation-filters:linearRGB;solid-color:#000000;solid-opacity:1;vector-effect:none;fill:#000000;fill-opacity:1;fill-rule:nonzero;stroke:none;stroke-width:4;stroke-linecap:round;stroke-linejoin:miter;stroke-miterlimit:4;stroke-dasharray:none;stroke-dashoffset:0;stroke-opacity:1;color-rendering:auto;image-rendering:auto;shape-rendering:auto;text-rendering:auto;enable-background:accumulate"
       d="m 10.081112,281.4994 -3.3935913,0.3054 -3.2421793,0.76687 -3.06027818,1.25368 -2.84737142,1.7663 -2.6050089,2.30426 -2.3311239,2.867 -2.0272663,3.45509 -0.2351278,0.86039 0.1281575,0.76174 0.4066935,0.62114 0.6025472,0.43822 0.7136516,0.21498 0.74104,-0.0512 0.6836791,-0.35864 0.5436362,-0.70745 1.7280598,-3.0091 1.9073771,-2.4443 2.0903117,-1.91773 2.2768637,-1.42833 2.4675493,-0.97721 2.6623698,-0.56481 2.8608076,-0.19018 3.063379,0.1473 3.256132,0.47077 3.425114,0.78909 3.577042,1.07694 3.711403,1.33532 3.828706,1.56372 3.927924,1.76268 4.010607,1.9322 4.075205,2.07118 0.86713,0.27543 0.776182,-0.10491 0.639754,-0.39737 0.457335,-0.60307 0.230476,-0.72088 -0.04237,-0.7519 -0.360701,-0.69506 -0.723987,-0.55139 -4.135665,-2.10685 -4.089157,-1.98075 -4.033861,-1.82107 -3.969269,-1.6273 -3.895368,-1.39991 -3.812687,-1.13895 -3.720186,-0.84439 -3.618901,-0.51625 z m -2.4561808,15.63057 -0.2971395,0.009 -0.2883543,0.0512 -0.2749187,0.092 -0.2573486,0.13023 -0.2361613,0.16589 -0.2108398,0.19894 -0.1813843,0.22945 -0.1483114,0.25786 -1.7280599,3.00964 -1.9078937,2.4443 -2.09031178,1.91719 -2.27738032,1.42833 -2.4675497,0.97772 -2.6628865,0.56483 -2.8608074,0.18965 -3.063379,-0.14676 -3.256132,-0.47128 -3.425113,-0.78912 -3.577043,-1.07693 -3.710885,-1.3353 -3.82819,-1.56374 -3.927924,-1.76268 -4.010091,-1.93167 -4.075206,-2.07119 -0.867129,-0.27543 -0.776179,0.10438 -0.639755,0.39791 -0.457337,0.60253 -0.230476,0.72141 0.04237,0.7514 0.360704,0.69556 0.723984,0.55086 4.135665,2.10685 4.089157,1.98075 4.033861,1.82108 3.969269,1.62729 3.895369,1.39991 3.812687,1.13948 3.720186,0.84439 3.6189,0.51573 3.515031,0.13126 3.3935913,-0.30541 3.2416627,-0.76687 3.05976152,-1.2542 2.84737128,-1.76631 2.6039754,-2.30423 2.3311239,-2.86649 2.0272666,-3.45562 0.1788004,-0.49453 0.043925,-0.49816 -0.079065,-0.48112 -0.190686,-0.44442 L 8.9752336,297.739 8.596962,297.431 8.1432431,297.22068 Z"
       id="path4518"
       inkscape:connector-curvature="0" />
  </g>
</svg>
