<?xml version="1.0" encoding="UTF-8" standalone="no"?>
<svg
   xmlns:dc="http://purl.org/dc/elements/1.1/"
   xmlns:cc="http://creativecommons.org/ns#"
   xmlns:rdf="http://www.w3.org/1999/02/22-rdf-syntax-ns#"
   xmlns:svg="http://www.w3.org/2000/svg"
   xmlns="http://www.w3.org/2000/svg"
   xmlns:sodipodi="http://sodipodi.sourceforge.net/DTD/sodipodi-0.dtd"
   xmlns:inkscape="http://www.inkscape.org/namespaces/inkscape"
   width="640"
   height="350"
   viewBox="0 0 169.33333 92.604173"
   version="1.1"
   id="svg8"
   sodipodi:docname="stokeFont.svg"
   inkscape:version="1.0.2 (e86c870879, 2021-01-15)">
  <defs
     id="defs2" />
  <sodipodi:namedview
     id="base"
     pagecolor="#ffffff"
     bordercolor="#666666"
     borderopacity="1.0"
     inkscape:pageopacity="0.0"
     inkscape:pageshadow="2"
     inkscape:zoom="1.5686216"
     inkscape:cx="303.87335"
     inkscape:cy="239.62803"
     inkscape:document-units="mm"
     inkscape:current-layer="layer1"
     inkscape:document-rotation="0"
     showgrid="false"
     units="px" />
  <metadata
     id="metadata5">
    <rdf:RDF>
      <cc:Work
         rdf:about="">
        <dc:format>image/svg+xml</dc:format>
        <dc:type
           rdf:resource="http://purl.org/dc/dcmitype/StillImage" />
        <dc:title></dc:title>
      </cc:Work>
    </rdf:RDF>
  </metadata>
  <g
     inkscape:label="Layer 1"
     inkscape:groupmode="layer"
     id="layer1">
    <g
       aria-label="T"
       id="text835"
       style="font-size:70.5556px;line-height:1.25;font-family:'Liberation Serif';-inkscape-font-specification:'Liberation Serif';text-align:center;letter-spacing:0px;word-spacing:0px;text-anchor:middle;stroke-width:0.264583">
      <path
         d="M 30.760437,55.254112 V 53.42821 l 7.338059,-0.930176 V 12.018135 h -1.757 q -8.716098,0 -11.920039,0.689019 l -0.930176,7.200255 H 21.183066 V 9.0553507 H 61.83522 V 19.907409 h -2.342667 l -0.930176,-7.200255 q -1.03353,-0.241156 -4.513078,-0.413411 -3.479549,-0.206706 -7.613667,-0.206706 h -1.688097 v 40.410997 l 7.338058,0.930176 v 1.825902 z"
         style="font-size:70.5556px;stroke-width:0.264583"
         id="path1167" />
    </g>
    <g
       aria-label="Conventional Letter
Liberation Serif"
       id="text863"
       style="font-size:4.23333px;line-height:1.25;font-family:'Liberation Serif';-inkscape-font-specification:'Liberation Serif';text-align:center;letter-spacing:0px;word-spacing:0px;text-anchor:middle;stroke-width:0.264583">
      <path
         d="m 25.409256,66.338392 q -0.67386,0 -1.050065,-0.365869 -0.376204,-0.367936 -0.376204,-1.029394 0,-0.715201 0.361735,-1.08107 0.361735,-0.367936 1.072802,-0.367936 0.432015,0 0.928108,0.10542 l 0.0124,0.605647 h -0.136425 l -0.06201,-0.359667 q -0.144694,-0.08888 -0.33693,-0.136426 -0.190169,-0.04961 -0.388607,-0.04961 -0.531233,0 -0.775145,0.312125 -0.243913,0.312125 -0.243913,0.967382 0,0.60358 0.254248,0.921907 0.256315,0.318326 0.74414,0.318326 0.235644,0 0.444417,-0.05581 0.208772,-0.05788 0.330729,-0.152962 l 0.07648,-0.413411 h 0.134358 l -0.0124,0.651122 q -0.454752,0.130225 -0.977717,0.130225 z"
         style="stroke-width:0.264583"
         id="path1170" />
      <path
         d="m 28.588387,65.315199 q 0,1.023193 -0.909504,1.023193 -0.438216,0 -0.661458,-0.262516 -0.223242,-0.262517 -0.223242,-0.760677 0,-0.491959 0.223242,-0.752408 0.223242,-0.260449 0.677994,-0.260449 0.44235,0 0.667659,0.256315 0.225309,0.254248 0.225309,0.756542 z m -0.37207,0 q 0,-0.446484 -0.130224,-0.646988 -0.130225,-0.200505 -0.40721,-0.200505 -0.270785,0 -0.392741,0.192236 -0.119889,0.192237 -0.119889,0.655257 0,0.469222 0.121956,0.665592 0.124024,0.194303 0.390674,0.194303 0.272851,0 0.405143,-0.202571 0.132291,-0.202572 0.132291,-0.657324 z"
         style="stroke-width:0.264583"
         id="path1172" />
      <path
         d="m 29.419343,64.511114 q 0.159164,-0.09095 0.338998,-0.148828 0.179833,-0.05994 0.299723,-0.05994 0.25218,0 0.380338,0.146761 0.128157,0.146761 0.128157,0.425813 v 1.277441 l 0.235645,0.05168 v 0.09302 h -0.837158 v -0.09302 l 0.258382,-0.05168 v -1.240234 q 0,-0.171565 -0.08475,-0.268717 -0.08268,-0.09922 -0.258382,-0.09922 -0.186035,0 -0.456819,0.05995 v 1.548225 l 0.262516,0.05168 v 0.09302 h -0.839225 v -0.09302 l 0.233577,-0.05168 v -1.653645 l -0.233577,-0.05168 v -0.09302 h 0.553971 z"
         style="stroke-width:0.264583"
         id="path1174" />
      <path
         d="M 32.017632,66.338392 H 31.86467 l -0.79995,-1.83968 -0.198438,-0.05168 v -0.09302 h 0.905371 v 0.09302 l -0.307992,0.05581 0.566374,1.341519 0.541568,-1.345653 -0.307991,-0.05168 v -0.09302 h 0.719335 v 0.09302 l -0.186035,0.04341 z"
         style="stroke-width:0.264583"
         id="path1176" />
      <path
         d="m 33.520382,65.319333 v 0.03721 q 0,0.285254 0.06201,0.444417 0.06408,0.157096 0.194304,0.239779 0.132291,0.08268 0.345198,0.08268 0.111621,0 0.264583,-0.0186 0.152962,-0.0186 0.252181,-0.04134 v 0.115755 q -0.09922,0.06408 -0.270785,0.111621 -0.169498,0.04754 -0.347265,0.04754 -0.452685,0 -0.663525,-0.243913 -0.208772,-0.243913 -0.208772,-0.783414 0,-0.508496 0.212906,-0.758609 0.212907,-0.250114 0.607715,-0.250114 0.746207,0 0.746207,0.847493 v 0.169498 z m 0.448551,-0.851627 q -0.214974,0 -0.330729,0.173633 -0.113688,0.173633 -0.113688,0.51263 h 0.830956 q 0,-0.370003 -0.09508,-0.527099 -0.09508,-0.159164 -0.291455,-0.159164 z"
         style="stroke-width:0.264583"
         id="path1178" />
      <path
         d="m 35.531626,64.511114 q 0.159164,-0.09095 0.338997,-0.148828 0.179834,-0.05994 0.299723,-0.05994 0.252181,0 0.380339,0.146761 0.128157,0.146761 0.128157,0.425813 v 1.277441 l 0.235644,0.05168 v 0.09302 h -0.837157 v -0.09302 l 0.258382,-0.05168 v -1.240234 q 0,-0.171565 -0.08475,-0.268717 -0.08268,-0.09922 -0.258382,-0.09922 -0.186035,0 -0.45682,0.05995 v 1.548225 l 0.262516,0.05168 v 0.09302 h -0.839224 v -0.09302 l 0.233577,-0.05168 v -1.653645 l -0.233577,-0.05168 v -0.09302 h 0.553971 z"
         style="stroke-width:0.264583"
         id="path1180" />
      <path
         d="m 37.668962,66.338392 q -0.198438,0 -0.297656,-0.117823 -0.09715,-0.117822 -0.09715,-0.330728 v -1.36219 h -0.254248 v -0.09302 l 0.258382,-0.08062 0.208773,-0.440283 h 0.130224 v 0.440283 h 0.444417 v 0.173633 h -0.444417 v 1.324983 q 0,0.134358 0.05994,0.202571 0.06201,0.06821 0.16123,0.06821 0.119889,0 0.291455,-0.03307 v 0.134359 q -0.07235,0.04961 -0.208773,0.08061 -0.136425,0.03307 -0.25218,0.03307 z"
         style="stroke-width:0.264583"
         id="path1182" />
      <path
         d="m 38.938134,63.719432 q 0,0.09095 -0.06614,0.157096 -0.06615,0.06615 -0.159164,0.06615 -0.09095,0 -0.157096,-0.06615 -0.06615,-0.06614 -0.06615,-0.157096 0,-0.09302 0.06615,-0.159163 0.06615,-0.06615 0.157096,-0.06615 0.09302,0 0.159164,0.06615 0.06614,0.06615 0.06614,0.159163 z m -0.02067,2.432925 0.332796,0.05168 v 0.09302 h -1.006656 v -0.09302 l 0.330729,-0.05168 v -1.653645 l -0.274919,-0.05168 v -0.09302 h 0.61805 z"
         style="stroke-width:0.264583"
         id="path1184" />
      <path
         d="m 41.28631,65.315199 q 0,1.023193 -0.909505,1.023193 -0.438215,0 -0.661457,-0.262516 -0.223242,-0.262517 -0.223242,-0.760677 0,-0.491959 0.223242,-0.752408 0.223242,-0.260449 0.677994,-0.260449 0.44235,0 0.667659,0.256315 0.225309,0.254248 0.225309,0.756542 z m -0.37207,0 q 0,-0.446484 -0.130225,-0.646988 -0.130224,-0.200505 -0.40721,-0.200505 -0.270784,0 -0.39274,0.192236 -0.119889,0.192237 -0.119889,0.655257 0,0.469222 0.121956,0.665592 0.124023,0.194303 0.390673,0.194303 0.272852,0 0.405143,-0.202571 0.132292,-0.202572 0.132292,-0.657324 z"
         style="stroke-width:0.264583"
         id="path1186" />
      <path
         d="m 42.117266,64.511114 q 0.159163,-0.09095 0.338997,-0.148828 0.179834,-0.05994 0.299723,-0.05994 0.252181,0 0.380339,0.146761 0.128157,0.146761 0.128157,0.425813 v 1.277441 l 0.235644,0.05168 v 0.09302 h -0.837157 v -0.09302 l 0.258382,-0.05168 v -1.240234 q 0,-0.171565 -0.08475,-0.268717 -0.08268,-0.09922 -0.258382,-0.09922 -0.186035,0 -0.45682,0.05995 v 1.548225 l 0.262516,0.05168 v 0.09302 h -0.839224 v -0.09302 l 0.233577,-0.05168 v -1.653645 l -0.233577,-0.05168 v -0.09302 h 0.553971 z"
         style="stroke-width:0.264583"
         id="path1188" />
      <path
         d="m 44.525386,64.31061 q 0.318326,0 0.467154,0.130225 0.150896,0.130224 0.150896,0.398941 v 1.312581 l 0.241845,0.05168 v 0.09302 h -0.5333 l -0.03927,-0.194303 q -0.235645,0.235645 -0.601514,0.235645 -0.49816,0 -0.49816,-0.578776 0,-0.194303 0.07441,-0.320394 0.07648,-0.128157 0.241846,-0.194303 0.165364,-0.06821 0.479556,-0.07441 l 0.291455,-0.0083 V 64.85838 q 0,-0.200505 -0.07441,-0.295589 -0.07235,-0.09508 -0.225309,-0.09508 -0.206705,0 -0.378271,0.09715 l -0.07028,0.241845 h -0.115755 v -0.423746 q 0.334863,-0.07235 0.589111,-0.07235 z m 0.274918,0.996321 -0.270784,0.0083 q -0.276985,0.01033 -0.376204,0.107487 -0.09715,0.09715 -0.09715,0.324528 0,0.363801 0.295589,0.363801 0.14056,0 0.241846,-0.031 0.103353,-0.03307 0.206705,-0.08268 z"
         style="stroke-width:0.264583"
         id="path1190" />
      <path
         d="m 46.201768,66.152357 0.332796,0.05168 v 0.09302 h -1.006656 v -0.09302 l 0.330729,-0.05168 v -2.649966 l -0.330729,-0.04961 v -0.09302 h 0.67386 z"
         style="stroke-width:0.264583"
         id="path1192" />
      <path
         d="m 48.981957,63.634683 -0.427881,0.05374 v 2.430858 h 0.545703 q 0.440283,0 0.646988,-0.04134 l 0.128158,-0.576709 h 0.134358 l -0.03721,0.795816 h -2.172475 v -0.109553 l 0.355533,-0.05581 v -2.44326 l -0.355533,-0.05374 v -0.109554 h 1.182356 z"
         style="stroke-width:0.264583"
         id="path1194" />
      <path
         d="m 50.800967,65.319333 v 0.03721 q 0,0.285254 0.06201,0.444417 0.06408,0.157096 0.194303,0.239779 0.132291,0.08268 0.345198,0.08268 0.111621,0 0.264583,-0.0186 0.152962,-0.0186 0.252181,-0.04134 v 0.115755 q -0.09922,0.06408 -0.270784,0.111621 -0.169499,0.04754 -0.347266,0.04754 -0.452685,0 -0.663524,-0.243913 -0.208773,-0.243913 -0.208773,-0.783414 0,-0.508496 0.212907,-0.758609 0.212906,-0.250114 0.607714,-0.250114 0.746207,0 0.746207,0.847493 v 0.169498 z m 0.448551,-0.851627 q -0.214974,0 -0.330729,0.173633 -0.113688,0.173633 -0.113688,0.51263 h 0.830956 q 0,-0.370003 -0.09508,-0.527099 -0.09509,-0.159164 -0.291455,-0.159164 z"
         style="stroke-width:0.264583"
         id="path1196" />
      <path
         d="m 52.832881,66.338392 q -0.198437,0 -0.297656,-0.117823 -0.09715,-0.117822 -0.09715,-0.330728 v -1.36219 h -0.254248 v -0.09302 l 0.258382,-0.08062 0.208772,-0.440283 h 0.130225 v 0.440283 h 0.444417 v 0.173633 h -0.444417 v 1.324983 q 0,0.134358 0.05994,0.202571 0.06201,0.06821 0.161231,0.06821 0.119889,0 0.291455,-0.03307 v 0.134359 q -0.07235,0.04961 -0.208773,0.08061 -0.136426,0.03307 -0.252181,0.03307 z"
         style="stroke-width:0.264583"
         id="path1198" />
      <path
         d="m 54.009036,66.338392 q -0.198437,0 -0.297656,-0.117823 -0.09715,-0.117822 -0.09715,-0.330728 v -1.36219 h -0.254248 v -0.09302 l 0.258382,-0.08062 0.208772,-0.440283 h 0.130225 v 0.440283 h 0.444417 v 0.173633 H 53.95736 v 1.324983 q 0,0.134358 0.05994,0.202571 0.06201,0.06821 0.161231,0.06821 0.119889,0 0.291455,-0.03307 v 0.134359 q -0.07235,0.04961 -0.208773,0.08061 -0.136426,0.03307 -0.252181,0.03307 z"
         style="stroke-width:0.264583"
         id="path1200" />
      <path
         d="m 55.032229,65.319333 v 0.03721 q 0,0.285254 0.06201,0.444417 0.06408,0.157096 0.194303,0.239779 0.132292,0.08268 0.345198,0.08268 0.111621,0 0.264583,-0.0186 0.152963,-0.0186 0.252181,-0.04134 v 0.115755 q -0.09922,0.06408 -0.270784,0.111621 -0.169499,0.04754 -0.347265,0.04754 -0.452686,0 -0.663525,-0.243913 -0.208773,-0.243913 -0.208773,-0.783414 0,-0.508496 0.212907,-0.758609 0.212907,-0.250114 0.607714,-0.250114 0.746207,0 0.746207,0.847493 v 0.169498 z m 0.448551,-0.851627 q -0.214974,0 -0.330729,0.173633 -0.113688,0.173633 -0.113688,0.51263 h 0.830957 q 0,-0.370003 -0.09508,-0.527099 -0.09508,-0.159164 -0.291455,-0.159164 z"
         style="stroke-width:0.264583"
         id="path1202" />
      <path
         d="m 57.746272,64.302342 v 0.525032 h -0.08888 l -0.119889,-0.227376 q -0.103353,0 -0.24598,0.02894 -0.140559,0.02687 -0.243912,0.07235 v 1.451073 l 0.332796,0.05168 v 0.09302 h -0.921907 v -0.09302 l 0.24598,-0.05168 v -1.653645 l -0.24598,-0.05168 v -0.09302 h 0.566373 l 0.0186,0.241846 q 0.124023,-0.103353 0.334863,-0.198438 0.212907,-0.09508 0.33693,-0.09508 z"
         style="stroke-width:0.264583"
         id="path1204" />
      <path
         d="m 28.641097,68.926345 -0.42788,0.05374 v 2.430857 h 0.545702 q 0.440283,0 0.646989,-0.04134 l 0.128157,-0.576709 h 0.134359 l -0.03721,0.795817 h -2.172476 v -0.109554 l 0.355534,-0.05581 v -2.443259 l -0.355534,-0.05374 v -0.109554 h 1.182356 z"
         style="stroke-width:0.264583"
         id="path1206" />
      <path
         d="m 30.706086,69.011094 q 0,0.09095 -0.06615,0.157097 -0.06615,0.06615 -0.159164,0.06615 -0.09095,0 -0.157096,-0.06615 -0.06615,-0.06615 -0.06615,-0.157097 0,-0.09302 0.06615,-0.159163 0.06615,-0.06615 0.157096,-0.06615 0.09302,0 0.159164,0.06615 0.06615,0.06615 0.06615,0.159163 z m -0.02067,2.432925 0.332796,0.05168 v 0.09302 h -1.006656 v -0.09302 l 0.330729,-0.05168 v -1.653645 l -0.274919,-0.05168 v -0.09302 h 0.61805 z"
         style="stroke-width:0.264583"
         id="path1208" />
      <path
         d="m 32.682191,70.563453 q 0,-0.380338 -0.132292,-0.566373 -0.132291,-0.186035 -0.409277,-0.186035 -0.121956,0 -0.241845,0.02274 -0.11989,0.02067 -0.173633,0.04547 v 1.539956 q 0.173633,0.03307 0.415478,0.03307 0.285254,0 0.413411,-0.223242 0.128158,-0.223242 0.128158,-0.665592 z m -1.300178,-1.769399 -0.283187,-0.04961 v -0.09302 h 0.626318 v 0.69453 q 0,0.111621 -0.0124,0.409277 0.206705,-0.16123 0.520898,-0.16123 0.396874,0 0.607714,0.241846 0.212907,0.239778 0.212907,0.727603 0,0.522965 -0.233578,0.795817 -0.23151,0.270784 -0.671793,0.270784 -0.177766,0 -0.39274,-0.03927 -0.212907,-0.03927 -0.374137,-0.103353 z"
         style="stroke-width:0.264583"
         id="path1210" />
      <path
         d="m 33.752925,70.610995 v 0.03721 q 0,0.285254 0.06201,0.444417 0.06408,0.157097 0.194303,0.239779 0.132292,0.08268 0.345199,0.08268 0.111621,0 0.264583,-0.0186 0.152962,-0.0186 0.25218,-0.04134 v 0.115756 q -0.09922,0.06408 -0.270784,0.111621 -0.169498,0.04754 -0.347265,0.04754 -0.452685,0 -0.663525,-0.243913 -0.208773,-0.243912 -0.208773,-0.783414 0,-0.508495 0.212907,-0.758609 0.212907,-0.250114 0.607714,-0.250114 0.746208,0 0.746208,0.847493 v 0.169498 z m 0.448551,-0.851626 q -0.214973,0 -0.330728,0.173632 -0.113688,0.173633 -0.113688,0.51263 h 0.830956 q 0,-0.370003 -0.09509,-0.527099 -0.09508,-0.159163 -0.291455,-0.159163 z"
         style="stroke-width:0.264583"
         id="path1212" />
      <path
         d="m 36.466969,69.594004 v 0.525032 h -0.08888 L 36.258197,69.89166 q -0.103353,0 -0.24598,0.02894 -0.14056,0.02687 -0.243912,0.07235 v 1.451073 l 0.332795,0.05168 v 0.09302 h -0.921906 v -0.09302 l 0.245979,-0.05168 v -1.653645 l -0.245979,-0.05168 v -0.09302 h 0.566373 l 0.0186,0.241846 q 0.124024,-0.103353 0.334863,-0.198437 0.212907,-0.09508 0.33693,-0.09508 z"
         style="stroke-width:0.264583"
         id="path1214" />
      <path
         d="m 37.465357,69.602272 q 0.318326,0 0.467154,0.130225 0.150895,0.130224 0.150895,0.398942 v 1.31258 l 0.241846,0.05168 v 0.09302 h -0.533301 l -0.03927,-0.194304 q -0.235644,0.235645 -0.601513,0.235645 -0.49816,0 -0.49816,-0.578776 0,-0.194303 0.07441,-0.320393 0.07648,-0.128158 0.241845,-0.194304 0.165365,-0.06821 0.479557,-0.07441 l 0.291455,-0.0083 v -0.303857 q 0,-0.200504 -0.07441,-0.295589 -0.07235,-0.09508 -0.225309,-0.09508 -0.206706,0 -0.378271,0.09715 l -0.07028,0.241846 h -0.115755 v -0.423747 q 0.334863,-0.07235 0.589111,-0.07235 z m 0.274918,0.996321 -0.270784,0.0083 q -0.276986,0.01034 -0.376204,0.107487 -0.09715,0.09715 -0.09715,0.324528 0,0.363802 0.295589,0.363802 0.14056,0 0.241845,-0.03101 0.103353,-0.03307 0.206706,-0.08268 z"
         style="stroke-width:0.264583"
         id="path1216" />
      <path
         d="m 39.073526,71.630054 q -0.198437,0 -0.297656,-0.117822 -0.09715,-0.117823 -0.09715,-0.330729 v -1.36219 h -0.254248 v -0.09302 l 0.258382,-0.08062 0.208772,-0.440282 h 0.130225 v 0.440282 h 0.444417 v 0.173633 H 39.02185 v 1.324983 q 0,0.134358 0.05994,0.202571 0.06201,0.06821 0.16123,0.06821 0.119889,0 0.291455,-0.03307 v 0.134359 q -0.07235,0.04961 -0.208773,0.08061 -0.136426,0.03307 -0.252181,0.03307 z"
         style="stroke-width:0.264583"
         id="path1218" />
      <path
         d="m 40.342699,69.011094 q 0,0.09095 -0.06615,0.157097 -0.06615,0.06615 -0.159163,0.06615 -0.09095,0 -0.157096,-0.06615 -0.06615,-0.06615 -0.06615,-0.157097 0,-0.09302 0.06615,-0.159163 0.06615,-0.06615 0.157096,-0.06615 0.09302,0 0.159163,0.06615 0.06615,0.06615 0.06615,0.159163 z m -0.02067,2.432925 0.332796,0.05168 v 0.09302 h -1.006656 v -0.09302 l 0.330729,-0.05168 v -1.653645 l -0.274918,-0.05168 v -0.09302 h 0.618049 z"
         style="stroke-width:0.264583"
         id="path1220" />
      <path
         d="m 42.690874,70.606861 q 0,1.023193 -0.909505,1.023193 -0.438216,0 -0.661458,-0.262516 -0.223242,-0.262516 -0.223242,-0.760677 0,-0.491959 0.223242,-0.752408 0.223242,-0.260449 0.677995,-0.260449 0.442349,0 0.667658,0.256315 0.22531,0.254248 0.22531,0.756542 z m -0.37207,0 q 0,-0.446484 -0.130225,-0.646988 -0.130224,-0.200504 -0.40721,-0.200504 -0.270784,0 -0.39274,0.192236 -0.11989,0.192236 -0.11989,0.655256 0,0.469222 0.121957,0.665592 0.124023,0.194303 0.390673,0.194303 0.272851,0 0.405143,-0.202571 0.132292,-0.202571 0.132292,-0.657324 z"
         style="stroke-width:0.264583"
         id="path1222" />
      <path
         d="m 43.52183,69.802777 q 0.159163,-0.09095 0.338997,-0.148828 0.179834,-0.05994 0.299723,-0.05994 0.252181,0 0.380338,0.146761 0.128158,0.146761 0.128158,0.425813 v 1.277441 l 0.235644,0.05168 v 0.09302 h -0.837157 v -0.09302 l 0.258381,-0.05168 v -1.240234 q 0,-0.171565 -0.08475,-0.268717 -0.08268,-0.09922 -0.258382,-0.09922 -0.186035,0 -0.456819,0.05994 v 1.548225 l 0.262516,0.05168 v 0.09302 h -0.839225 v -0.09302 l 0.233578,-0.05168 v -1.653645 l -0.233578,-0.05168 v -0.09302 h 0.553971 z"
         style="stroke-width:0.264583"
         id="path1224" />
      <path
         d="m 46.314421,70.842506 h 0.134359 l 0.07235,0.374137 q 0.07648,0.09715 0.262516,0.171565 0.188102,0.07441 0.370003,0.07441 0.289387,0 0.450618,-0.146761 0.163297,-0.148828 0.163297,-0.409277 0,-0.148828 -0.06408,-0.245979 -0.06201,-0.09715 -0.165364,-0.163298 -0.101286,-0.06821 -0.23151,-0.113688 -0.130225,-0.04754 -0.268718,-0.09508 -0.136425,-0.04754 -0.26665,-0.10542 -0.130224,-0.05788 -0.233577,-0.146761 -0.101286,-0.08888 -0.165364,-0.219108 -0.06201,-0.132291 -0.06201,-0.324528 0,-0.330729 0.248047,-0.518831 0.248046,-0.188102 0.688329,-0.188102 0.334863,0 0.727604,0.08888 v 0.576708 h -0.134359 l -0.07235,-0.338997 q -0.21084,-0.152962 -0.520898,-0.152962 -0.276985,0 -0.434082,0.113688 -0.155029,0.111621 -0.155029,0.310058 0,0.134359 0.06201,0.223242 0.06408,0.08888 0.165364,0.152963 0.103353,0.06201 0.233578,0.107486 0.132291,0.04548 0.268717,0.09508 0.138493,0.04754 0.268717,0.109554 0.132292,0.05994 0.233577,0.155029 0.103353,0.09302 0.165365,0.229443 0.06408,0.134359 0.06408,0.332796 0,0.401009 -0.245979,0.622184 -0.24598,0.219108 -0.709,0.219108 -0.223242,0 -0.448551,-0.03927 -0.225309,-0.03927 -0.401009,-0.107487 z"
         style="stroke-width:0.264583"
         id="path1226" />
      <path
         d="m 48.918912,70.610995 v 0.03721 q 0,0.285254 0.06201,0.444417 0.06408,0.157097 0.194303,0.239779 0.132292,0.08268 0.345199,0.08268 0.111621,0 0.264583,-0.0186 0.152962,-0.0186 0.25218,-0.04134 v 0.115756 q -0.09922,0.06408 -0.270784,0.111621 -0.169498,0.04754 -0.347265,0.04754 -0.452685,0 -0.663525,-0.243913 -0.208773,-0.243912 -0.208773,-0.783414 0,-0.508495 0.212907,-0.758609 0.212907,-0.250114 0.607714,-0.250114 0.746208,0 0.746208,0.847493 v 0.169498 z m 0.448551,-0.851626 q -0.214973,0 -0.330728,0.173632 -0.113688,0.173633 -0.113688,0.51263 h 0.830956 q 0,-0.370003 -0.09508,-0.527099 -0.09508,-0.159163 -0.291455,-0.159163 z"
         style="stroke-width:0.264583"
         id="path1228" />
      <path
         d="m 51.632955,69.594004 v 0.525032 h -0.08888 l -0.11989,-0.227376 q -0.103352,0 -0.245979,0.02894 -0.14056,0.02687 -0.243913,0.07235 v 1.451073 l 0.332796,0.05168 v 0.09302 h -0.921907 v -0.09302 l 0.24598,-0.05168 v -1.653645 l -0.24598,-0.05168 v -0.09302 h 0.566374 l 0.0186,0.241846 q 0.124023,-0.103353 0.334863,-0.198437 0.212907,-0.09508 0.33693,-0.09508 z"
         style="stroke-width:0.264583"
         id="path1230" />
      <path
         d="m 52.453577,69.011094 q 0,0.09095 -0.06615,0.157097 -0.06615,0.06615 -0.159163,0.06615 -0.09095,0 -0.157096,-0.06615 -0.06615,-0.06615 -0.06615,-0.157097 0,-0.09302 0.06615,-0.159163 0.06615,-0.06615 0.157096,-0.06615 0.09302,0 0.159163,0.06615 0.06615,0.06615 0.06615,0.159163 z m -0.02067,2.432925 0.332796,0.05168 v 0.09302 h -1.006656 v -0.09302 l 0.330729,-0.05168 v -1.653645 l -0.274918,-0.05168 v -0.09302 h 0.618049 z"
         style="stroke-width:0.264583"
         id="path1232" />
      <path
         d="m 53.311405,69.819313 h -0.334863 v -0.101286 l 0.334863,-0.08062 v -0.136425 q 0,-0.429948 0.169499,-0.661458 0.171566,-0.23151 0.479557,-0.23151 0.159163,0 0.295589,0.03927 v 0.423746 h -0.101286 l -0.09302,-0.254248 q -0.07028,-0.04341 -0.169499,-0.04341 -0.130224,0 -0.183968,0.115755 -0.05374,0.115755 -0.05374,0.434082 v 0.32246 h 0.516764 v 0.173633 h -0.516764 v 1.608169 l 0.419612,0.06821 v 0.09302 h -1.050064 v -0.09302 l 0.28732,-0.06821 z"
         style="stroke-width:0.264583"
         id="path1234" />
    </g>
    <g
       aria-label="Stroke Font Letter
Hershey Serif Bold"
       id="text871"
       style="font-size:4.23333px;line-height:1.25;font-family:'Liberation Serif';-inkscape-font-specification:'Liberation Serif';text-align:center;letter-spacing:0px;word-spacing:0px;text-anchor:middle;stroke-width:0.264583">
      <path
         d="m 107.05594,65.550843 h 0.13436 l 0.0723,0.374137 q 0.0765,0.09715 0.26252,0.171566 0.1881,0.07441 0.37,0.07441 0.28939,0 0.45062,-0.146761 0.1633,-0.148828 0.1633,-0.409277 0,-0.148828 -0.0641,-0.245979 -0.062,-0.09715 -0.16536,-0.163298 -0.10129,-0.06821 -0.23152,-0.113688 -0.13022,-0.04754 -0.26871,-0.09508 -0.13643,-0.04754 -0.26665,-0.10542 -0.13023,-0.05788 -0.23358,-0.146761 -0.10129,-0.08888 -0.16536,-0.219108 -0.062,-0.132292 -0.062,-0.324528 0,-0.330729 0.24805,-0.518831 0.24805,-0.188102 0.68833,-0.188102 0.33486,0 0.7276,0.08888 v 0.576708 h -0.13435 l -0.0724,-0.338997 q -0.21084,-0.152962 -0.5209,-0.152962 -0.27699,0 -0.43408,0.113688 -0.15503,0.111621 -0.15503,0.310058 0,0.134359 0.062,0.223242 0.0641,0.08888 0.16537,0.152962 0.10335,0.06201 0.23357,0.107487 0.13229,0.04547 0.26872,0.09508 0.13849,0.04754 0.26872,0.109554 0.13229,0.05994 0.23357,0.155029 0.10336,0.09302 0.16537,0.229443 0.0641,0.134359 0.0641,0.332796 0,0.401009 -0.24598,0.622184 -0.24598,0.219108 -0.709,0.219108 -0.22324,0 -0.44855,-0.03927 -0.22531,-0.03928 -0.40101,-0.107487 z"
         style="stroke-width:0.264583"
         id="path1237" />
      <path
         d="m 109.81339,66.338392 q -0.19844,0 -0.29766,-0.117823 -0.0971,-0.117822 -0.0971,-0.330728 v -1.36219 h -0.25424 v -0.09302 l 0.25838,-0.08062 0.20877,-0.440283 h 0.13022 v 0.440283 h 0.44442 v 0.173633 h -0.44442 v 1.324983 q 0,0.134358 0.06,0.202571 0.062,0.06821 0.16123,0.06821 0.11989,0 0.29145,-0.03307 v 0.134359 q -0.0723,0.04961 -0.20877,0.08061 -0.13642,0.03307 -0.25218,0.03307 z"
         style="stroke-width:0.264583"
         id="path1239" />
      <path
         d="m 111.67167,64.302342 v 0.525032 h -0.0889 l -0.11989,-0.227376 q -0.10335,0 -0.24598,0.02894 -0.14056,0.02687 -0.24391,0.07235 v 1.451073 l 0.33279,0.05168 v 0.09302 h -0.9219 v -0.09302 l 0.24598,-0.05168 v -1.653645 l -0.24598,-0.05168 v -0.09302 h 0.56637 l 0.0186,0.241846 q 0.12403,-0.103353 0.33487,-0.198438 0.2129,-0.09508 0.33693,-0.09508 z"
         style="stroke-width:0.264583"
         id="path1241" />
      <path
         d="m 113.66431,65.315199 q 0,1.023193 -0.9095,1.023193 -0.43822,0 -0.66146,-0.262516 -0.22324,-0.262517 -0.22324,-0.760677 0,-0.491959 0.22324,-0.752408 0.22324,-0.260449 0.678,-0.260449 0.44235,0 0.66766,0.256315 0.2253,0.254248 0.2253,0.756542 z m -0.37207,0 q 0,-0.446484 -0.13022,-0.646988 -0.13022,-0.200505 -0.40721,-0.200505 -0.27078,0 -0.39274,0.192236 -0.11989,0.192237 -0.11989,0.655257 0,0.469222 0.12196,0.665592 0.12402,0.194303 0.39067,0.194303 0.27285,0 0.40514,-0.202571 0.13229,-0.202572 0.13229,-0.657324 z"
         style="stroke-width:0.264583"
         id="path1243" />
      <path
         d="m 114.53661,65.360674 0.79582,-0.857828 -0.20257,-0.05581 v -0.09302 h 0.68626 v 0.09302 l -0.24185,0.04754 -0.55397,0.566373 0.71107,1.09554 0.21084,0.04754 v 0.09302 h -0.79582 v -0.09302 l 0.17777,-0.05168 -0.5333,-0.837158 -0.25425,0.279053 v 0.558105 l 0.20671,0.05168 v 0.09302 h -0.79582 v -0.09302 l 0.24598,-0.05168 v -2.649966 l -0.28732,-0.04961 v -0.09302 h 0.63045 z"
         style="stroke-width:0.264583"
         id="path1245" />
      <path
         d="m 116.47964,65.319333 v 0.03721 q 0,0.285254 0.062,0.444417 0.0641,0.157096 0.1943,0.239779 0.13229,0.08268 0.3452,0.08268 0.11162,0 0.26458,-0.0186 0.15296,-0.0186 0.25218,-0.04134 v 0.115755 q -0.0992,0.06408 -0.27078,0.111621 -0.1695,0.04754 -0.34727,0.04754 -0.45268,0 -0.66352,-0.243913 -0.20878,-0.243913 -0.20878,-0.783414 0,-0.508496 0.21291,-0.758609 0.21291,-0.250114 0.60772,-0.250114 0.7462,0 0.7462,0.847493 v 0.169498 z m 0.44856,-0.851627 q -0.21498,0 -0.33073,0.173633 -0.11369,0.173633 -0.11369,0.51263 h 0.83096 q 0,-0.370003 -0.0951,-0.527099 -0.0951,-0.159164 -0.29145,-0.159164 z"
         style="stroke-width:0.264583"
         id="path1247" />
      <path
         d="m 119.75593,65.052683 v 1.079003 l 0.46095,0.05581 v 0.109553 h -1.18856 v -0.109553 l 0.32867,-0.05581 v -2.44326 l -0.35554,-0.05374 v -0.109554 h 2.07946 v 0.663525 h -0.13643 l -0.0661,-0.448551 q -0.23151,-0.02894 -0.66973,-0.02894 h -0.45268 v 1.155484 h 0.81648 l 0.0641,-0.330729 h 0.12609 v 0.851627 h -0.12609 l -0.0641,-0.334863 z"
         style="stroke-width:0.264583"
         id="path1249" />
      <path
         d="m 123.18931,65.315199 q 0,1.023193 -0.90951,1.023193 -0.43821,0 -0.66146,-0.262516 -0.22324,-0.262517 -0.22324,-0.760677 0,-0.491959 0.22324,-0.752408 0.22325,-0.260449 0.678,-0.260449 0.44235,0 0.66766,0.256315 0.22531,0.254248 0.22531,0.756542 z m -0.37207,0 q 0,-0.446484 -0.13023,-0.646988 -0.13022,-0.200505 -0.40721,-0.200505 -0.27078,0 -0.39274,0.192236 -0.11989,0.192237 -0.11989,0.655257 0,0.469222 0.12196,0.665592 0.12402,0.194303 0.39067,0.194303 0.27285,0 0.40515,-0.202571 0.13229,-0.202572 0.13229,-0.657324 z"
         style="stroke-width:0.264583"
         id="path1251" />
      <path
         d="m 124.02026,64.511114 q 0.15917,-0.09095 0.339,-0.148828 0.17984,-0.05994 0.29972,-0.05994 0.25219,0 0.38034,0.146761 0.12816,0.146761 0.12816,0.425813 v 1.277441 l 0.23564,0.05168 v 0.09302 h -0.83715 v -0.09302 l 0.25838,-0.05168 v -1.240234 q 0,-0.171565 -0.0847,-0.268717 -0.0827,-0.09922 -0.25838,-0.09922 -0.18604,0 -0.45682,0.05995 v 1.548225 l 0.26251,0.05168 v 0.09302 h -0.83922 v -0.09302 l 0.23358,-0.05168 v -1.653645 l -0.23358,-0.05168 v -0.09302 h 0.55397 z"
         style="stroke-width:0.264583"
         id="path1253" />
      <path
         d="m 126.1576,66.338392 q -0.19844,0 -0.29766,-0.117823 -0.0971,-0.117822 -0.0971,-0.330728 v -1.36219 h -0.25425 v -0.09302 l 0.25839,-0.08062 0.20877,-0.440283 h 0.13022 v 0.440283 h 0.44442 v 0.173633 h -0.44442 v 1.324983 q 0,0.134358 0.06,0.202571 0.062,0.06821 0.16123,0.06821 0.11989,0 0.29145,-0.03307 v 0.134359 q -0.0723,0.04961 -0.20877,0.08061 -0.13643,0.03307 -0.25218,0.03307 z"
         style="stroke-width:0.264583"
         id="path1255" />
      <path
         d="m 129.006,63.634683 -0.42788,0.05374 v 2.430858 h 0.5457 q 0.44029,0 0.64699,-0.04134 l 0.12816,-0.576709 h 0.13436 l -0.0372,0.795816 h -2.17248 v -0.109553 l 0.35554,-0.05581 v -2.44326 l -0.35554,-0.05374 v -0.109554 h 1.18236 z"
         style="stroke-width:0.264583"
         id="path1257" />
      <path
         d="m 130.82501,65.319333 v 0.03721 q 0,0.285254 0.062,0.444417 0.0641,0.157096 0.19431,0.239779 0.13229,0.08268 0.34519,0.08268 0.11163,0 0.26459,-0.0186 0.15296,-0.0186 0.25218,-0.04134 v 0.115755 q -0.0992,0.06408 -0.27079,0.111621 -0.16949,0.04754 -0.34726,0.04754 -0.45269,0 -0.66353,-0.243913 -0.20877,-0.243913 -0.20877,-0.783414 0,-0.508496 0.21291,-0.758609 0.2129,-0.250114 0.60771,-0.250114 0.74621,0 0.74621,0.847493 v 0.169498 z m 0.44855,-0.851627 q -0.21497,0 -0.33073,0.173633 -0.11368,0.173633 -0.11368,0.51263 h 0.83095 q 0,-0.370003 -0.0951,-0.527099 -0.0951,-0.159164 -0.29146,-0.159164 z"
         style="stroke-width:0.264583"
         id="path1259" />
      <path
         d="m 132.85693,66.338392 q -0.19844,0 -0.29766,-0.117823 -0.0971,-0.117822 -0.0971,-0.330728 v -1.36219 h -0.25425 v -0.09302 l 0.25838,-0.08062 0.20877,-0.440283 h 0.13023 v 0.440283 h 0.44442 v 0.173633 h -0.44442 v 1.324983 q 0,0.134358 0.0599,0.202571 0.062,0.06821 0.16123,0.06821 0.11989,0 0.29146,-0.03307 v 0.134359 q -0.0724,0.04961 -0.20877,0.08061 -0.13643,0.03307 -0.25218,0.03307 z"
         style="stroke-width:0.264583"
         id="path1261" />
      <path
         d="m 134.03308,66.338392 q -0.19844,0 -0.29766,-0.117823 -0.0971,-0.117822 -0.0971,-0.330728 v -1.36219 h -0.25425 v -0.09302 l 0.25839,-0.08062 0.20877,-0.440283 h 0.13022 v 0.440283 h 0.44442 v 0.173633 h -0.44442 v 1.324983 q 0,0.134358 0.0599,0.202571 0.062,0.06821 0.16123,0.06821 0.11989,0 0.29145,-0.03307 v 0.134359 q -0.0723,0.04961 -0.20877,0.08061 -0.13642,0.03307 -0.25218,0.03307 z"
         style="stroke-width:0.264583"
         id="path1263" />
      <path
         d="m 135.05627,65.319333 v 0.03721 q 0,0.285254 0.062,0.444417 0.0641,0.157096 0.19431,0.239779 0.13229,0.08268 0.3452,0.08268 0.11162,0 0.26458,-0.0186 0.15296,-0.0186 0.25218,-0.04134 v 0.115755 q -0.0992,0.06408 -0.27078,0.111621 -0.1695,0.04754 -0.34727,0.04754 -0.45268,0 -0.66352,-0.243913 -0.20878,-0.243913 -0.20878,-0.783414 0,-0.508496 0.21291,-0.758609 0.21291,-0.250114 0.60771,-0.250114 0.74621,0 0.74621,0.847493 v 0.169498 z m 0.44855,-0.851627 q -0.21497,0 -0.33072,0.173633 -0.11369,0.173633 -0.11369,0.51263 h 0.83095 q 0,-0.370003 -0.0951,-0.527099 -0.0951,-0.159164 -0.29146,-0.159164 z"
         style="stroke-width:0.264583"
         id="path1265" />
      <path
         d="m 137.77032,64.302342 v 0.525032 h -0.0889 l -0.11989,-0.227376 q -0.10335,0 -0.24598,0.02894 -0.14056,0.02687 -0.24391,0.07235 v 1.451073 l 0.3328,0.05168 v 0.09302 h -0.92191 v -0.09302 l 0.24598,-0.05168 v -1.653645 l -0.24598,-0.05168 v -0.09302 h 0.56637 l 0.0186,0.241846 q 0.12402,-0.103353 0.33486,-0.198438 0.21291,-0.09508 0.33693,-0.09508 z"
         style="stroke-width:0.264583"
         id="path1267" />
      <path
         d="m 106.06789,71.588713 v -0.109554 l 0.35553,-0.05581 v -2.443259 l -0.35553,-0.05374 v -0.109554 h 1.11 v 0.109554 l -0.35553,0.05374 v 1.089338 h 1.30431 v -1.089338 l -0.35553,-0.05374 v -0.109554 h 1.10794 v 0.109554 l -0.35553,0.05374 v 2.443259 l 0.35553,0.05581 v 0.109554 h -1.10794 v -0.109554 l 0.35553,-0.05581 v -1.167886 h -1.30431 v 1.167886 l 0.35553,0.05581 v 0.109554 z"
         style="stroke-width:0.264583"
         id="path1269" />
      <path
         d="m 109.54054,70.610995 v 0.03721 q 0,0.285254 0.062,0.444417 0.0641,0.157097 0.1943,0.239779 0.1323,0.08268 0.3452,0.08268 0.11162,0 0.26459,-0.0186 0.15296,-0.0186 0.25218,-0.04134 v 0.115756 q -0.0992,0.06408 -0.27079,0.111621 -0.1695,0.04754 -0.34726,0.04754 -0.45269,0 -0.66353,-0.243913 -0.20877,-0.243912 -0.20877,-0.783414 0,-0.508495 0.21291,-0.758609 0.2129,-0.250114 0.60771,-0.250114 0.74621,0 0.74621,0.847493 v 0.169498 z m 0.44855,-0.851626 q -0.21497,0 -0.33073,0.173632 -0.11369,0.173633 -0.11369,0.51263 h 0.83096 q 0,-0.370003 -0.0951,-0.527099 -0.0951,-0.159163 -0.29145,-0.159163 z"
         style="stroke-width:0.264583"
         id="path1271" />
      <path
         d="m 112.25458,69.594004 v 0.525032 h -0.0889 l -0.11989,-0.227376 q -0.10335,0 -0.24598,0.02894 -0.14056,0.02687 -0.24391,0.07235 v 1.451073 l 0.33279,0.05168 v 0.09302 h -0.9219 v -0.09302 l 0.24598,-0.05168 v -1.653645 l -0.24598,-0.05168 v -0.09302 h 0.56637 l 0.0186,0.241846 q 0.12403,-0.103353 0.33487,-0.198437 0.2129,-0.09508 0.33693,-0.09508 z"
         style="stroke-width:0.264583"
         id="path1273" />
      <path
         d="m 113.78627,71.04301 q 0,0.289388 -0.18397,0.438216 -0.1819,0.148828 -0.5395,0.148828 -0.14469,0 -0.32039,-0.03101 -0.17363,-0.02894 -0.27285,-0.06615 v -0.47749 h 0.093 l 0.10129,0.270785 q 0.15503,0.140559 0.40308,0.140559 0.401,0 0.401,-0.343131 0,-0.252181 -0.31625,-0.359667 l -0.18397,-0.05994 q -0.20878,-0.06821 -0.30386,-0.138493 -0.0951,-0.07028 -0.14676,-0.171565 -0.0517,-0.103353 -0.0517,-0.248047 0,-0.256315 0.17364,-0.403076 0.1757,-0.148828 0.47335,-0.148828 0.21291,0 0.5333,0.06408 v 0.423746 h -0.0971 l -0.0868,-0.225309 q -0.10955,-0.09715 -0.34519,-0.09715 -0.16744,0 -0.25632,0.08268 -0.0868,0.08268 -0.0868,0.223242 0,0.117822 0.0786,0.198437 0.0806,0.08062 0.24185,0.134359 0.30385,0.103352 0.39687,0.150895 0.093,0.04754 0.1571,0.117822 0.0661,0.06821 0.10128,0.157096 0.0372,0.08888 0.0372,0.219108 z"
         style="stroke-width:0.264583"
         id="path1275" />
      <path
         d="m 114.61309,69.492718 q 0,0.214974 -0.0145,0.310059 0.14883,-0.08475 0.33693,-0.146761 0.19017,-0.06201 0.3204,-0.06201 0.25218,0 0.38034,0.146761 0.12815,0.146761 0.12815,0.425813 v 1.277441 l 0.23565,0.05168 v 0.09302 h -0.83716 v -0.09302 l 0.25838,-0.05168 v -1.252636 q 0,-0.355533 -0.34313,-0.355533 -0.1943,0 -0.46509,0.05994 v 1.548225 l 0.26252,0.05168 v 0.09302 h -0.85163 v -0.09302 l 0.24598,-0.05168 v -2.649965 l -0.28939,-0.04961 v -0.09302 h 0.63252 z"
         style="stroke-width:0.264583"
         id="path1277" />
      <path
         d="m 116.59333,70.610995 v 0.03721 q 0,0.285254 0.062,0.444417 0.0641,0.157097 0.19431,0.239779 0.13229,0.08268 0.3452,0.08268 0.11162,0 0.26458,-0.0186 0.15296,-0.0186 0.25218,-0.04134 v 0.115756 q -0.0992,0.06408 -0.27079,0.111621 -0.16949,0.04754 -0.34726,0.04754 -0.45269,0 -0.66353,-0.243913 -0.20877,-0.243912 -0.20877,-0.783414 0,-0.508495 0.21291,-0.758609 0.21291,-0.250114 0.60771,-0.250114 0.74621,0 0.74621,0.847493 v 0.169498 z m 0.44855,-0.851626 q -0.21497,0 -0.33073,0.173632 -0.11368,0.173633 -0.11368,0.51263 h 0.83095 q 0,-0.370003 -0.0951,-0.527099 -0.0951,-0.159163 -0.29146,-0.159163 z"
         style="stroke-width:0.264583"
         id="path1279" />
      <path
         d="m 118.3462,72.502351 q -0.16123,0 -0.31833,-0.03721 v -0.419612 h 0.0972 l 0.0682,0.198437 q 0.0641,0.04754 0.17777,0.04754 0.10749,0 0.19844,-0.06201 0.091,-0.06201 0.16536,-0.183968 0.0765,-0.121956 0.19017,-0.436149 l -0.74,-1.819009 -0.19844,-0.05168 v -0.09302 h 0.90123 v 0.09302 l -0.30592,0.05581 0.52503,1.358056 0.5085,-1.36219 -0.30386,-0.05168 v -0.09302 h 0.72347 v 0.09302 l -0.20257,0.04341 -0.75861,1.928563 q -0.13436,0.341064 -0.23358,0.489892 -0.0992,0.148828 -0.21911,0.225309 -0.11989,0.07648 -0.27491,0.07648 z"
         style="stroke-width:0.264583"
         id="path1281" />
      <path
         d="m 121.39717,70.842506 h 0.13436 l 0.0724,0.374137 q 0.0765,0.09715 0.26251,0.171565 0.1881,0.07441 0.37,0.07441 0.28939,0 0.45062,-0.146761 0.1633,-0.148828 0.1633,-0.409277 0,-0.148828 -0.0641,-0.245979 -0.062,-0.09715 -0.16536,-0.163298 -0.10129,-0.06821 -0.23151,-0.113688 -0.13023,-0.04754 -0.26872,-0.09508 -0.13643,-0.04754 -0.26665,-0.10542 -0.13023,-0.05788 -0.23358,-0.146761 -0.10128,-0.08888 -0.16536,-0.219108 -0.062,-0.132291 -0.062,-0.324528 0,-0.330729 0.24804,-0.518831 0.24805,-0.188102 0.68833,-0.188102 0.33486,0 0.72761,0.08888 v 0.576708 h -0.13436 l -0.0724,-0.338997 q -0.21084,-0.152962 -0.5209,-0.152962 -0.27698,0 -0.43408,0.113688 -0.15503,0.111621 -0.15503,0.310058 0,0.134359 0.062,0.223242 0.0641,0.08888 0.16537,0.152963 0.10335,0.06201 0.23357,0.107486 0.1323,0.04548 0.26872,0.09508 0.13849,0.04754 0.26872,0.109554 0.13229,0.05994 0.23358,0.155029 0.10335,0.09302 0.16536,0.229443 0.0641,0.134359 0.0641,0.332796 0,0.401009 -0.24598,0.622184 -0.24598,0.219108 -0.709,0.219108 -0.22324,0 -0.44855,-0.03927 -0.22531,-0.03927 -0.40101,-0.107487 z"
         style="stroke-width:0.264583"
         id="path1283" />
      <path
         d="m 124.00166,70.610995 v 0.03721 q 0,0.285254 0.062,0.444417 0.0641,0.157097 0.1943,0.239779 0.1323,0.08268 0.3452,0.08268 0.11162,0 0.26459,-0.0186 0.15296,-0.0186 0.25218,-0.04134 v 0.115756 q -0.0992,0.06408 -0.27079,0.111621 -0.1695,0.04754 -0.34726,0.04754 -0.45269,0 -0.66353,-0.243913 -0.20877,-0.243912 -0.20877,-0.783414 0,-0.508495 0.21291,-0.758609 0.2129,-0.250114 0.60771,-0.250114 0.74621,0 0.74621,0.847493 v 0.169498 z m 0.44855,-0.851626 q -0.21497,0 -0.33073,0.173632 -0.11369,0.173633 -0.11369,0.51263 h 0.83096 q 0,-0.370003 -0.0951,-0.527099 -0.0951,-0.159163 -0.29146,-0.159163 z"
         style="stroke-width:0.264583"
         id="path1285" />
      <path
         d="m 126.7157,69.594004 v 0.525032 h -0.0889 l -0.11989,-0.227376 q -0.10335,0 -0.24598,0.02894 -0.14056,0.02687 -0.24391,0.07235 v 1.451073 l 0.33279,0.05168 v 0.09302 h -0.9219 v -0.09302 l 0.24598,-0.05168 v -1.653645 l -0.24598,-0.05168 v -0.09302 h 0.56637 l 0.0186,0.241846 q 0.12403,-0.103353 0.33487,-0.198437 0.2129,-0.09508 0.33693,-0.09508 z"
         style="stroke-width:0.264583"
         id="path1287" />
      <path
         d="m 127.53632,69.011094 q 0,0.09095 -0.0661,0.157097 -0.0661,0.06615 -0.15917,0.06615 -0.0909,0 -0.15709,-0.06615 -0.0661,-0.06615 -0.0661,-0.157097 0,-0.09302 0.0661,-0.159163 0.0661,-0.06615 0.15709,-0.06615 0.093,0 0.15917,0.06615 0.0661,0.06615 0.0661,0.159163 z m -0.0207,2.432925 0.3328,0.05168 v 0.09302 h -1.00666 v -0.09302 l 0.33073,-0.05168 v -1.653645 l -0.27492,-0.05168 v -0.09302 h 0.61805 z"
         style="stroke-width:0.264583"
         id="path1289" />
      <path
         d="m 128.39415,69.819313 h -0.33486 v -0.101286 l 0.33486,-0.08062 v -0.136425 q 0,-0.429948 0.1695,-0.661458 0.17157,-0.23151 0.47956,-0.23151 0.15916,0 0.29559,0.03927 v 0.423746 h -0.10129 l -0.093,-0.254248 q -0.0703,-0.04341 -0.1695,-0.04341 -0.13022,0 -0.18396,0.115755 -0.0538,0.115755 -0.0538,0.434082 v 0.32246 h 0.51677 v 0.173633 h -0.51677 v 1.608169 l 0.41962,0.06821 v 0.09302 h -1.05007 v -0.09302 l 0.28732,-0.06821 z"
         style="stroke-width:0.264583"
         id="path1291" />
      <path
         d="m 132.37737,69.488584 q 0,-0.254248 -0.15916,-0.370003 -0.15917,-0.115755 -0.51677,-0.115755 h -0.42788 v 1.047997 h 0.45269 q 0.33486,0 0.49196,-0.132291 0.15916,-0.132292 0.15916,-0.429948 z m 0.20877,1.310513 q 0,-0.291454 -0.1943,-0.425813 -0.1943,-0.136426 -0.62219,-0.136426 h -0.49609 v 1.16582 q 0.28526,0.0124 0.60772,0.0124 0.35346,0 0.52916,-0.148828 0.1757,-0.150895 0.1757,-0.467155 z m -2.06705,0.789616 v -0.109554 l 0.35553,-0.05581 v -2.443259 l -0.35553,-0.05374 v -0.109554 h 1.2671 q 0.5271,0 0.77101,0.157096 0.24392,0.15503 0.24392,0.494027 0,0.243912 -0.1509,0.415478 -0.14883,0.171565 -0.41961,0.229443 0.37414,0.03927 0.57877,0.219108 0.20464,0.177767 0.20464,0.458886 0,0.398942 -0.27698,0.605648 -0.27492,0.204638 -0.80409,0.204638 l -0.8847,-0.0124 z"
         style="stroke-width:0.264583"
         id="path1293" />
      <path
         d="m 135.17616,70.606861 q 0,1.023193 -0.9095,1.023193 -0.43822,0 -0.66146,-0.262516 -0.22324,-0.262516 -0.22324,-0.760677 0,-0.491959 0.22324,-0.752408 0.22324,-0.260449 0.67799,-0.260449 0.44235,0 0.66766,0.256315 0.22531,0.254248 0.22531,0.756542 z m -0.37207,0 q 0,-0.446484 -0.13022,-0.646988 -0.13023,-0.200504 -0.40721,-0.200504 -0.27079,0 -0.39274,0.192236 -0.11989,0.192236 -0.11989,0.655256 0,0.469222 0.12195,0.665592 0.12403,0.194303 0.39068,0.194303 0.27285,0 0.40514,-0.202571 0.13229,-0.202571 0.13229,-0.657324 z"
         style="stroke-width:0.264583"
         id="path1295" />
      <path
         d="m 136.096,71.444019 0.3328,0.05168 v 0.09302 h -1.00666 v -0.09302 l 0.33073,-0.05168 v -2.649965 l -0.33073,-0.04961 v -0.09302 h 0.67386 z"
         style="stroke-width:0.264583"
         id="path1297" />
      <path
         d="m 138.00803,71.444019 q -0.23358,0.186035 -0.5457,0.186035 -0.79582,0 -0.79582,-0.994254 0,-0.510563 0.22531,-0.775146 0.22531,-0.26665 0.66352,-0.26665 0.22324,0 0.45269,0.04754 -0.0124,-0.06821 -0.0124,-0.343131 v -0.504361 l -0.3266,-0.04961 v -0.09302 h 0.66973 v 2.792592 l 0.23978,0.05168 v 0.09302 h -0.54571 z M 137.03858,70.6358 q 0,0.392741 0.13229,0.587044 0.13229,0.192236 0.40514,0.192236 0.23358,0 0.41962,-0.08062 v -1.535822 q -0.18397,-0.03514 -0.41962,-0.03514 -0.53743,0 -0.53743,0.872297 z"
         style="stroke-width:0.264583"
         id="path1299" />
    </g>
    <g
       inkscape:label="Hershey Text"
       style="fill:none;stroke:#000000;stroke-width:0.4;stroke-linecap:round;stroke-linejoin:round;stroke-miterlimit:4;stroke-dasharray:none"
       id="g892">
      <g
         transform="translate(99.1366,55.2541)"
         id="g890"
         style="stroke-width:0.4;stroke-miterlimit:4;stroke-dasharray:none">
        <path
           d="M 94.5,662 V 472 M 315,662 V 0 m 31,630 V 31.5 M 378,662 V 0 M 598,662 V 472 M 94.5,662 H 598 M 220,0 H 472 M 126,662 94.5,472 M 158,662 94.5,567 M 189,662 94.5,598 M 252,662 94.5,630 M 441,662 598,630 m -94,32 94,-64 m -62,64 62,-95 m -31,95 31,-190 M 315,31.5 252,0 M 315,63 284,0 M 378,63 410,0 M 378,31.5 441,0"
           style="stroke-width:5.66929;stroke-miterlimit:4;stroke-dasharray:none"
           transform="scale(0.0705556,-0.0705556)"
           id="path888" />
      </g>
    </g>
    <g
       aria-label="T"
       id="text901"
       style="font-size:6.35px;line-height:1.25;font-family:'Liberation Serif';-inkscape-font-specification:'Liberation Serif';text-align:center;letter-spacing:0px;word-spacing:0px;text-anchor:middle;stroke-width:0.264583">
      <path
         d="m 75.915434,80.977921 v -0.164332 l 0.660425,-0.08371 v -3.643189 h -0.15813 q -0.784448,0 -1.072803,0.06201 l -0.08371,0.648022 h -0.20774 v -0.976684 h 3.658692 v 0.976684 h -0.21084 l -0.08372,-0.648022 q -0.09302,-0.0217 -0.406177,-0.03721 -0.313159,-0.0186 -0.685229,-0.0186 h -0.151929 v 3.636988 l 0.660425,0.08371 v 0.164332 z"
         style="font-size:6.35px;stroke-width:0.264583"
         id="path1302" />
    </g>
    <g
       aria-label="200pt"
       id="text909"
       style="font-size:4.23333px;line-height:1.25;font-family:'Liberation Serif';-inkscape-font-specification:'Liberation Serif';text-align:center;letter-spacing:0px;word-spacing:0px;text-anchor:middle;stroke-width:0.264583">
      <path
         d="M 77.742696,7.1082921 H 76.045643 V 6.8044349 l 0.384472,-0.3493324 q 0.370003,-0.3245277 0.543636,-0.5250321 0.173633,-0.2005044 0.248047,-0.4134111 0.07648,-0.2129067 0.07648,-0.4878251 0,-0.2687172 -0.121957,-0.409277 -0.121956,-0.1405598 -0.398941,-0.1405598 -0.109554,0 -0.225309,0.031006 -0.115756,0.028939 -0.204639,0.078548 l -0.07235,0.3389971 H 76.13866 V 4.3942482 q 0.376205,-0.088883 0.638721,-0.088883 0.454752,0 0.682128,0.1901691 0.229443,0.188102 0.229443,0.5333003 0,0.2315102 -0.09095,0.4382158 -0.08888,0.2046385 -0.274919,0.409277 -0.186035,0.2025714 -0.615982,0.5684403 -0.183968,0.1570962 -0.390674,0.3451982 h 1.426269 z"
         style="stroke-width:0.264583"
         id="path1305" />
      <path
         d="m 79.931707,5.7109625 q 0,1.4386707 -0.909504,1.4386707 -0.438216,0 -0.661458,-0.3679359 -0.223242,-0.3679359 -0.223242,-1.0707348 0,-0.6883295 0.223242,-1.0521312 0.223242,-0.3658689 0.677994,-0.3658689 0.438216,0 0.665592,0.3617348 0.227376,0.3596676 0.227376,1.0562653 z m -0.380338,0 q 0,-0.6655918 -0.12609,-0.9591137 -0.126091,-0.2935219 -0.403076,-0.2935219 -0.268717,0 -0.386539,0.2769854 -0.117823,0.2769855 -0.117823,0.9756502 0,0.7027989 0.11989,0.9901197 0.119889,0.2852536 0.384472,0.2852536 0.272851,0 0.401009,-0.299723 0.128157,-0.3017901 0.128157,-0.9756503 z"
         style="stroke-width:0.264583"
         id="path1307" />
      <path
         d="m 82.048372,5.7109625 q 0,1.4386707 -0.909504,1.4386707 -0.438216,0 -0.661458,-0.3679359 -0.223242,-0.3679359 -0.223242,-1.0707348 0,-0.6883295 0.223242,-1.0521312 0.223242,-0.3658689 0.677994,-0.3658689 0.438216,0 0.665592,0.3617348 0.227376,0.3596676 0.227376,1.0562653 z m -0.380338,0 q 0,-0.6655918 -0.12609,-0.9591137 -0.126091,-0.2935219 -0.403076,-0.2935219 -0.268717,0 -0.38654,0.2769854 -0.117822,0.2769855 -0.117822,0.9756502 0,0.7027989 0.119889,0.9901197 0.11989,0.2852536 0.384473,0.2852536 0.272851,0 0.401009,-0.299723 0.128157,-0.3017901 0.128157,-0.9756503 z"
         style="stroke-width:0.264583"
         id="path1309" />
      <path
         d="M 82.523795,5.3099538 82.30262,5.2582774 v -0.093018 h 0.545703 l 0.0041,0.113688 q 0.08682,-0.074414 0.23151,-0.1198892 0.146761,-0.045475 0.297656,-0.045475 0.37207,0 0.574642,0.2583819 0.204638,0.258382 0.204638,0.742073 0,0.4940263 -0.223242,0.7648105 -0.221175,0.2707843 -0.640787,0.2707843 -0.233577,0 -0.444417,-0.045475 0.0124,0.148828 0.0124,0.2335773 v 0.5250321 l 0.338997,0.049609 v 0.097152 h -0.926041 v -0.097152 l 0.24598,-0.049609 z m 1.265038,0.8040846 q 0,-0.3968747 -0.130224,-0.5891109 -0.128158,-0.1943032 -0.390674,-0.1943032 -0.241845,0 -0.403076,0.068213 v 1.5523587 q 0.183968,0.03514 0.403076,0.03514 0.520898,0 0.520898,-0.8722974 z"
         style="stroke-width:0.264583"
         id="path1311" />
      <path
         d="m 85.016664,7.1496332 q -0.198437,0 -0.297656,-0.1178222 -0.09715,-0.1178221 -0.09715,-0.3307288 V 5.3388925 H 84.367609 V 5.245875 l 0.258382,-0.080615 0.208772,-0.4402829 h 0.130225 v 0.4402829 h 0.444417 v 0.1736326 h -0.444417 v 1.3249827 q 0,0.1343586 0.05994,0.2025714 0.06201,0.068213 0.161231,0.068213 0.119889,0 0.291454,-0.033073 v 0.1343587 q -0.07235,0.049609 -0.208772,0.080615 -0.136426,0.033073 -0.252181,0.033073 z"
         style="stroke-width:0.264583"
         id="path1313" />
    </g>
    <g
       inkscape:label="Hershey Text"
       style="fill:none;stroke:#000000;stroke-linecap:round;stroke-linejoin:round"
       id="g937"
       transform="translate(-33.337502)">
      <g
         transform="translate(121.445,80.9779)"
         id="g935">
        <path
           d="M 94.5,662 V 472 M 315,662 V 0 m 31,630 V 31.5 M 378,662 V 0 M 598,662 V 472 M 94.5,662 H 598 M 220,0 H 472 M 126,662 94.5,472 M 158,662 94.5,567 M 189,662 94.5,598 M 252,662 94.5,630 M 441,662 598,630 m -94,32 94,-64 m -62,64 62,-95 m -31,95 31,-190 M 315,31.5 252,0 M 315,63 284,0 M 378,63 410,0 M 378,31.5 441,0"
           style="stroke-width:0.217in"
           transform="scale(0.00635,-0.00635)"
           id="path933" />
      </g>
    </g>
    <g
       aria-label="18pt"
       id="text946"
       style="font-size:4.23333px;line-height:1.25;font-family:'Liberation Serif';-inkscape-font-specification:'Liberation Serif';text-align:center;letter-spacing:0px;word-spacing:0px;text-anchor:middle;stroke-width:0.264583">
      <path
         d="m 80.630503,72.120654 0.566374,0.05581 v 0.109554 H 79.70653 v -0.109554 l 0.56844,-0.05581 V 69.859295 L 79.714798,70.0598 v -0.109554 l 0.808218,-0.458887 h 0.107487 z"
         style="stroke-width:0.264583"
         id="path1316" />
      <path
         d="m 83.32181,70.190024 q 0,0.227376 -0.111621,0.386539 -0.109554,0.157097 -0.297656,0.239779 0.235644,0.08682 0.363801,0.272851 0.130225,0.183968 0.130225,0.448551 0,0.392741 -0.221175,0.591178 -0.221175,0.198437 -0.688329,0.198437 -0.8847,0 -0.8847,-0.789615 0,-0.274918 0.132291,-0.454752 0.132292,-0.181901 0.357601,-0.26665 -0.179834,-0.08268 -0.293522,-0.239779 -0.111621,-0.157096 -0.111621,-0.386539 0,-0.343131 0.208773,-0.531233 0.210839,-0.188102 0.607714,-0.188102 0.384472,0 0.595312,0.188102 0.212907,0.186035 0.212907,0.531233 z m -0.287321,1.34772 q 0,-0.330729 -0.130225,-0.479557 -0.128157,-0.148828 -0.407209,-0.148828 -0.272852,0 -0.392741,0.142627 -0.119889,0.14056 -0.119889,0.485758 0,0.349333 0.121956,0.487825 0.121956,0.138493 0.390674,0.138493 0.274918,0 0.405142,-0.142627 0.132292,-0.144694 0.132292,-0.483691 z m -0.08475,-1.34772 q 0,-0.285254 -0.111621,-0.419612 -0.111621,-0.134359 -0.33693,-0.134359 -0.219108,0 -0.326595,0.130225 -0.10542,0.130224 -0.10542,0.423746 0,0.287321 0.103353,0.413411 0.103353,0.124023 0.328662,0.124023 0.23151,0 0.338997,-0.12609 0.109554,-0.128157 0.109554,-0.411344 z"
         style="stroke-width:0.264583"
         id="path1318" />
      <path
         d="m 83.881982,70.48768 -0.221175,-0.05168 v -0.09302 h 0.545702 l 0.0041,0.113688 q 0.08682,-0.07441 0.23151,-0.119889 0.146761,-0.04548 0.297656,-0.04548 0.37207,0 0.574641,0.258382 0.204639,0.258382 0.204639,0.742073 0,0.494026 -0.223242,0.76481 -0.221175,0.270784 -0.640787,0.270784 -0.233578,0 -0.444417,-0.04547 0.0124,0.148828 0.0124,0.233578 v 0.525032 l 0.338997,0.04961 v 0.09715 h -0.926041 v -0.09715 l 0.24598,-0.04961 z m 1.265038,0.804085 q 0,-0.396875 -0.130225,-0.589111 -0.128157,-0.194303 -0.390673,-0.194303 -0.241846,0 -0.403076,0.06821 v 1.552359 q 0.183968,0.03514 0.403076,0.03514 0.520898,0 0.520898,-0.872297 z"
         style="stroke-width:0.264583"
         id="path1320" />
      <path
         d="m 86.374851,72.327359 q -0.198438,0 -0.297656,-0.117822 -0.09715,-0.117822 -0.09715,-0.330729 v -1.362189 h -0.254248 v -0.09302 l 0.258382,-0.08062 0.208773,-0.440283 h 0.130224 v 0.440283 h 0.444417 v 0.173633 h -0.444417 v 1.324982 q 0,0.134359 0.05994,0.202572 0.06201,0.06821 0.16123,0.06821 0.11989,0 0.291455,-0.03307 v 0.134358 q -0.07235,0.04961 -0.208772,0.08062 -0.136426,0.03307 -0.252181,0.03307 z"
         style="stroke-width:0.264583"
         id="path1322" />
    </g>
    <g
       aria-label="Looks almost identical, but the stroke font will be much faster"
       id="text950"
       style="font-size:4.23333px;line-height:1.25;font-family:'Liberation Serif';-inkscape-font-specification:'Liberation Serif';text-align:center;letter-spacing:0px;word-spacing:0px;text-anchor:middle;stroke-width:0.264583">
      <path
         d="m 32.191928,84.579477 -0.42788,0.05374 v 2.430857 h 0.545702 q 0.440283,0 0.646989,-0.04134 l 0.128157,-0.576708 h 0.134359 l -0.03721,0.795816 H 31.009572 V 87.13229 l 0.355534,-0.05581 v -2.44326 l -0.355534,-0.05374 v -0.109554 h 1.182356 z"
         style="stroke-width:0.264583"
         id="path1325" />
      <path
         d="m 35.428937,86.259993 q 0,1.023192 -0.909504,1.023192 -0.438216,0 -0.661458,-0.262516 -0.223242,-0.262516 -0.223242,-0.760676 0,-0.491959 0.223242,-0.752408 0.223242,-0.260449 0.677994,-0.260449 0.44235,0 0.667659,0.256314 0.225309,0.254248 0.225309,0.756543 z m -0.37207,0 q 0,-0.446484 -0.130225,-0.646989 -0.130224,-0.200504 -0.407209,-0.200504 -0.270785,0 -0.392741,0.192236 -0.119889,0.192236 -0.119889,0.655257 0,0.469221 0.121956,0.665592 0.124023,0.194303 0.390674,0.194303 0.272851,0 0.405142,-0.202572 0.132292,-0.202571 0.132292,-0.657323 z"
         style="stroke-width:0.264583"
         id="path1327" />
      <path
         d="m 37.545602,86.259993 q 0,1.023192 -0.909505,1.023192 -0.438215,0 -0.661457,-0.262516 -0.223242,-0.262516 -0.223242,-0.760676 0,-0.491959 0.223242,-0.752408 0.223242,-0.260449 0.677994,-0.260449 0.44235,0 0.667659,0.256314 0.225309,0.254248 0.225309,0.756543 z m -0.37207,0 q 0,-0.446484 -0.130225,-0.646989 -0.130224,-0.200504 -0.40721,-0.200504 -0.270784,0 -0.39274,0.192236 -0.119889,0.192236 -0.119889,0.655257 0,0.469221 0.121956,0.665592 0.124023,0.194303 0.390673,0.194303 0.272852,0 0.405143,-0.202572 0.132292,-0.202571 0.132292,-0.657323 z"
         style="stroke-width:0.264583"
         id="path1329" />
      <path
         d="m 38.417899,86.305468 0.795817,-0.857828 -0.202572,-0.05581 v -0.09302 h 0.686263 v 0.09302 l -0.241846,0.04754 -0.553971,0.566373 0.711067,1.095539 0.21084,0.04754 v 0.09302 h -0.795816 v -0.09302 l 0.177766,-0.05168 -0.5333,-0.837157 -0.254248,0.279052 v 0.558105 l 0.206706,0.05168 v 0.09302 h -0.795817 v -0.09302 l 0.24598,-0.05168 v -2.649965 l -0.287321,-0.04961 v -0.09302 h 0.630452 z"
         style="stroke-width:0.264583"
         id="path1331" />
      <path
         d="m 41.317978,86.696142 q 0,0.289387 -0.183968,0.438215 -0.181901,0.148828 -0.539502,0.148828 -0.144694,0 -0.320393,-0.03101 -0.173633,-0.02894 -0.272852,-0.06614 v -0.47749 h 0.09302 l 0.101286,0.270784 q 0.155029,0.14056 0.403075,0.14056 0.401009,0 0.401009,-0.343131 0,-0.252181 -0.316259,-0.359668 l -0.183968,-0.05994 q -0.208773,-0.06821 -0.303857,-0.138492 -0.09508,-0.07028 -0.146761,-0.171566 -0.05168,-0.103353 -0.05168,-0.248047 0,-0.256314 0.173633,-0.403075 0.1757,-0.148828 0.473356,-0.148828 0.212906,0 0.5333,0.06408 v 0.423747 h -0.09715 l -0.08682,-0.225309 q -0.109554,-0.09715 -0.345198,-0.09715 -0.167432,0 -0.256315,0.08268 -0.08682,0.08268 -0.08682,0.223242 0,0.117822 0.07855,0.198438 0.08062,0.08062 0.241845,0.134358 0.303857,0.103353 0.396875,0.150895 0.09302,0.04754 0.157096,0.117822 0.06615,0.06821 0.101286,0.157097 0.03721,0.08888 0.03721,0.219108 z"
         style="stroke-width:0.264583"
         id="path1333" />
      <path
         d="m 43.490454,85.255404 q 0.318326,0 0.467154,0.130224 0.150895,0.130225 0.150895,0.398942 v 1.31258 l 0.241846,0.05168 v 0.09302 h -0.533301 l -0.03927,-0.194303 q -0.235644,0.235644 -0.601513,0.235644 -0.49816,0 -0.49816,-0.578775 0,-0.194303 0.07441,-0.320394 0.07648,-0.128157 0.241845,-0.194303 0.165365,-0.06821 0.479557,-0.07441 l 0.291455,-0.0083 v -0.303857 q 0,-0.200505 -0.07441,-0.295589 -0.07235,-0.09509 -0.225309,-0.09509 -0.206706,0 -0.378271,0.09715 l -0.07028,0.241845 h -0.115755 v -0.423746 q 0.334863,-0.07235 0.589111,-0.07235 z m 0.274918,0.996321 -0.270784,0.0083 q -0.276986,0.01034 -0.376204,0.107487 -0.09715,0.09715 -0.09715,0.324527 0,0.363802 0.295589,0.363802 0.14056,0 0.241846,-0.03101 0.103352,-0.03307 0.206705,-0.08268 z"
         style="stroke-width:0.264583"
         id="path1335" />
      <path
         d="m 45.166836,87.09715 0.332796,0.05168 v 0.09302 h -1.006656 v -0.09302 l 0.330729,-0.05168 v -2.649965 l -0.330729,-0.04961 v -0.09302 h 0.67386 z"
         style="stroke-width:0.264583"
         id="path1337" />
      <path
         d="m 46.258241,85.455908 q 0.155029,-0.08888 0.328662,-0.148828 0.173633,-0.05994 0.305924,-0.05994 0.142627,0 0.262516,0.05374 0.121956,0.05374 0.181901,0.171566 0.159163,-0.08888 0.37207,-0.157097 0.214974,-0.06821 0.355534,-0.06821 0.496093,0 0.496093,0.572574 v 1.27744 l 0.250114,0.05168 v 0.09302 h -0.882633 v -0.09302 l 0.289388,-0.05168 v -1.240233 q 0,-0.355534 -0.330729,-0.355534 -0.05374,0 -0.126091,0.0083 -0.07028,0.0083 -0.142626,0.0186 -0.07028,0.01033 -0.136426,0.02481 -0.06408,0.0124 -0.107487,0.02067 0.03514,0.111621 0.03514,0.24598 v 1.27744 l 0.291455,0.05168 v 0.09302 h -0.921907 v -0.09302 l 0.287321,-0.05168 v -1.240233 q 0,-0.171566 -0.08888,-0.262516 -0.08682,-0.09302 -0.262516,-0.09302 -0.181901,0 -0.452685,0.05994 v 1.535822 l 0.291455,0.05168 v 0.09302 h -0.880566 v -0.09302 l 0.24598,-0.05168 v -1.653644 l -0.24598,-0.05168 v -0.09302 h 0.568441 z"
         style="stroke-width:0.264583"
         id="path1339" />
      <path
         d="m 50.832634,86.259993 q 0,1.023192 -0.909504,1.023192 -0.438216,0 -0.661458,-0.262516 -0.223242,-0.262516 -0.223242,-0.760676 0,-0.491959 0.223242,-0.752408 0.223242,-0.260449 0.677994,-0.260449 0.44235,0 0.667659,0.256314 0.225309,0.254248 0.225309,0.756543 z m -0.37207,0 q 0,-0.446484 -0.130224,-0.646989 -0.130225,-0.200504 -0.40721,-0.200504 -0.270784,0 -0.392741,0.192236 -0.119889,0.192236 -0.119889,0.655257 0,0.469221 0.121957,0.665592 0.124023,0.194303 0.390673,0.194303 0.272851,0 0.405143,-0.202572 0.132291,-0.202571 0.132291,-0.657323 z"
         style="stroke-width:0.264583"
         id="path1341" />
      <path
         d="m 52.488346,86.696142 q 0,0.289387 -0.183968,0.438215 -0.181901,0.148828 -0.539501,0.148828 -0.144694,0 -0.320394,-0.03101 -0.173633,-0.02894 -0.272851,-0.06614 v -0.47749 h 0.09302 l 0.101286,0.270784 q 0.155029,0.14056 0.403076,0.14056 0.401008,0 0.401008,-0.343131 0,-0.252181 -0.316259,-0.359668 l -0.183968,-0.05994 q -0.208773,-0.06821 -0.303857,-0.138492 -0.09508,-0.07028 -0.146761,-0.171566 -0.05168,-0.103353 -0.05168,-0.248047 0,-0.256314 0.173633,-0.403075 0.1757,-0.148828 0.473356,-0.148828 0.212907,0 0.5333,0.06408 v 0.423747 h -0.09715 l -0.08682,-0.225309 Q 52.054264,85.4125 51.81862,85.4125 q -0.167432,0 -0.256315,0.08268 -0.08682,0.08268 -0.08682,0.223242 0,0.117822 0.07855,0.198438 0.08062,0.08062 0.241845,0.134358 0.303858,0.103353 0.396875,0.150895 0.09302,0.04754 0.157096,0.117822 0.06615,0.06821 0.101286,0.157097 0.03721,0.08888 0.03721,0.219108 z"
         style="stroke-width:0.264583"
         id="path1343" />
      <path
         d="m 53.331705,87.283185 q -0.198437,0 -0.297656,-0.117822 -0.09715,-0.117822 -0.09715,-0.330729 V 85.472445 H 52.68265 v -0.09302 l 0.258382,-0.08062 0.208772,-0.440283 h 0.130225 v 0.440283 h 0.444417 v 0.173633 h -0.444417 v 1.324982 q 0,0.134359 0.05994,0.202572 0.06201,0.06821 0.161231,0.06821 0.119889,0 0.291455,-0.03307 v 0.134358 q -0.07235,0.04961 -0.208773,0.08061 -0.136426,0.03307 -0.252181,0.03307 z"
         style="stroke-width:0.264583"
         id="path1345" />
      <path
         d="m 55.65921,84.664226 q 0,0.09095 -0.06615,0.157096 -0.06614,0.06615 -0.159163,0.06615 -0.09095,0 -0.157096,-0.06615 -0.06615,-0.06615 -0.06615,-0.157096 0,-0.09302 0.06615,-0.159163 0.06615,-0.06615 0.157096,-0.06615 0.09302,0 0.159163,0.06615 0.06615,0.06614 0.06615,0.159163 z m -0.02067,2.432924 0.332796,0.05168 v 0.09302 H 54.96468 v -0.09302 l 0.330728,-0.05168 v -1.653644 l -0.274918,-0.05168 v -0.09302 h 0.61805 z"
         style="stroke-width:0.264583"
         id="path1347" />
      <path
         d="m 57.54643,87.09715 q -0.233577,0.186035 -0.545702,0.186035 -0.795817,0 -0.795817,-0.994253 0,-0.510563 0.225309,-0.775146 0.22531,-0.26665 0.663525,-0.26665 0.223242,0 0.452685,0.04754 -0.0124,-0.06821 -0.0124,-0.343131 v -0.504362 l -0.326595,-0.04961 v -0.09302 h 0.669726 v 2.792592 l 0.239779,0.05168 v 0.09302 h -0.545703 z m -0.969449,-0.808218 q 0,0.39274 0.132292,0.587043 0.132292,0.192237 0.405143,0.192237 0.233577,0 0.419612,-0.08062 v -1.535822 q -0.183968,-0.03514 -0.419612,-0.03514 -0.537435,0 -0.537435,0.872298 z"
         style="stroke-width:0.264583"
         id="path1349" />
      <path
         d="m 58.706049,86.264127 v 0.03721 q 0,0.285254 0.06201,0.444417 0.06408,0.157096 0.194304,0.239778 0.132291,0.08268 0.345198,0.08268 0.111621,0 0.264583,-0.0186 0.152962,-0.0186 0.252181,-0.04134 v 0.115755 q -0.09922,0.06408 -0.270785,0.111621 -0.169498,0.04754 -0.347265,0.04754 -0.452685,0 -0.663525,-0.243912 -0.208772,-0.243913 -0.208772,-0.783414 0,-0.508496 0.212906,-0.75861 0.212907,-0.250113 0.607715,-0.250113 0.746207,0 0.746207,0.847492 v 0.169499 z M 59.1546,85.4125 q -0.214974,0 -0.330729,0.173633 -0.113688,0.173632 -0.113688,0.512629 h 0.830956 q 0,-0.370002 -0.09508,-0.527099 Q 59.35097,85.4125 59.1546,85.4125 Z"
         style="stroke-width:0.264583"
         id="path1351" />
      <path
         d="m 60.717294,85.455908 q 0.159163,-0.09095 0.338997,-0.148828 0.179834,-0.05994 0.299723,-0.05994 0.252181,0 0.380339,0.146761 0.128157,0.14676 0.128157,0.425813 v 1.27744 l 0.235644,0.05168 v 0.09302 h -0.837157 v -0.09302 l 0.258382,-0.05168 v -1.240233 q 0,-0.171566 -0.08475,-0.268717 -0.08268,-0.09922 -0.258381,-0.09922 -0.186035,0 -0.45682,0.05994 v 1.548224 l 0.262516,0.05168 v 0.09302 H 60.14472 v -0.09302 l 0.233577,-0.05168 v -1.653644 l -0.233577,-0.05168 v -0.09302 h 0.553971 z"
         style="stroke-width:0.264583"
         id="path1353" />
      <path
         d="m 62.85463,87.283185 q -0.198438,0 -0.297656,-0.117822 -0.09715,-0.117822 -0.09715,-0.330729 v -1.362189 h -0.254248 v -0.09302 l 0.258382,-0.08062 0.208773,-0.440283 h 0.130224 v 0.440283 h 0.444417 v 0.173633 h -0.444417 v 1.324982 q 0,0.134359 0.05994,0.202572 0.06201,0.06821 0.16123,0.06821 0.119889,0 0.291455,-0.03307 v 0.134358 q -0.07235,0.04961 -0.208773,0.08061 -0.136425,0.03307 -0.25218,0.03307 z"
         style="stroke-width:0.264583"
         id="path1355" />
      <path
         d="m 64.123804,84.664226 q 0,0.09095 -0.06615,0.157096 -0.06615,0.06615 -0.159163,0.06615 -0.09095,0 -0.157096,-0.06615 -0.06615,-0.06615 -0.06615,-0.157096 0,-0.09302 0.06615,-0.159163 0.06615,-0.06615 0.157096,-0.06615 0.09302,0 0.159163,0.06615 0.06615,0.06614 0.06615,0.159163 z m -0.02067,2.432924 0.332795,0.05168 v 0.09302 h -1.006656 v -0.09302 l 0.330729,-0.05168 v -1.653644 l -0.274918,-0.05168 v -0.09302 h 0.61805 z"
         style="stroke-width:0.264583"
         id="path1357" />
      <path
         d="m 66.26527,87.124022 q -0.101285,0.07441 -0.279052,0.117822 -0.177767,0.04134 -0.363802,0.04134 -0.944644,0 -0.944644,-1.027326 0,-0.485758 0.239778,-0.746207 0.241846,-0.262516 0.690397,-0.262516 0.279052,0 0.609781,0.06408 v 0.541569 H 66.10404 l -0.08888,-0.343131 q -0.171566,-0.09715 -0.411344,-0.09715 -0.553971,0 -0.553971,0.843359 0,0.438215 0.167431,0.626318 0.169499,0.186035 0.522965,0.186035 0.30179,0 0.525032,-0.06821 z"
         style="stroke-width:0.264583"
         id="path1359" />
      <path
         d="m 67.356678,85.255404 q 0.318327,0 0.467155,0.130224 0.150895,0.130225 0.150895,0.398942 v 1.31258 l 0.241845,0.05168 v 0.09302 h -0.5333 l -0.03927,-0.194303 q -0.235645,0.235644 -0.601513,0.235644 -0.498161,0 -0.498161,-0.578775 0,-0.194303 0.07441,-0.320394 0.07648,-0.128157 0.241846,-0.194303 0.165364,-0.06821 0.479557,-0.07441 l 0.291454,-0.0083 v -0.303857 q 0,-0.200505 -0.07441,-0.295589 -0.07235,-0.09509 -0.225309,-0.09509 -0.206705,0 -0.378271,0.09715 l -0.07028,0.241845 h -0.115755 v -0.423746 q 0.334863,-0.07235 0.589111,-0.07235 z m 0.274918,0.996321 -0.270784,0.0083 q -0.276985,0.01034 -0.376204,0.107487 -0.09715,0.09715 -0.09715,0.324527 0,0.363802 0.295589,0.363802 0.14056,0 0.241846,-0.03101 0.103353,-0.03307 0.206705,-0.08268 z"
         style="stroke-width:0.264583"
         id="path1361" />
      <path
         d="m 69.033059,87.09715 0.332795,0.05168 v 0.09302 h -1.006656 v -0.09302 l 0.330729,-0.05168 v -2.649965 l -0.330729,-0.04961 v -0.09302 h 0.673861 z"
         style="stroke-width:0.264583"
         id="path1363" />
      <path
         d="m 70.242287,87.140558 q 0,0.283187 -0.165365,0.473356 -0.163297,0.192236 -0.465087,0.279053 v -0.159164 q 0.363801,-0.115755 0.363801,-0.347265 0,-0.04134 -0.031,-0.07441 -0.03101,-0.03307 -0.107487,-0.07235 -0.14056,-0.07235 -0.14056,-0.204638 0,-0.111621 0.07028,-0.169499 0.07028,-0.05994 0.179834,-0.05994 0.132291,0 0.212906,0.09508 0.08268,0.09508 0.08268,0.239778 z"
         style="stroke-width:0.264583"
         id="path1365" />
      <path
         d="m 73.150634,86.216585 q 0,-0.380339 -0.132292,-0.566374 -0.132291,-0.186035 -0.409277,-0.186035 -0.121956,0 -0.241845,0.02274 -0.11989,0.02067 -0.173633,0.04547 v 1.539957 q 0.173633,0.03307 0.415478,0.03307 0.285254,0 0.413411,-0.223242 0.128158,-0.223242 0.128158,-0.665592 z m -1.300178,-1.7694 -0.283187,-0.04961 v -0.09302 h 0.626318 v 0.694531 q 0,0.111621 -0.0124,0.409277 0.206705,-0.16123 0.520898,-0.16123 0.396874,0 0.607714,0.241845 0.212907,0.239779 0.212907,0.727604 0,0.522965 -0.233578,0.795816 -0.23151,0.270784 -0.671793,0.270784 -0.177766,0 -0.39274,-0.03927 -0.212907,-0.03927 -0.374137,-0.103353 z"
         style="stroke-width:0.264583"
         id="path1367" />
      <path
         d="m 74.330922,86.687873 q 0,0.355534 0.330729,0.355534 0.256315,0 0.479557,-0.06408 v -1.535822 l -0.293522,-0.05168 v -0.09302 h 0.634586 v 1.798338 l 0.24598,0.05168 v 0.09302 h -0.566373 l -0.01654,-0.157096 q -0.146761,0.08061 -0.338997,0.14056 -0.192236,0.05788 -0.32246,0.05788 -0.496094,0 -0.496094,-0.570507 v -1.269172 l -0.248046,-0.05168 v -0.09302 h 0.591177 z"
         style="stroke-width:0.264583"
         id="path1369" />
      <path
         d="m 76.490995,87.283185 q -0.198437,0 -0.297656,-0.117822 -0.09715,-0.117822 -0.09715,-0.330729 V 85.472445 H 75.84194 v -0.09302 l 0.258382,-0.08062 0.208773,-0.440283 h 0.130224 v 0.440283 h 0.444417 v 0.173633 h -0.444417 v 1.324982 q 0,0.134359 0.05994,0.202572 0.06201,0.06821 0.16123,0.06821 0.119889,0 0.291455,-0.03307 v 0.134358 q -0.07235,0.04961 -0.208773,0.08061 -0.136425,0.03307 -0.252181,0.03307 z"
         style="stroke-width:0.264583"
         id="path1371" />
      <path
         d="m 78.725481,87.283185 q -0.198437,0 -0.297656,-0.117822 -0.09715,-0.117822 -0.09715,-0.330729 v -1.362189 h -0.254247 v -0.09302 l 0.258382,-0.08062 0.208772,-0.440283 h 0.130225 v 0.440283 h 0.444417 v 0.173633 h -0.444417 v 1.324982 q 0,0.134359 0.05994,0.202572 0.06201,0.06821 0.161231,0.06821 0.119889,0 0.291454,-0.03307 v 0.134358 q -0.07235,0.04961 -0.208772,0.08061 -0.136426,0.03307 -0.252181,0.03307 z"
         style="stroke-width:0.264583"
         id="path1373" />
      <path
         d="m 79.8851,85.14585 q 0,0.214974 -0.01447,0.310058 0.148828,-0.08475 0.33693,-0.146761 0.19017,-0.06201 0.320394,-0.06201 0.252181,0 0.380338,0.146761 0.128158,0.14676 0.128158,0.425813 v 1.27744 l 0.235644,0.05168 v 0.09302 h -0.837157 v -0.09302 l 0.258381,-0.05168 v -1.252635 q 0,-0.355534 -0.343131,-0.355534 -0.194303,0 -0.465087,0.05994 v 1.548224 l 0.262516,0.05168 v 0.09302 h -0.851627 v -0.09302 l 0.24598,-0.05168 v -2.649965 l -0.289388,-0.04961 v -0.09302 H 79.8851 Z"
         style="stroke-width:0.264583"
         id="path1375" />
      <path
         d="m 81.865339,86.264127 v 0.03721 q 0,0.285254 0.06201,0.444417 0.06408,0.157096 0.194303,0.239778 0.132291,0.08268 0.345198,0.08268 0.111621,0 0.264583,-0.0186 0.152962,-0.0186 0.252181,-0.04134 v 0.115755 q -0.09922,0.06408 -0.270784,0.111621 -0.169499,0.04754 -0.347266,0.04754 -0.452685,0 -0.663524,-0.243912 -0.208773,-0.243913 -0.208773,-0.783414 0,-0.508496 0.212907,-0.75861 0.212906,-0.250113 0.607714,-0.250113 0.746207,0 0.746207,0.847492 v 0.169499 z M 82.31389,85.4125 q -0.214974,0 -0.330729,0.173633 -0.113688,0.173632 -0.113688,0.512629 h 0.830956 q 0,-0.370002 -0.09508,-0.527099 Q 82.51026,85.4125 82.31389,85.4125 Z"
         style="stroke-width:0.264583"
         id="path1377" />
      <path
         d="m 85.759672,86.696142 q 0,0.289387 -0.183968,0.438215 -0.181901,0.148828 -0.539501,0.148828 -0.144694,0 -0.320394,-0.03101 -0.173633,-0.02894 -0.272851,-0.06614 v -0.47749 h 0.09302 l 0.101286,0.270784 q 0.155029,0.14056 0.403076,0.14056 0.401008,0 0.401008,-0.343131 0,-0.252181 -0.316259,-0.359668 l -0.183968,-0.05994 q -0.208773,-0.06821 -0.303857,-0.138492 -0.09508,-0.07028 -0.146761,-0.171566 -0.05168,-0.103353 -0.05168,-0.248047 0,-0.256314 0.173632,-0.403075 0.1757,-0.148828 0.473356,-0.148828 0.212907,0 0.5333,0.06408 v 0.423747 h -0.09715 l -0.08682,-0.225309 Q 85.32559,85.4125 85.089946,85.4125 q -0.167431,0 -0.256315,0.08268 -0.08682,0.08268 -0.08682,0.223242 0,0.117822 0.07855,0.198438 0.08062,0.08062 0.241845,0.134358 0.303858,0.103353 0.396875,0.150895 0.09302,0.04754 0.157096,0.117822 0.06615,0.06821 0.101286,0.157097 0.03721,0.08888 0.03721,0.219108 z"
         style="stroke-width:0.264583"
         id="path1379" />
      <path
         d="m 86.603029,87.283185 q -0.198437,0 -0.297656,-0.117822 -0.09715,-0.117822 -0.09715,-0.330729 v -1.362189 h -0.254248 v -0.09302 l 0.258382,-0.08062 0.208772,-0.440283 h 0.130225 v 0.440283 h 0.444417 v 0.173633 h -0.444417 v 1.324982 q 0,0.134359 0.05994,0.202572 0.06201,0.06821 0.16123,0.06821 0.119889,0 0.291455,-0.03307 v 0.134358 q -0.07235,0.04961 -0.208773,0.08061 -0.136426,0.03307 -0.252181,0.03307 z"
         style="stroke-width:0.264583"
         id="path1381" />
      <path
         d="m 88.461313,85.247136 v 0.525032 h -0.08888 L 88.25254,85.544792 q -0.103353,0 -0.245979,0.02894 -0.14056,0.02687 -0.243913,0.07235 v 1.451073 l 0.332796,0.05168 v 0.09302 h -0.921907 v -0.09302 l 0.24598,-0.05168 v -1.653644 l -0.24598,-0.05168 v -0.09302 h 0.566373 l 0.0186,0.241845 q 0.124023,-0.103352 0.334863,-0.198437 0.212907,-0.09508 0.33693,-0.09508 z"
         style="stroke-width:0.264583"
         id="path1383" />
      <path
         d="m 90.453955,86.259993 q 0,1.023192 -0.909504,1.023192 -0.438216,0 -0.661458,-0.262516 -0.223242,-0.262516 -0.223242,-0.760676 0,-0.491959 0.223242,-0.752408 0.223242,-0.260449 0.677994,-0.260449 0.44235,0 0.667659,0.256314 0.225309,0.254248 0.225309,0.756543 z m -0.37207,0 q 0,-0.446484 -0.130224,-0.646989 -0.130225,-0.200504 -0.40721,-0.200504 -0.270785,0 -0.392741,0.192236 -0.119889,0.192236 -0.119889,0.655257 0,0.469221 0.121956,0.665592 0.124024,0.194303 0.390674,0.194303 0.272851,0 0.405143,-0.202572 0.132291,-0.202571 0.132291,-0.657323 z"
         style="stroke-width:0.264583"
         id="path1385" />
      <path
         d="m 91.326253,86.305468 0.795816,-0.857828 -0.202571,-0.05581 v -0.09302 h 0.686262 v 0.09302 l -0.241845,0.04754 -0.553971,0.566373 0.711067,1.095539 0.210839,0.04754 v 0.09302 h -0.795816 v -0.09302 l 0.177767,-0.05168 -0.533301,-0.837157 -0.254247,0.279052 v 0.558105 l 0.206705,0.05168 v 0.09302 h -0.795816 v -0.09302 l 0.245979,-0.05168 v -2.649965 l -0.28732,-0.04961 v -0.09302 h 0.630452 z"
         style="stroke-width:0.264583"
         id="path1387" />
      <path
         d="m 93.269285,86.264127 v 0.03721 q 0,0.285254 0.06201,0.444417 0.06408,0.157096 0.194303,0.239778 0.132291,0.08268 0.345198,0.08268 0.111621,0 0.264583,-0.0186 0.152962,-0.0186 0.252181,-0.04134 v 0.115755 q -0.09922,0.06408 -0.270784,0.111621 -0.169499,0.04754 -0.347266,0.04754 -0.452685,0 -0.663525,-0.243912 -0.208772,-0.243913 -0.208772,-0.783414 0,-0.508496 0.212907,-0.75861 0.212906,-0.250113 0.607714,-0.250113 0.746207,0 0.746207,0.847492 v 0.169499 z M 93.717836,85.4125 q -0.214974,0 -0.330729,0.173633 -0.113688,0.173632 -0.113688,0.512629 h 0.830956 q 0,-0.370002 -0.09508,-0.527099 Q 93.914206,85.4125 93.717836,85.4125 Z"
         style="stroke-width:0.264583"
         id="path1389" />
      <path
         d="m 96.134228,85.472445 h -0.334863 v -0.101286 l 0.334863,-0.08062 v -0.136426 q 0,-0.429947 0.169499,-0.661458 0.171565,-0.23151 0.479557,-0.23151 0.159163,0 0.295589,0.03927 v 0.423747 h -0.101286 l -0.09302,-0.254248 q -0.07028,-0.04341 -0.169498,-0.04341 -0.130225,0 -0.183968,0.115755 -0.05374,0.115755 -0.05374,0.434081 v 0.322461 h 0.516764 v 0.173633 h -0.516764 v 1.608169 l 0.419613,0.06821 v 0.09302 h -1.050065 v -0.09302 l 0.287321,-0.06821 z"
         style="stroke-width:0.264583"
         id="path1391" />
      <path
         d="m 99.034304,86.259993 q 0,1.023192 -0.909504,1.023192 -0.438216,0 -0.661458,-0.262516 -0.223242,-0.262516 -0.223242,-0.760676 0,-0.491959 0.223242,-0.752408 0.223242,-0.260449 0.677994,-0.260449 0.44235,0 0.667659,0.256314 0.225309,0.254248 0.225309,0.756543 z m -0.37207,0 q 0,-0.446484 -0.130224,-0.646989 Q 98.401785,85.4125 98.1248,85.4125 q -0.270785,0 -0.392741,0.192236 -0.119889,0.192236 -0.119889,0.655257 0,0.469221 0.121956,0.665592 0.124024,0.194303 0.390674,0.194303 0.272851,0 0.405143,-0.202572 0.132291,-0.202571 0.132291,-0.657323 z"
         style="stroke-width:0.264583"
         id="path1393" />
      <path
         d="m 99.865257,85.455908 q 0.159163,-0.09095 0.338993,-0.148828 0.17984,-0.05994 0.29973,-0.05994 0.25218,0 0.38034,0.146761 0.12815,0.14676 0.12815,0.425813 v 1.27744 l 0.23565,0.05168 v 0.09302 h -0.83716 v -0.09302 l 0.25838,-0.05168 v -1.240233 q 0,-0.171566 -0.0847,-0.268717 -0.0827,-0.09922 -0.25838,-0.09922 -0.18603,0 -0.456819,0.05994 v 1.548224 l 0.262519,0.05168 v 0.09302 h -0.839228 v -0.09302 l 0.233578,-0.05168 v -1.653644 l -0.233578,-0.05168 v -0.09302 h 0.553971 z"
         style="stroke-width:0.264583"
         id="path1395" />
      <path
         d="m 102.0026,87.283185 q -0.19844,0 -0.29766,-0.117822 -0.0971,-0.117822 -0.0971,-0.330729 v -1.362189 h -0.25425 v -0.09302 l 0.25838,-0.08062 0.20878,-0.440283 h 0.13022 v 0.440283 h 0.44442 v 0.173633 h -0.44442 v 1.324982 q 0,0.134359 0.0599,0.202572 0.062,0.06821 0.16123,0.06821 0.11989,0 0.29146,-0.03307 v 0.134358 q -0.0724,0.04961 -0.20877,0.08061 -0.13643,0.03307 -0.25218,0.03307 z"
         style="stroke-width:0.264583"
         id="path1397" />
      <path
         d="m 105.71916,87.283185 h -0.16123 l -0.47955,-1.281574 -0.47336,1.281574 h -0.15296 l -0.67179,-1.839679 -0.22945,-0.05168 v -0.09302 h 0.92398 v 0.09302 l -0.32246,0.05581 0.46095,1.31258 0.46922,-1.267105 h 0.17363 l 0.46716,1.275373 0.44028,-1.324982 -0.31833,-0.05168 v -0.09302 h 0.74001 v 0.09302 l -0.21497,0.04341 z"
         style="stroke-width:0.264583"
         id="path1399" />
      <path
         d="m 107.38728,84.664226 q 0,0.09095 -0.0662,0.157096 -0.0661,0.06615 -0.15916,0.06615 -0.0909,0 -0.1571,-0.06615 -0.0661,-0.06615 -0.0661,-0.157096 0,-0.09302 0.0661,-0.159163 0.0662,-0.06615 0.1571,-0.06615 0.093,0 0.15916,0.06615 0.0662,0.06614 0.0662,0.159163 z m -0.0207,2.432924 0.33279,0.05168 v 0.09302 h -1.00665 v -0.09302 l 0.33073,-0.05168 v -1.653644 l -0.27492,-0.05168 v -0.09302 h 0.61805 z"
         style="stroke-width:0.264583"
         id="path1401" />
      <path
         d="m 108.53863,87.09715 0.33279,0.05168 v 0.09302 h -1.00665 v -0.09302 l 0.33073,-0.05168 v -2.649965 l -0.33073,-0.04961 v -0.09302 h 0.67386 z"
         style="stroke-width:0.264583"
         id="path1403" />
      <path
         d="m 109.71478,87.09715 0.3328,0.05168 v 0.09302 h -1.00666 v -0.09302 l 0.33073,-0.05168 v -2.649965 l -0.33073,-0.04961 v -0.09302 h 0.67386 z"
         style="stroke-width:0.264583"
         id="path1405" />
      <path
         d="m 112.77402,86.216585 q 0,-0.380339 -0.13229,-0.566374 -0.13229,-0.186035 -0.40928,-0.186035 -0.12195,0 -0.24184,0.02274 -0.11989,0.02067 -0.17364,0.04547 v 1.539957 q 0.17364,0.03307 0.41548,0.03307 0.28526,0 0.41341,-0.223242 0.12816,-0.223242 0.12816,-0.665592 z m -1.30018,-1.7694 -0.28318,-0.04961 v -0.09302 h 0.62631 v 0.694531 q 0,0.111621 -0.0124,0.409277 0.20671,-0.16123 0.5209,-0.16123 0.39687,0 0.60771,0.241845 0.21291,0.239779 0.21291,0.727604 0,0.522965 -0.23358,0.795816 -0.23151,0.270784 -0.67179,0.270784 -0.17777,0 -0.39274,-0.03927 -0.21291,-0.03927 -0.37414,-0.103353 z"
         style="stroke-width:0.264583"
         id="path1407" />
      <path
         d="m 113.84476,86.264127 v 0.03721 q 0,0.285254 0.062,0.444417 0.0641,0.157096 0.1943,0.239778 0.1323,0.08268 0.3452,0.08268 0.11162,0 0.26458,-0.0186 0.15297,-0.0186 0.25219,-0.04134 v 0.115755 q -0.0992,0.06408 -0.27079,0.111621 -0.1695,0.04754 -0.34726,0.04754 -0.45269,0 -0.66353,-0.243912 -0.20877,-0.243913 -0.20877,-0.783414 0,-0.508496 0.21291,-0.75861 0.2129,-0.250113 0.60771,-0.250113 0.74621,0 0.74621,0.847492 v 0.169499 z m 0.44855,-0.851627 q -0.21497,0 -0.33073,0.173633 -0.11369,0.173632 -0.11369,0.512629 h 0.83096 q 0,-0.370002 -0.0951,-0.527099 -0.0951,-0.159163 -0.29145,-0.159163 z"
         style="stroke-width:0.264583"
         id="path1409" />
      <path
         d="m 116.91847,85.455908 q 0.15503,-0.08888 0.32866,-0.148828 0.17364,-0.05994 0.30593,-0.05994 0.14262,0 0.26251,0.05374 0.12196,0.05374 0.1819,0.171566 0.15917,-0.08888 0.37207,-0.157097 0.21498,-0.06821 0.35554,-0.06821 0.49609,0 0.49609,0.572574 v 1.27744 l 0.25011,0.05168 v 0.09302 h -0.88263 v -0.09302 l 0.28939,-0.05168 v -1.240233 q 0,-0.355534 -0.33073,-0.355534 -0.0537,0 -0.12609,0.0083 -0.0703,0.0083 -0.14263,0.0186 -0.0703,0.01033 -0.13642,0.02481 -0.0641,0.0124 -0.10749,0.02067 0.0351,0.111621 0.0351,0.24598 v 1.27744 l 0.29146,0.05168 v 0.09302 h -0.92191 v -0.09302 l 0.28732,-0.05168 v -1.240233 q 0,-0.171566 -0.0889,-0.262516 -0.0868,-0.09302 -0.26252,-0.09302 -0.1819,0 -0.45269,0.05994 v 1.535822 l 0.29146,0.05168 v 0.09302 h -0.88057 v -0.09302 l 0.24598,-0.05168 v -1.653644 l -0.24598,-0.05168 v -0.09302 h 0.56844 z"
         style="stroke-width:0.264583"
         id="path1411" />
      <path
         d="m 120.18442,86.687873 q 0,0.355534 0.33072,0.355534 0.25632,0 0.47956,-0.06408 v -1.535822 l -0.29352,-0.05168 v -0.09302 h 0.63459 v 1.798338 l 0.24597,0.05168 v 0.09302 h -0.56637 l -0.0165,-0.157096 q -0.14677,0.08061 -0.339,0.14056 -0.19224,0.05788 -0.32246,0.05788 -0.4961,0 -0.4961,-0.570507 v -1.269172 l -0.24804,-0.05168 v -0.09302 h 0.59118 z"
         style="stroke-width:0.264583"
         id="path1413" />
      <path
         d="m 123.40282,87.124022 q -0.10128,0.07441 -0.27905,0.117822 -0.17776,0.04134 -0.3638,0.04134 -0.94464,0 -0.94464,-1.027326 0,-0.485758 0.23977,-0.746207 0.24185,-0.262516 0.6904,-0.262516 0.27905,0 0.60978,0.06408 v 0.541569 h -0.11369 l -0.0889,-0.343131 q -0.17156,-0.09715 -0.41134,-0.09715 -0.55397,0 -0.55397,0.843359 0,0.438215 0.16743,0.626318 0.1695,0.186035 0.52296,0.186035 0.30179,0 0.52503,-0.06821 z"
         style="stroke-width:0.264583"
         id="path1415" />
      <path
         d="m 124.20691,85.14585 q 0,0.214974 -0.0145,0.310058 0.14883,-0.08475 0.33693,-0.146761 0.19017,-0.06201 0.32039,-0.06201 0.25218,0 0.38034,0.146761 0.12816,0.14676 0.12816,0.425813 v 1.27744 l 0.23564,0.05168 v 0.09302 h -0.83716 v -0.09302 l 0.25839,-0.05168 v -1.252635 q 0,-0.355534 -0.34313,-0.355534 -0.19431,0 -0.46509,0.05994 v 1.548224 l 0.26251,0.05168 v 0.09302 h -0.85162 v -0.09302 l 0.24598,-0.05168 v -2.649965 l -0.28939,-0.04961 v -0.09302 h 0.63252 z"
         style="stroke-width:0.264583"
         id="path1417" />
      <path
         d="m 127.17313,85.472445 h -0.33486 v -0.101286 l 0.33486,-0.08062 v -0.136426 q 0,-0.429947 0.1695,-0.661458 0.17156,-0.23151 0.47956,-0.23151 0.15916,0 0.29558,0.03927 v 0.423747 h -0.10128 l -0.093,-0.254248 q -0.0703,-0.04341 -0.1695,-0.04341 -0.13022,0 -0.18396,0.115755 -0.0537,0.115755 -0.0537,0.434081 v 0.322461 h 0.51677 v 0.173633 h -0.51677 v 1.608169 l 0.41961,0.06821 v 0.09302 h -1.05006 v -0.09302 l 0.28732,-0.06821 z"
         style="stroke-width:0.264583"
         id="path1419" />
      <path
         d="m 129.07895,85.255404 q 0.31833,0 0.46716,0.130224 0.15089,0.130225 0.15089,0.398942 v 1.31258 l 0.24185,0.05168 v 0.09302 h -0.5333 l -0.0393,-0.194303 q -0.23564,0.235644 -0.60151,0.235644 -0.49816,0 -0.49816,-0.578775 0,-0.194303 0.0744,-0.320394 0.0765,-0.128157 0.24185,-0.194303 0.16536,-0.06821 0.47956,-0.07441 l 0.29145,-0.0083 v -0.303857 q 0,-0.200505 -0.0744,-0.295589 -0.0724,-0.09509 -0.22531,-0.09509 -0.20671,0 -0.37827,0.09715 l -0.0703,0.241845 h -0.11576 v -0.423746 q 0.33486,-0.07235 0.58911,-0.07235 z m 0.27492,0.996321 -0.27078,0.0083 q -0.27699,0.01034 -0.37621,0.107487 -0.0971,0.09715 -0.0971,0.324527 0,0.363802 0.29559,0.363802 0.14056,0 0.24185,-0.03101 0.10335,-0.03307 0.2067,-0.08268 z"
         style="stroke-width:0.264583"
         id="path1421" />
      <path
         d="m 131.49121,86.696142 q 0,0.289387 -0.18397,0.438215 -0.1819,0.148828 -0.5395,0.148828 -0.14469,0 -0.32039,-0.03101 -0.17363,-0.02894 -0.27285,-0.06614 v -0.47749 h 0.093 l 0.10128,0.270784 q 0.15503,0.14056 0.40308,0.14056 0.40101,0 0.40101,-0.343131 0,-0.252181 -0.31626,-0.359668 l -0.18397,-0.05994 q -0.20877,-0.06821 -0.30386,-0.138492 -0.0951,-0.07028 -0.14676,-0.171566 -0.0517,-0.103353 -0.0517,-0.248047 0,-0.256314 0.17364,-0.403075 0.1757,-0.148828 0.47335,-0.148828 0.21291,0 0.5333,0.06408 v 0.423747 h -0.0971 l -0.0868,-0.225309 q -0.10956,-0.09715 -0.3452,-0.09715 -0.16743,0 -0.25632,0.08268 -0.0868,0.08268 -0.0868,0.223242 0,0.117822 0.0785,0.198438 0.0806,0.08062 0.24185,0.134358 0.30386,0.103353 0.39687,0.150895 0.093,0.04754 0.1571,0.117822 0.0661,0.06821 0.10129,0.157097 0.0372,0.08888 0.0372,0.219108 z"
         style="stroke-width:0.264583"
         id="path1423" />
      <path
         d="m 132.33457,87.283185 q -0.19844,0 -0.29766,-0.117822 -0.0971,-0.117822 -0.0971,-0.330729 v -1.362189 h -0.25425 v -0.09302 l 0.25838,-0.08062 0.20878,-0.440283 h 0.13022 v 0.440283 h 0.44442 v 0.173633 h -0.44442 v 1.324982 q 0,0.134359 0.0599,0.202572 0.062,0.06821 0.16123,0.06821 0.11989,0 0.29146,-0.03307 v 0.134358 q -0.0724,0.04961 -0.20877,0.08061 -0.13643,0.03307 -0.25218,0.03307 z"
         style="stroke-width:0.264583"
         id="path1425" />
      <path
         d="m 133.35776,86.264127 v 0.03721 q 0,0.285254 0.062,0.444417 0.0641,0.157096 0.1943,0.239778 0.1323,0.08268 0.3452,0.08268 0.11162,0 0.26459,-0.0186 0.15296,-0.0186 0.25218,-0.04134 v 0.115755 q -0.0992,0.06408 -0.27079,0.111621 -0.1695,0.04754 -0.34726,0.04754 -0.45269,0 -0.66353,-0.243912 -0.20877,-0.243913 -0.20877,-0.783414 0,-0.508496 0.21291,-0.75861 0.2129,-0.250113 0.60771,-0.250113 0.74621,0 0.74621,0.847492 v 0.169499 z m 0.44855,-0.851627 q -0.21497,0 -0.33073,0.173633 -0.11369,0.173632 -0.11369,0.512629 h 0.83096 q 0,-0.370002 -0.0951,-0.527099 -0.0951,-0.159163 -0.29146,-0.159163 z"
         style="stroke-width:0.264583"
         id="path1427" />
      <path
         d="m 136.0718,85.247136 v 0.525032 h -0.0889 l -0.11989,-0.227376 q -0.10335,0 -0.24598,0.02894 -0.14056,0.02687 -0.24391,0.07235 v 1.451073 l 0.33279,0.05168 v 0.09302 h -0.9219 v -0.09302 l 0.24598,-0.05168 v -1.653644 l -0.24598,-0.05168 v -0.09302 h 0.56637 l 0.0186,0.241845 q 0.12403,-0.103352 0.33487,-0.198437 0.2129,-0.09508 0.33693,-0.09508 z"
         style="stroke-width:0.264583"
         id="path1429" />
    </g>
  </g>
</svg>
