<?xml version="1.0" encoding="UTF-8" standalone="no"?>
<svg
   xmlns:dc="http://purl.org/dc/elements/1.1/"
   xmlns:cc="http://creativecommons.org/ns#"
   xmlns:rdf="http://www.w3.org/1999/02/22-rdf-syntax-ns#"
   xmlns:svg="http://www.w3.org/2000/svg"
   xmlns="http://www.w3.org/2000/svg"
   xmlns:sodipodi="http://sodipodi.sourceforge.net/DTD/sodipodi-0.dtd"
   xmlns:inkscape="http://www.inkscape.org/namespaces/inkscape"
   width="323.34616mm"
   height="289.52197mm"
   viewBox="0 0 323.34616 289.52197"
   version="1.1"
   id="svg8"
   inkscape:version="1.0.1 (3bc2e813f5, 2020-09-07)"
   sodipodi:docname="FluidLasercutBox.svg">
  <defs
     id="defs2">
    <inkscape:path-effect
       effect="ruler"
       id="path-effect1041"
       is_visible="true"
       lpeversion="1"
       unit="mm"
       mark_distance="20"
       mark_length="14"
       minor_mark_length="7"
       major_mark_steps="5"
       shift="0"
       offset="0"
       mark_dir="left"
       border_marks="both" />
    <inkscape:path-effect
       effect="skeletal"
       id="path-effect1037"
       is_visible="true"
       lpeversion="1"
       pattern="#rect839"
       copytype="repeated_stretched"
       prop_scale="1"
       scale_y_rel="false"
       spacing="0"
       normal_offset="1.6"
       tang_offset="0"
       prop_units="false"
       vertical_pattern="false"
       hide_knot="false"
       fuse_tolerance="0" />
    <inkscape:path-effect
       effect="skeletal"
       id="path-effect1035"
       is_visible="true"
       lpeversion="1"
       pattern="#rect839"
       copytype="repeated_stretched"
       prop_scale="1"
       scale_y_rel="false"
       spacing="0"
       normal_offset="1.6"
       tang_offset="0"
       prop_units="false"
       vertical_pattern="false"
       hide_knot="false"
       fuse_tolerance="0" />
    <inkscape:path-effect
       effect="skeletal"
       id="path-effect1033"
       is_visible="true"
       lpeversion="1"
       pattern="#rect839"
       copytype="repeated_stretched"
       prop_scale="1"
       scale_y_rel="false"
       spacing="0"
       normal_offset="1.6"
       tang_offset="0"
       prop_units="false"
       vertical_pattern="false"
       hide_knot="false"
       fuse_tolerance="0" />
    <inkscape:path-effect
       effect="skeletal"
       id="path-effect1031"
       is_visible="true"
       lpeversion="1"
       pattern="#rect839"
       copytype="repeated_stretched"
       prop_scale="1"
       scale_y_rel="false"
       spacing="0"
       normal_offset="1.6"
       tang_offset="0"
       prop_units="false"
       vertical_pattern="false"
       hide_knot="false"
       fuse_tolerance="0" />
    <inkscape:path-effect
       effect="skeletal"
       id="path-effect1029"
       is_visible="true"
       lpeversion="1"
       pattern="#rect839"
       copytype="repeated_stretched"
       prop_scale="1"
       scale_y_rel="false"
       spacing="0"
       normal_offset="1.6"
       tang_offset="0"
       prop_units="false"
       vertical_pattern="false"
       hide_knot="false"
       fuse_tolerance="0" />
    <inkscape:path-effect
       effect="skeletal"
       id="path-effect990"
       is_visible="true"
       lpeversion="1"
       pattern="#rect839"
       copytype="repeated_stretched"
       prop_scale="1"
       scale_y_rel="false"
       spacing="0"
       normal_offset="1.6"
       tang_offset="0"
       prop_units="false"
       vertical_pattern="false"
       hide_knot="false"
       fuse_tolerance="0" />
    <inkscape:path-effect
       effect="skeletal"
       id="path-effect988"
       is_visible="true"
       lpeversion="1"
       pattern="#rect839"
       copytype="repeated_stretched"
       prop_scale="1"
       scale_y_rel="false"
       spacing="0"
       normal_offset="1.6"
       tang_offset="0"
       prop_units="false"
       vertical_pattern="false"
       hide_knot="false"
       fuse_tolerance="0" />
    <inkscape:path-effect
       effect="skeletal"
       id="path-effect986"
       is_visible="true"
       lpeversion="1"
       pattern="#rect839"
       copytype="repeated_stretched"
       prop_scale="1"
       scale_y_rel="false"
       spacing="0"
       normal_offset="1.6"
       tang_offset="0"
       prop_units="false"
       vertical_pattern="false"
       hide_knot="false"
       fuse_tolerance="0" />
    <inkscape:path-effect
       effect="skeletal"
       id="path-effect984"
       is_visible="true"
       lpeversion="1"
       pattern="#rect839"
       copytype="repeated_stretched"
       prop_scale="1"
       scale_y_rel="false"
       spacing="0"
       normal_offset="1.6"
       tang_offset="0"
       prop_units="false"
       vertical_pattern="false"
       hide_knot="false"
       fuse_tolerance="0" />
    <inkscape:path-effect
       effect="skeletal"
       id="path-effect950"
       is_visible="true"
       lpeversion="1"
       pattern="#rect839"
       copytype="repeated_stretched"
       prop_scale="1"
       scale_y_rel="false"
       spacing="0"
       normal_offset="1.6"
       tang_offset="0"
       prop_units="false"
       vertical_pattern="false"
       hide_knot="false"
       fuse_tolerance="0" />
    <inkscape:path-effect
       effect="skeletal"
       id="path-effect948"
       is_visible="true"
       lpeversion="1"
       pattern="#rect839"
       copytype="repeated_stretched"
       prop_scale="1"
       scale_y_rel="false"
       spacing="0"
       normal_offset="1.6"
       tang_offset="0"
       prop_units="false"
       vertical_pattern="false"
       hide_knot="false"
       fuse_tolerance="0" />
    <inkscape:path-effect
       effect="skeletal"
       id="path-effect946"
       is_visible="true"
       lpeversion="1"
       pattern="#rect839"
       copytype="repeated_stretched"
       prop_scale="1"
       scale_y_rel="false"
       spacing="0"
       normal_offset="1.6"
       tang_offset="0"
       prop_units="false"
       vertical_pattern="false"
       hide_knot="false"
       fuse_tolerance="0" />
    <inkscape:path-effect
       effect="skeletal"
       id="path-effect944"
       is_visible="true"
       lpeversion="1"
       pattern="#rect839"
       copytype="repeated_stretched"
       prop_scale="1"
       scale_y_rel="false"
       spacing="0"
       normal_offset="1.6"
       tang_offset="0"
       prop_units="false"
       vertical_pattern="false"
       hide_knot="false"
       fuse_tolerance="0" />
    <inkscape:path-effect
       effect="skeletal"
       id="path-effect910"
       is_visible="true"
       lpeversion="1"
       pattern="#rect839"
       copytype="repeated_stretched"
       prop_scale="1"
       scale_y_rel="false"
       spacing="0"
       normal_offset="1.6"
       tang_offset="0"
       prop_units="false"
       vertical_pattern="false"
       hide_knot="false"
       fuse_tolerance="0" />
    <inkscape:path-effect
       effect="skeletal"
       id="path-effect908"
       is_visible="true"
       lpeversion="1"
       pattern="#rect839"
       copytype="repeated_stretched"
       prop_scale="1"
       scale_y_rel="false"
       spacing="0"
       normal_offset="1.6"
       tang_offset="0"
       prop_units="false"
       vertical_pattern="false"
       hide_knot="false"
       fuse_tolerance="0" />
    <inkscape:path-effect
       effect="skeletal"
       id="path-effect906"
       is_visible="true"
       lpeversion="1"
       pattern="#rect839"
       copytype="repeated_stretched"
       prop_scale="1"
       scale_y_rel="false"
       spacing="0"
       normal_offset="1.6"
       tang_offset="0"
       prop_units="false"
       vertical_pattern="false"
       hide_knot="false"
       fuse_tolerance="0" />
    <inkscape:path-effect
       effect="skeletal"
       id="path-effect904"
       is_visible="true"
       lpeversion="1"
       pattern="#rect839"
       copytype="repeated_stretched"
       prop_scale="1"
       scale_y_rel="false"
       spacing="0"
       normal_offset="1.6"
       tang_offset="0"
       prop_units="false"
       vertical_pattern="false"
       hide_knot="false"
       fuse_tolerance="0" />
    <inkscape:path-effect
       effect="copy_rotate"
       starting_point="179.58131,156.15492"
       origin="161.84263,148.48014"
       id="path-effect877"
       is_visible="true"
       lpeversion="1"
       method="normal"
       num_copies="6"
       starting_angle="-23.488387"
       rotation_angle="60"
       gap="-0.01"
       copies_to_360="true"
       mirror_copies="false"
       split_items="false" />
    <inkscape:path-effect
       effect="skeletal"
       id="path-effect873"
       is_visible="true"
       lpeversion="1"
       pattern="#rect839"
       copytype="repeated_stretched"
       prop_scale="1"
       scale_y_rel="false"
       spacing="0"
       normal_offset="1.6"
       tang_offset="0"
       prop_units="false"
       vertical_pattern="false"
       hide_knot="false"
       fuse_tolerance="0" />
    <inkscape:path-effect
       effect="skeletal"
       id="path-effect869"
       is_visible="true"
       lpeversion="1"
       pattern="#rect839"
       copytype="repeated_stretched"
       prop_scale="1"
       scale_y_rel="false"
       spacing="0"
       normal_offset="1.6"
       tang_offset="0"
       prop_units="false"
       vertical_pattern="false"
       hide_knot="false"
       fuse_tolerance="0" />
    <inkscape:path-effect
       effect="skeletal"
       id="path-effect865"
       is_visible="true"
       lpeversion="1"
       pattern="#rect839"
       copytype="repeated_stretched"
       prop_scale="1"
       scale_y_rel="false"
       spacing="0"
       normal_offset="1.6"
       tang_offset="0"
       prop_units="false"
       vertical_pattern="false"
       hide_knot="false"
       fuse_tolerance="0" />
    <inkscape:path-effect
       effect="skeletal"
       id="path-effect860"
       is_visible="true"
       lpeversion="1"
       pattern="#rect839"
       copytype="repeated_stretched"
       prop_scale="1"
       scale_y_rel="false"
       spacing="0"
       normal_offset="1.6"
       tang_offset="0"
       prop_units="false"
       vertical_pattern="false"
       hide_knot="false"
       fuse_tolerance="0" />
    <inkscape:path-effect
       effect="skeletal"
       id="path-effect1127"
       is_visible="true"
       lpeversion="1"
       pattern="#rect839"
       copytype="repeated_stretched"
       prop_scale="1"
       scale_y_rel="false"
       spacing="0"
       normal_offset="1.6"
       tang_offset="0"
       prop_units="false"
       vertical_pattern="false"
       hide_knot="false"
       fuse_tolerance="0" />
    <inkscape:path-effect
       effect="skeletal"
       id="path-effect1123"
       is_visible="true"
       lpeversion="1"
       pattern="#rect839"
       copytype="repeated_stretched"
       prop_scale="1"
       scale_y_rel="false"
       spacing="0"
       normal_offset="1.6"
       tang_offset="0"
       prop_units="false"
       vertical_pattern="false"
       hide_knot="false"
       fuse_tolerance="0" />
    <inkscape:path-effect
       effect="skeletal"
       id="path-effect1119"
       is_visible="true"
       lpeversion="1"
       pattern="#rect839"
       copytype="repeated_stretched"
       prop_scale="1"
       scale_y_rel="false"
       spacing="0"
       normal_offset="1.6"
       tang_offset="0"
       prop_units="false"
       vertical_pattern="false"
       hide_knot="false"
       fuse_tolerance="0" />
    <inkscape:path-effect
       effect="skeletal"
       id="path-effect1115"
       is_visible="true"
       lpeversion="1"
       pattern="#rect839"
       copytype="repeated_stretched"
       prop_scale="1"
       scale_y_rel="false"
       spacing="0"
       normal_offset="1.6"
       tang_offset="0"
       prop_units="false"
       vertical_pattern="false"
       hide_knot="false"
       fuse_tolerance="0" />
    <inkscape:path-effect
       effect="skeletal"
       id="path-effect1088"
       is_visible="true"
       lpeversion="1"
       pattern="#rect839"
       copytype="repeated_stretched"
       prop_scale="1"
       scale_y_rel="false"
       spacing="0"
       normal_offset="0"
       tang_offset="0"
       prop_units="false"
       vertical_pattern="false"
       hide_knot="false"
       fuse_tolerance="0" />
    <inkscape:path-effect
       effect="skeletal"
       id="path-effect1083"
       is_visible="true"
       lpeversion="1"
       pattern="#rect839"
       copytype="repeated_stretched"
       prop_scale="1"
       scale_y_rel="false"
       spacing="0"
       normal_offset="0"
       tang_offset="0"
       prop_units="false"
       vertical_pattern="false"
       hide_knot="false"
       fuse_tolerance="0" />
    <inkscape:path-effect
       effect="skeletal"
       id="path-effect1074"
       is_visible="true"
       lpeversion="1"
       pattern="#rect839"
       copytype="repeated_stretched"
       prop_scale="1"
       scale_y_rel="false"
       spacing="0"
       normal_offset="0"
       tang_offset="0"
       prop_units="false"
       vertical_pattern="false"
       hide_knot="false"
       fuse_tolerance="0" />
    <inkscape:path-effect
       effect="skeletal"
       id="path-effect1061"
       is_visible="true"
       lpeversion="1"
       pattern="#rect839"
       copytype="repeated_stretched"
       prop_scale="1"
       scale_y_rel="false"
       spacing="0"
       normal_offset="0"
       tang_offset="0"
       prop_units="false"
       vertical_pattern="false"
       hide_knot="false"
       fuse_tolerance="0" />
    <inkscape:path-effect
       effect="skeletal"
       id="path-effect1059"
       is_visible="true"
       lpeversion="1"
       pattern="#rect839"
       copytype="repeated_stretched"
       prop_scale="1"
       scale_y_rel="false"
       spacing="0"
       normal_offset="0"
       tang_offset="0"
       prop_units="false"
       vertical_pattern="false"
       hide_knot="false"
       fuse_tolerance="0" />
    <inkscape:path-effect
       effect="skeletal"
       id="path-effect1057"
       is_visible="true"
       lpeversion="1"
       pattern="#rect839"
       copytype="repeated_stretched"
       prop_scale="1"
       scale_y_rel="false"
       spacing="0"
       normal_offset="0"
       tang_offset="0"
       prop_units="false"
       vertical_pattern="false"
       hide_knot="false"
       fuse_tolerance="0" />
    <inkscape:path-effect
       effect="skeletal"
       id="path-effect1055"
       is_visible="true"
       lpeversion="1"
       pattern="#rect839"
       copytype="repeated_stretched"
       prop_scale="1"
       scale_y_rel="false"
       spacing="0"
       normal_offset="0"
       tang_offset="0"
       prop_units="false"
       vertical_pattern="false"
       hide_knot="false"
       fuse_tolerance="0" />
    <inkscape:path-effect
       effect="skeletal"
       id="path-effect1021"
       is_visible="true"
       lpeversion="1"
       pattern="#rect839"
       copytype="repeated_stretched"
       prop_scale="1"
       scale_y_rel="false"
       spacing="0"
       normal_offset="0"
       tang_offset="0"
       prop_units="false"
       vertical_pattern="false"
       hide_knot="false"
       fuse_tolerance="0" />
    <inkscape:path-effect
       effect="skeletal"
       id="path-effect1017"
       is_visible="true"
       lpeversion="1"
       pattern="#rect839"
       copytype="repeated_stretched"
       prop_scale="1"
       scale_y_rel="false"
       spacing="0"
       normal_offset="0"
       tang_offset="0"
       prop_units="false"
       vertical_pattern="false"
       hide_knot="false"
       fuse_tolerance="0" />
    <inkscape:path-effect
       effect="skeletal"
       id="path-effect1013"
       is_visible="true"
       lpeversion="1"
       pattern="#rect839"
       copytype="repeated_stretched"
       prop_scale="1"
       scale_y_rel="false"
       spacing="0"
       normal_offset="0"
       tang_offset="0"
       prop_units="false"
       vertical_pattern="false"
       hide_knot="false"
       fuse_tolerance="0" />
    <inkscape:path-effect
       effect="skeletal"
       id="path-effect1009"
       is_visible="true"
       lpeversion="1"
       pattern="#rect839"
       copytype="repeated_stretched"
       prop_scale="1"
       scale_y_rel="false"
       spacing="0"
       normal_offset="0"
       tang_offset="0"
       prop_units="false"
       vertical_pattern="false"
       hide_knot="false"
       fuse_tolerance="0" />
    <inkscape:path-effect
       effect="skeletal"
       id="path-effect954"
       is_visible="true"
       lpeversion="1"
       pattern="#rect839"
       copytype="repeated_stretched"
       prop_scale="1"
       scale_y_rel="false"
       spacing="0"
       normal_offset="1.6"
       tang_offset="0"
       prop_units="false"
       vertical_pattern="false"
       hide_knot="false"
       fuse_tolerance="0" />
    <inkscape:path-effect
       effect="skeletal"
       id="path-effect931"
       is_visible="true"
       lpeversion="1"
       pattern="M 0,0 H 1"
       copytype="repeated_stretched"
       prop_scale="1"
       scale_y_rel="false"
       spacing="0"
       normal_offset="0"
       tang_offset="0"
       prop_units="false"
       vertical_pattern="false"
       hide_knot="false"
       fuse_tolerance="0" />
    <inkscape:path-effect
       effect="skeletal"
       id="path-effect896"
       is_visible="true"
       lpeversion="1"
       pattern="#rect839"
       copytype="single_stretched"
       prop_scale="1"
       scale_y_rel="false"
       spacing="0"
       normal_offset="0"
       tang_offset="0"
       prop_units="false"
       vertical_pattern="false"
       hide_knot="false"
       fuse_tolerance="0" />
    <inkscape:path-effect
       effect="skeletal"
       id="path-effect880"
       is_visible="true"
       lpeversion="1"
       pattern="#path849"
       copytype="repeated_stretched"
       prop_scale="1"
       scale_y_rel="false"
       spacing="0"
       normal_offset="0"
       tang_offset="0"
       prop_units="false"
       vertical_pattern="false"
       hide_knot="false"
       fuse_tolerance="0" />
    <inkscape:path-effect
       effect="skeletal"
       id="path-effect864"
       is_visible="true"
       lpeversion="1"
       pattern="M 0,0 H 1"
       copytype="single_stretched"
       prop_scale="1"
       scale_y_rel="false"
       spacing="0"
       normal_offset="0"
       tang_offset="0"
       prop_units="false"
       vertical_pattern="false"
       hide_knot="false"
       fuse_tolerance="0" />
  </defs>
  <sodipodi:namedview
     id="base"
     pagecolor="#ffffff"
     bordercolor="#666666"
     borderopacity="1.0"
     inkscape:pageopacity="0.0"
     inkscape:pageshadow="2"
     inkscape:zoom="0.52099266"
     inkscape:cx="744.63892"
     inkscape:cy="499.78963"
     inkscape:document-units="mm"
     inkscape:current-layer="layer1"
     inkscape:document-rotation="0"
     showgrid="false"
     fit-margin-top="0"
     fit-margin-left="0"
     fit-margin-right="0"
     fit-margin-bottom="0"
     inkscape:pagecheckerboard="true" />
  <metadata
     id="metadata5">
    <rdf:RDF>
      <cc:Work
         rdf:about="">
        <dc:format>image/svg+xml</dc:format>
        <dc:type
           rdf:resource="http://purl.org/dc/dcmitype/StillImage" />
        <dc:title></dc:title>
      </cc:Work>
    </rdf:RDF>
  </metadata>
  <g
     inkscape:groupmode="layer"
     id="layer2"
     inkscape:label="Primitives"
     sodipodi:insensitive="true"
     style="display:none"
     transform="translate(52.253988,77.422087)">
    <path
       id="rect839"
       style="fill:none;stroke:#000000;stroke-width:0.2;stroke-linecap:butt;stroke-linejoin:miter;stroke-miterlimit:4;stroke-dasharray:none"
       d="m 25.787056,10.121346 h 4.999696 v 3.200321 h 10.000422 v -3.200321 h 4.999694"
       sodipodi:nodetypes="cccccc" />
    <path
       id="path849"
       style="fill:none;stroke:#000000;stroke-width:0.2;stroke-linecap:butt;stroke-linejoin:miter;stroke-miterlimit:4;stroke-dasharray:none"
       d="m 25.787056,15.413013 h 5.528863 V 18.613 H 25.787 m 20,0 h -5.528993 v -3.199987 h 5.528861"
       sodipodi:nodetypes="cccccccc" />
    <path
       style="fill:none;stroke:#000000;stroke-width:0.2;stroke-linecap:butt;stroke-linejoin:miter;stroke-miterlimit:4;stroke-dasharray:none;stroke-opacity:1"
       d="M 80.404681,4.6237803 V 10.199252 H 77.204695 V 4.6237238 m 0,20.1686002 v -5.575603 h 3.199986 v 5.57547 5.575661 h -3.199986 z m 0,20.1686 v -5.575603 h 3.199986 v 5.57547 5.575661 h -3.199986 z m 0,20.1686 v -5.575603 h 3.199986 v 5.57547 5.575661 h -3.199986 z m 0,20.1686 v -5.575603 h 3.199986 v 5.57547 5.575661 h -3.199986 z m 0,20.168596 v -5.575599 h 3.199986 v 5.575469 5.57566 h -3.199986 z m 0,20.1686 v -5.5756 h 3.199986 v 5.57547 5.57566 h -3.199986 z m 0,20.1686 v -5.5756 h 3.199986 v 5.57547"
       id="path851"
       inkscape:path-effect="#path-effect880"
       inkscape:original-d="M 78.804688,4.6237238 V 145.80387" />
    <path
       style="fill:none;stroke:#000000;stroke-width:0.2;stroke-linecap:butt;stroke-linejoin:miter;stroke-miterlimit:4;stroke-dasharray:none;stroke-opacity:1"
       d="M 74.54636,4.8308037 V 9.8606029 H 71.34604 V 19.921237 h 3.20032 v 5.029798 5.029799 h -3.20032 v 10.060634 h 3.20032 v 5.029797 5.0298 h -3.20032 v 10.060634 h 3.20032 v 5.029797 5.029799 H 71.34604 V 80.28193 h 3.20032 v 5.029797 5.029799 h -3.20032 v 10.060634 h 3.20032 v 5.0298 5.0298 h -3.20032 v 10.06063 h 3.20032 v 5.0298 5.0298 h -3.20032 v 10.06063 h 3.20032 v 5.0298"
       id="path952"
       inkscape:path-effect="#path-effect954"
       inkscape:original-d="M 74.5462,4.8308037 V 145.67232" />
  </g>
  <g
     inkscape:label="FluidBox"
     inkscape:groupmode="layer"
     id="layer1"
     transform="translate(52.253988,77.422087)">
    <path
       style="fill:none;stroke:#000000;stroke-width:0.52916667;stroke-linecap:butt;stroke-linejoin:miter;stroke-miterlimit:4;stroke-dasharray:none;stroke-opacity:1"
       d="m 28.896562,19.829236 v 5.883307 H 25.696241 V 37.48037 h 3.200321 v 5.883305 l 1e-6,5.883307 h -3.200322 v 11.767827 h 3.200322 l -1e-6,5.883305 v 5.883307 h -3.200321 v 11.767826 h 3.200321 v 5.883305 5.883308 h -3.200321 v 11.76783 h 3.200321 v 5.8833"
       id="path1113"
       inkscape:original-d="M 28.896402,19.829236 V 113.96699"
       inkscape:path-effect="#path-effect1115" />
    <path
       style="fill:none;stroke:#000000;stroke-width:0.52916667;stroke-linecap:butt;stroke-linejoin:miter;stroke-miterlimit:4;stroke-dasharray:none;stroke-opacity:1"
       d="m 106.29522,113.96713 v -5.88331 h 3.20032 V 96.315981 h -3.20032 v -5.88331 -5.883312 h 3.20032 V 72.781522 h -3.20032 V 66.898212 61.0149 h 3.20032 V 49.247064 h -3.20032 v -5.88331 -5.883313 h 3.20032 V 25.712605 h -3.20032 v -5.88331"
       id="path1117"
       inkscape:original-d="M 106.29538,113.96713 V 19.829361"
       inkscape:path-effect="#path-effect1119" />
    <path
       style="fill:none;stroke:#000000;stroke-width:0.52916667;stroke-linecap:butt;stroke-linejoin:miter;stroke-miterlimit:4;stroke-dasharray:none;stroke-opacity:1"
       d="m 106.29514,19.829302 -6.449543,8e-6 -4e-6,-3.200321 -12.900414,1.6e-5 4e-6,3.200321 -6.44954,8e-6 -6.449543,8e-6 -4e-6,-3.200321 -12.900415,1.5e-5 4e-6,3.200321 -6.44954,8e-6 -6.449543,8e-6 -4e-6,-3.200321 -12.900414,1.6e-5 4e-6,3.200321 -6.44954,8e-6"
       id="path1121"
       sodipodi:nodetypes="cc"
       inkscape:original-d="m 106.29514,19.829142 -77.398468,9.4e-5"
       inkscape:path-effect="#path-effect1123" />
    <path
       style="fill:none;stroke:#000000;stroke-width:0.52916667;stroke-linecap:butt;stroke-linejoin:miter;stroke-miterlimit:4;stroke-dasharray:none;stroke-opacity:1"
       d="m 28.896562,113.96718 6.449548,-1e-5 4e-6,3.20032 12.900424,-1e-5 -4e-6,-3.20033 6.449545,0 6.449548,-1e-5 4e-6,3.20032 12.900425,-2e-5 -4e-6,-3.20032 6.449545,-10e-6 6.449548,-1e-5 4e-6,3.20033 12.900424,-2e-5 -4e-6,-3.20032 6.449541,-1e-5"
       id="path1125"
       sodipodi:nodetypes="cc"
       inkscape:original-d="m 28.896562,113.96734 77.398538,-10e-5"
       inkscape:path-effect="#path-effect1127" />
    <path
       style="fill:none;stroke:#000000;stroke-width:0.52916667;stroke-linecap:butt;stroke-linejoin:miter;stroke-miterlimit:4;stroke-dasharray:none;stroke-opacity:1"
       d="m 109.78394,113.96713 v -5.88331 h 3.20032 V 96.315981 h -3.20032 v -5.88331 -5.883312 h 3.20032 V 72.781522 h -3.20032 V 66.898212 61.0149 h 3.20032 V 49.247064 h -3.20032 v -5.88331 -5.883313 h 3.20032 V 25.712605 h -3.20032 v -5.88331"
       id="path858"
       inkscape:original-d="M 109.7841,113.96713 V 19.829361"
       inkscape:path-effect="#path-effect860" />
    <path
       style="fill:none;stroke:#000000;stroke-width:0.52916667;stroke-linecap:butt;stroke-linejoin:miter;stroke-miterlimit:4;stroke-dasharray:none;stroke-opacity:1"
       d="m 109.78387,19.829369 6.44955,-1.1e-5 1e-5,3.200321 12.90043,-2.3e-5 0,-3.200321 6.44955,-1.1e-5 6.44955,-1.2e-5 1e-5,3.200321 12.90043,-2.2e-5 -1e-5,-3.200321 6.44955,-1.2e-5 6.44956,-1.1e-5 0,3.200321 12.90044,-2.3e-5 -1e-5,-3.200321 6.44955,-1.2e-5"
       id="path862"
       sodipodi:nodetypes="cc"
       inkscape:original-d="m 109.78387,19.82953 77.39857,-1.37e-4"
       inkscape:path-effect="#path-effect865" />
    <path
       style="fill:none;stroke:#000000;stroke-width:0.52916667;stroke-linecap:butt;stroke-linejoin:miter;stroke-miterlimit:4;stroke-dasharray:none;stroke-opacity:1"
       d="m 187.18241,113.96698 -6.44955,10e-6 0,-3.20032 -12.90043,2e-5 1e-5,3.20032 -6.44955,1e-5 -6.44955,10e-6 0,-3.20032 -12.90042,1e-5 0,3.20032 -6.44954,1e-5 -6.44955,1e-5 -1e-5,-3.20032 -12.90042,2e-5 0,3.20032 -6.44954,1e-5"
       id="path867"
       sodipodi:nodetypes="cc"
       inkscape:original-d="m 187.18241,113.96682 -77.39854,1.1e-4"
       inkscape:path-effect="#path-effect869" />
    <path
       style="fill:none;stroke:#000000;stroke-width:0.52916667;stroke-linecap:butt;stroke-linejoin:miter;stroke-miterlimit:4;stroke-dasharray:none;stroke-opacity:1"
       d="M 187.18232,19.829203 V 25.71251 H 183.982 v 11.767827 h 3.20032 v 5.883305 5.883307 H 183.982 v 11.767827 h 3.20032 v 5.883305 5.883307 H 183.982 v 11.767826 h 3.20032 v 5.883305 5.883308 H 183.982 v 11.767823 h 3.20032 v 5.88331"
       id="path871"
       inkscape:original-d="M 187.18216,19.829203 V 113.96695"
       inkscape:path-effect="#path-effect873" />
    <path
       style="fill:none;stroke:#000000;stroke-width:0.52916667;stroke-linecap:butt;stroke-linejoin:miter;stroke-miterlimit:4;stroke-dasharray:none;stroke-opacity:1"
       d="m 28.828679,16.776585 v -5.883312 h 3.200322 V -0.87456385 H 28.828679 V -6.7578738 -12.641186 h 3.200322 v -11.767837 h -3.200322 v -5.88331 -5.883312 h 3.200322 v -11.767836 h -3.200322 v -5.88331 -5.883313 h 3.200322 V -71.47794 h -3.200322 v -5.88331"
       id="path858-3"
       inkscape:original-d="M 28.82884,16.776585 V -77.361184"
       inkscape:path-effect="#path-effect910" />
    <path
       style="fill:none;stroke:#000000;stroke-width:0.52916667;stroke-linecap:butt;stroke-linejoin:miter;stroke-miterlimit:4;stroke-dasharray:none;stroke-opacity:1"
       d="m 28.82861,-77.361175 6.449548,-1.2e-5 6e-6,3.200321 12.900424,-2.3e-5 -6e-6,-3.200321 6.449545,-1.1e-5 6.449548,-1.2e-5 6e-6,3.200321 12.900424,-2.2e-5 -5e-6,-3.200321 6.449545,-1.2e-5 6.449548,-1.1e-5 5e-6,3.200321 12.900425,-2.3e-5 -6e-6,-3.200321 6.449543,-1.2e-5"
       id="path862-6"
       sodipodi:nodetypes="cc"
       inkscape:original-d="m 28.82861,-77.361015 77.39854,-1.37e-4"
       inkscape:path-effect="#path-effect908" />
    <path
       style="fill:none;stroke:#000000;stroke-width:0.52916667;stroke-linecap:butt;stroke-linejoin:miter;stroke-miterlimit:4;stroke-dasharray:none;stroke-opacity:1"
       d="m 106.22712,16.776436 -6.449548,10e-6 -4e-6,-3.200321 -12.900425,1.8e-5 5e-6,3.200321 -6.449545,10e-6 -6.449548,9e-6 -5e-6,-3.200321 -12.900424,1.8e-5 4e-6,3.200321 -6.449545,10e-6 -6.449548,9e-6 -4e-6,-3.200321 -12.900425,1.8e-5 5e-6,3.200321 -6.449545,10e-6"
       id="path867-7"
       sodipodi:nodetypes="cc"
       inkscape:original-d="m 106.22712,16.776276 -77.39851,1.11e-4"
       inkscape:path-effect="#path-effect906" />
    <path
       style="fill:none;stroke:#000000;stroke-width:0.52916667;stroke-linecap:butt;stroke-linejoin:miter;stroke-miterlimit:4;stroke-dasharray:none;stroke-opacity:1"
       d="m 106.22703,-77.361342 v 5.883307 h -3.20032 v 11.767827 h 3.20032 v 5.883305 l 0,5.883307 h -3.20032 l 0,11.767827 h 3.20032 v 5.883305 5.883307 h -3.20032 v 11.767826 h 3.20032 v 5.8833053 5.8833073 h -3.20032 V 10.893108 h 3.20032 v 5.883305"
       id="path871-5"
       inkscape:original-d="M 106.22687,-77.361342 V 16.776406"
       inkscape:path-effect="#path-effect904" />
    <path
       style="fill:none;stroke:#000000;stroke-width:0.52916667;stroke-linecap:butt;stroke-linejoin:miter;stroke-miterlimit:4;stroke-dasharray:none;stroke-opacity:1"
       d="m 28.828694,212.03915 0,-5.88331 h 3.200321 l 10e-7,-11.76784 h -3.200321 l -1e-6,-5.88331 0,-5.88331 h 3.200321 l 10e-7,-11.76784 h -3.200321 l -1e-6,-5.88331 v -5.88331 h 3.200321 v -11.76784 h -3.200321 v -5.88331 -5.88331 h 3.200321 v -11.76784 h -3.200321 v -5.88331"
       id="path858-3-3"
       inkscape:original-d="M 28.828855,212.03915 V 117.90133"
       inkscape:path-effect="#path-effect950" />
    <path
       style="fill:none;stroke:#000000;stroke-width:0.52916667;stroke-linecap:butt;stroke-linejoin:miter;stroke-miterlimit:4;stroke-dasharray:none;stroke-opacity:1"
       d="m 28.828625,117.90134 6.449548,-1e-5 6e-6,3.20032 12.900424,-2e-5 -6e-6,-3.20033 6.449545,-1e-5 6.449548,-1e-5 6e-6,3.20032 12.900424,-2e-5 -5e-6,-3.20032 6.449545,-10e-6 6.449548,-2e-5 6e-6,3.20033 12.900424,-3e-5 -6e-6,-3.20032 6.449548,-1e-5"
       id="path862-6-5"
       sodipodi:nodetypes="cc"
       inkscape:original-d="m 28.828625,117.9015 77.398515,-1.4e-4"
       inkscape:path-effect="#path-effect948" />
    <path
       style="fill:none;stroke:#000000;stroke-width:0.52916667;stroke-linecap:butt;stroke-linejoin:miter;stroke-miterlimit:4;stroke-dasharray:none;stroke-opacity:1"
       d="m 106.22711,212.03901 -6.449543,1e-5 -4e-6,-3.20032 -12.900415,2e-5 5e-6,3.20032 -6.44954,1e-5 -6.449543,1e-5 -5e-6,-3.20032 -12.900414,1e-5 4e-6,3.20032 -6.44954,1e-5 -6.449543,10e-6 -4e-6,-3.20032 -12.900415,2e-5 5e-6,3.20032 -6.44954,1e-5"
       id="path867-7-6"
       sodipodi:nodetypes="cc"
       inkscape:original-d="m 106.22711,212.03885 -77.398485,1.1e-4"
       inkscape:path-effect="#path-effect946" />
    <path
       style="fill:none;stroke:#000000;stroke-width:0.52916667;stroke-linecap:butt;stroke-linejoin:miter;stroke-miterlimit:4;stroke-dasharray:none;stroke-opacity:1"
       d="m 106.22702,117.90117 v 5.88331 h -3.20032 v 11.76784 h 3.20032 v 5.88331 5.88331 h -3.20032 v 11.76784 h 3.20032 v 5.88331 5.88331 h -3.20032 v 11.76784 h 3.20032 v 5.88331 5.88331 h -3.20032 v 11.76784 h 3.20032 v 5.88331"
       id="path871-5-2"
       inkscape:original-d="m 106.22686,117.90117 v 94.1378"
       inkscape:path-effect="#path-effect944" />
    <path
       style="fill:none;stroke:#000000;stroke-width:0.52916667;stroke-linecap:butt;stroke-linejoin:miter;stroke-miterlimit:4;stroke-dasharray:none;stroke-opacity:1"
       d="m -52.143442,113.99385 v -5.88331 h 3.200321 V 96.342701 h -3.200321 v -5.88331 -5.883312 h 3.200321 V 72.808242 h -3.200321 v -5.88331 -5.883312 h 3.200321 V 49.273784 h -3.200321 v -5.88331 -5.883313 h 3.200321 V 25.739325 h -3.200321 v -5.88331"
       id="path858-3-3-9"
       inkscape:original-d="M -52.143282,113.99385 V 19.856073"
       inkscape:path-effect="#path-effect990" />
    <path
       style="fill:none;stroke:#000000;stroke-width:0.52916667;stroke-linecap:butt;stroke-linejoin:miter;stroke-miterlimit:4;stroke-dasharray:none;stroke-opacity:1"
       d="m -52.143512,19.856082 6.449543,-1.1e-5 6e-6,3.200321 12.900414,-2.4e-5 -6e-6,-3.200321 6.44954,-1.1e-5 6.449543,-1.2e-5 6e-6,3.200321 12.9004145,-2.3e-5 -5.8e-6,-3.200321 6.44954026,-1.2e-5 6.44954284,-1.1e-5 5.8e-6,3.200321 12.9004144,-2.4e-5 -6e-6,-3.200321 6.44954,-1.2e-5"
       id="path862-6-5-1"
       sodipodi:nodetypes="cc"
       inkscape:original-d="m -52.143512,19.856243 77.398471,-1.4e-4"
       inkscape:path-effect="#path-effect988" />
    <path
       style="fill:none;stroke:#000000;stroke-width:0.52916667;stroke-linecap:butt;stroke-linejoin:miter;stroke-miterlimit:4;stroke-dasharray:none;stroke-opacity:1"
       d="m 25.254929,113.99371 -6.449543,1e-5 -4e-6,-3.20032 -12.9004148,2e-5 4.6e-6,3.20032 -6.44954028,1e-5 -6.44954282,10e-6 -4.6e-6,-3.20032 -12.9004141,1e-5 4e-6,3.20032 -6.44954,1e-5 -6.449543,1e-5 -4e-6,-3.20032 -12.900415,2e-5 5e-6,3.20032 -6.44954,1e-5"
       id="path867-7-6-2"
       sodipodi:nodetypes="cc"
       inkscape:original-d="m 25.254929,113.99355 -77.398441,1.1e-4"
       inkscape:path-effect="#path-effect986" />
    <path
       style="fill:none;stroke:#000000;stroke-width:0.52916667;stroke-linecap:butt;stroke-linejoin:miter;stroke-miterlimit:4;stroke-dasharray:none;stroke-opacity:1"
       d="m 25.254849,19.855913 v 5.883312 h -3.200321 v 11.767837 h 3.200321 v 5.88331 5.883312 h -3.200321 v 11.767837 h 3.200321 v 5.88331 5.883312 h -3.200321 v 11.767836 h 3.200321 v 5.88331 5.883313 h -3.200321 v 11.767838 h 3.200321 v 5.88331"
       id="path871-5-2-7"
       inkscape:original-d="M 25.254689,19.855913 V 113.99367"
       inkscape:path-effect="#path-effect984" />
    <path
       style="fill:none;stroke:#000000;stroke-width:0.52916667;stroke-linecap:butt;stroke-linejoin:miter;stroke-miterlimit:4;stroke-dasharray:none;stroke-opacity:1"
       d="m 190.38264,19.829203 v 5.883312 h -3.20032 v 11.767837 h 3.20032 v 5.88331 5.883312 h -3.20032 v 11.767837 h 3.20032 v 5.88331 5.883312 h -3.20032 v 11.767836 h 3.20032 v 5.88331 5.883313 h -3.20032 v 11.767838 h 3.20032 v 5.88331"
       id="path1113-0"
       inkscape:original-d="M 190.38248,19.829203 V 113.96696"
       inkscape:path-effect="#path-effect1037" />
    <path
       style="fill:none;stroke:#000000;stroke-width:0.52916667;stroke-linecap:butt;stroke-linejoin:miter;stroke-miterlimit:4;stroke-dasharray:none;stroke-opacity:1"
       d="m 267.7813,113.9671 v -5.88331 h 3.20032 V 96.315951 h -3.20032 v -5.88331 -5.883312 h 3.20032 V 72.781492 h -3.20032 v -5.88331 -5.883312 h 3.20032 V 49.247034 h -3.20032 v -5.88331 -5.883313 h 3.20032 V 25.712575 h -3.20032 v -5.88331"
       id="path1117-9"
       inkscape:original-d="M 267.78146,113.9671 V 19.829328"
       inkscape:path-effect="#path-effect1035" />
    <path
       style="fill:none;stroke:#000000;stroke-width:0.52916667;stroke-linecap:butt;stroke-linejoin:miter;stroke-miterlimit:4;stroke-dasharray:none;stroke-opacity:1"
       d="m 267.78122,19.829269 -6.44954,8e-6 -1e-5,-3.200321 -12.90041,1.6e-5 0,3.200321 -6.44954,8e-6 -6.44954,8e-6 0,-3.200321 -12.90042,1.5e-5 10e-6,3.200321 -6.44954,8e-6 -6.44955,8e-6 0,-3.200321 -12.90042,1.6e-5 1e-5,3.200321 -6.44954,8e-6"
       id="path1121-3"
       sodipodi:nodetypes="cc"
       inkscape:original-d="m 267.78122,19.829109 -77.39847,9.4e-5"
       inkscape:path-effect="#path-effect1033" />
    <path
       style="fill:none;stroke:#000000;stroke-width:0.52916667;stroke-linecap:butt;stroke-linejoin:miter;stroke-miterlimit:4;stroke-dasharray:none;stroke-opacity:1"
       d="m 190.38264,113.96714 6.44955,-1e-5 0,3.20032 12.90043,-1e-5 -1e-5,-3.20033 6.44955,0 6.44955,-1e-5 0,3.20032 12.90042,-2e-5 0,-3.20032 6.44954,-10e-6 6.44955,-1e-5 1e-5,3.20033 12.90042,-2e-5 0,-3.20032 6.44954,-1e-5"
       id="path1125-6"
       sodipodi:nodetypes="cc"
       inkscape:original-d="m 190.38264,113.9673 77.39854,-10e-5"
       inkscape:path-effect="#path-effect1031" />
  </g>
</svg>
